<?xml version="1.0" standalone="no"?>
<!DOCTYPE svg PUBLIC "-//W3C//DTD SVG 1.1//EN" "http://www.w3.org/Graphics/SVG/1.1/DTD/svg11.dtd" >
<svg>
<metadata>
Created by FontForge 20090622 at Thu Apr 27 12:38:37 2017
 By deploy user
&#194;&#169; 2015 Apple Inc. All rights reserved.
</metadata>
<defs>
<font id="SFUIText-Heavy" horiz-adv-x="0" >
  <font-face 
    font-family="SF UI Text"
    font-weight="800"
    font-stretch="normal"
    units-per-em="2048"
    panose-1="0 0 9 0 0 0 0 0 0 0"
    ascent="1638"
    descent="-410"
    x-height="1113"
    cap-height="1443"
    bbox="-602 -569 2836 2255"
    underline-thickness="50"
    underline-position="-25"
    unicode-range="U+0020-U+FB02"
  />
<missing-glyph horiz-adv-x="1293" 
d="M120 0v1365h1053v-1365h-1053zM501 313q0 -47 33.5 -77t86.5 -30q55 0 88.5 29.5t33.5 77.5q0 49 -33.5 78.5t-88.5 29.5q-54 0 -87 -30t-33 -78zM339 888h169q1 59 34.5 94.5t90.5 35.5q54 0 87 -30t33 -80q0 -38 -20.5 -65.5t-82.5 -72.5q-69 -48 -96 -100t-22 -121
l1 -18h166v15q0 48 19 76t88 77q73 52 103 102t30 116q0 113 -81 181.5t-215 68.5q-143 0 -225.5 -76t-78.5 -203z" />
    <glyph glyph-name=".notdef" horiz-adv-x="1293" 
d="M120 0v1365h1053v-1365h-1053zM501 313q0 -47 33.5 -77t86.5 -30q55 0 88.5 29.5t33.5 77.5q0 49 -33.5 78.5t-88.5 29.5q-54 0 -87 -30t-33 -78zM339 888h169q1 59 34.5 94.5t90.5 35.5q54 0 87 -30t33 -80q0 -38 -20.5 -65.5t-82.5 -72.5q-69 -48 -96 -100t-22 -121
l1 -18h166v15q0 48 19 76t88 77q73 52 103 102t30 116q0 113 -81 181.5t-215 68.5q-143 0 -225.5 -76t-78.5 -203z" />
    <glyph glyph-name=".null" 
 />
    <glyph glyph-name="nonmarkingreturn" 
 />
    <glyph glyph-name="space" unicode=" " horiz-adv-x="502" 
 />
    <glyph glyph-name="exclam" unicode="!" horiz-adv-x="778" 
d="M197 1443h384l-32 -970h-320zM185 147q0 87 53.5 135t150.5 48t151 -48t54 -135q0 -86 -54 -134t-151 -48t-150.5 48t-53.5 134z" />
    <glyph glyph-name="quotedbl" unicode="&#x22;" horiz-adv-x="1079" 
d="M435 802h-298v641h298v-641zM942 802h-297v641h297v-641z" />
    <glyph glyph-name="numbersign" unicode="#" horiz-adv-x="1394" 
d="M1283 840h-208l-44 -217h205l-48 -253h-206l-74 -370h-263l74 370h-196l-74 -370h-262l73 370h-200l48 253h202l43 217h-199l48 251h201l70 353h262l-70 -353h196l70 353h263l-69 -353h205zM600 866l-54 -269h236l56 269h-238z" />
    <glyph glyph-name="dollar" unicode="$" horiz-adv-x="1461" 
d="M811 -135h-143v123q-252 13 -391.5 125.5t-140.5 302.5h347q4 -65 55.5 -111t129.5 -54v316l-119 25q-190 42 -288.5 147t-98.5 268q0 193 132.5 309t373.5 133v135h143v-136q221 -21 351.5 -137t132.5 -293h-336q-2 58 -44 103.5t-104 55.5v-305l119 -22
q395 -75 395 -411q0 -196 -133.5 -312.5t-380.5 -136.5v-125zM982 398q0 113 -171 144v-291q80 7 125.5 46t45.5 101zM514 1042q0 -109 154 -141v277q-68 -4 -111 -42t-43 -94z" />
    <glyph glyph-name="percent" unicode="%" horiz-adv-x="1748" 
d="M1338 181q45 0 71 42t26 115q0 75 -25.5 116t-71.5 41t-72 -41.5t-26 -115.5q0 -73 26 -115t72 -42zM1338 -36q-160 0 -256.5 102.5t-96.5 271.5t96.5 270.5t256.5 101.5t256.5 -101.5t96.5 -270.5t-96.5 -271.5t-256.5 -102.5zM411 733q-160 0 -257 102t-97 271t97 271
t257 102q161 0 257.5 -102t96.5 -271t-97 -271t-257 -102zM577 0h-334l542 757l396 686h333l-551 -761zM411 950q45 0 71 42t26 115q0 75 -25.5 116t-71.5 41t-72 -41.5t-26 -115.5q0 -73 26 -115t72 -42z" />
    <glyph glyph-name="ampersand" unicode="&#x26;" horiz-adv-x="1560" 
d="M1156 0l-100 106q-74 -63 -190 -98.5t-249 -35.5q-239 0 -377 108t-138 294q0 122 61.5 211.5t198.5 165.5q21 14 69 38q-98 100 -138.5 174.5t-40.5 153.5q0 149 123 246.5t311 97.5q187 0 304.5 -93t117.5 -241q0 -223 -284 -379l232 -249q42 72 42 214v89h285v-114
q0 -115 -33 -220.5t-91 -180.5l276 -287h-379zM550 593q-125 -76 -125 -189q0 -84 63 -135.5t166 -51.5q69 0 129.5 22.5t94.5 60.5l-291 311q-25 -10 -37 -18zM669 903q156 82 156 196q0 62 -38.5 101t-99.5 39t-101 -39.5t-40 -99.5q0 -45 27 -89t96 -108z" />
    <glyph glyph-name="quotesingle" unicode="'" horiz-adv-x="571" 
d="M435 802h-298v641h298v-641z" />
    <glyph glyph-name="parenleft" unicode="(" horiz-adv-x="842" 
d="M760 -277h-341q-129 163 -200 392.5t-71 484.5q0 257 66 455.5t214 387.5h335q-109 -125 -178.5 -361.5t-69.5 -479.5q0 -235 58.5 -445.5t186.5 -433.5z" />
    <glyph glyph-name="parenright" unicode=")" horiz-adv-x="842" 
d="M82 -277q128 223 186.5 433.5t58.5 445.5q0 243 -69.5 479.5t-178.5 361.5h335q148 -189 213.5 -387.5t65.5 -455.5q0 -256 -70.5 -485t-199.5 -392h-341z" />
    <glyph glyph-name="asterisk" unicode="*" horiz-adv-x="1013" 
d="M630 1066l253 -88l-108 -187l-201 164l40 -257h-215l40 257l-201 -164l-108 187l253 88l-253 97l108 188l203 -179l-42 271h215l-42 -271l203 179l108 -188z" />
    <glyph glyph-name="plus" unicode="+" horiz-adv-x="1461" 
d="M886 436v-400h-311v400h-401v301h401v397h311v-397h401v-301h-401z" />
    <glyph glyph-name="comma" unicode="," horiz-adv-x="772" 
d="M430 -397h-277l70 662h333z" />
    <glyph glyph-name="hyphen" unicode="-" horiz-adv-x="1006" 
d="M832 425h-658v316h658v-316z" />
    <glyph glyph-name="period" unicode="." horiz-adv-x="767" 
d="M383 -33q-93 0 -147 52.5t-54 137.5q0 86 54 138.5t147 52.5q94 0 148 -52.5t54 -138.5q0 -85 -54 -137.5t-148 -52.5z" />
    <glyph glyph-name="slash" unicode="/" horiz-adv-x="803" 
d="M363 -274h-331l401 1717h337z" />
    <glyph glyph-name="zero" unicode="0" horiz-adv-x="1460" 
d="M730 -39q-282 0 -444 203t-162 561q0 356 162.5 556.5t443.5 200.5t443.5 -200.5t162.5 -557.5q0 -356 -162.5 -559.5t-443.5 -203.5zM730 243q108 0 171 124t63 358q0 232 -63 353.5t-171 121.5t-170.5 -121.5t-62.5 -353.5q0 -234 62.5 -358t170.5 -124z" />
    <glyph glyph-name="one" unicode="1" horiz-adv-x="1101" 
d="M489 0v1112h-19l-348 -235v316l367 250h367v-1443h-367z" />
    <glyph glyph-name="two" unicode="2" horiz-adv-x="1361" 
d="M117 1001q0 215 154 348t405 133q242 0 390.5 -118t148.5 -310q0 -120 -79 -239.5t-271 -290.5l-238 -219v-19h608v-286h-1097v245l456 429q158 146 212 218t54 136q0 80 -54 128.5t-143 48.5q-93 0 -151.5 -57t-58.5 -146v-7h-336v6z" />
    <glyph glyph-name="three" unicode="3" horiz-adv-x="1415" 
d="M519 611v253h177q92 0 148 47.5t56 126.5t-55.5 124.5t-151.5 45.5q-94 0 -153 -51.5t-62 -136.5h-333q4 212 154.5 337t401.5 125q240 0 390 -109.5t150 -284.5q0 -124 -75.5 -214t-197.5 -113v-19q149 -16 237.5 -107.5t88.5 -230.5q0 -196 -167 -319.5t-432 -123.5
q-253 0 -410 127.5t-167 339.5h350q4 -83 66.5 -130.5t166.5 -47.5q98 0 159 50.5t61 131.5q0 83 -60 131t-165 48h-177z" />
    <glyph glyph-name="four" unicode="4" horiz-adv-x="1459" 
d="M820 0v234h-708v307q184 352 546 902h509v-923h180v-286h-180v-234h-347zM429 525v-18h400v674h-18q-176 -271 -382 -656z" />
    <glyph glyph-name="five" unicode="5" horiz-adv-x="1408" 
d="M719 -39q-248 0 -404 130t-160 329h333q13 -79 78 -127.5t156 -48.5q101 0 165 64t64 169q0 107 -64.5 173.5t-165.5 66.5q-145 0 -220 -119h-323l68 845h960v-286h-677l-27 -335h19q92 148 306 148q205 0 337.5 -136.5t132.5 -347.5q0 -235 -159 -380t-419 -145z" />
    <glyph glyph-name="six" unicode="6" horiz-adv-x="1451" 
d="M748 -38q-154 0 -276.5 60t-200.5 174q-148 195 -148 520q0 355 168 560.5t458 205.5q218 0 373.5 -115.5t184.5 -297.5h-359q-17 59 -71.5 94.5t-128.5 35.5q-133 0 -210.5 -125.5t-67.5 -325.5h19q48 101 142 155.5t219 54.5q205 0 340 -135.5t135 -341.5
q0 -228 -162 -373.5t-415 -145.5zM745 244q96 0 162 65.5t66 160.5q0 96 -65.5 160.5t-162.5 64.5t-162 -64t-65 -159q0 -96 65.5 -162t161.5 -66z" />
    <glyph glyph-name="seven" unicode="7" horiz-adv-x="1277" 
d="M202 0l599 1141v20h-699v283h1066v-284l-582 -1160h-384z" />
    <glyph glyph-name="eight" unicode="8" horiz-adv-x="1481" 
d="M739 -39q-276 0 -445.5 117t-169.5 307q0 133 89.5 233.5t238.5 135.5v19q-122 26 -196 111.5t-74 199.5q0 173 157 285.5t401 112.5t401 -112.5t157 -285.5q0 -114 -74 -199.5t-196 -111.5v-19q148 -27 238.5 -127.5t90.5 -238.5q0 -191 -170.5 -309t-447.5 -118z
M740 219q103 0 167 55.5t64 144.5t-64.5 145t-166.5 56q-103 0 -167.5 -56t-64.5 -145t64.5 -144.5t167.5 -55.5zM740 870q85 0 140.5 51t55.5 129t-55.5 129.5t-140.5 51.5q-86 0 -141.5 -51.5t-55.5 -129.5t56 -129t141 -51z" />
    <glyph glyph-name="nine" unicode="9" horiz-adv-x="1451" 
d="M701 -38q-143 0 -263.5 52t-197.5 146t-96 215h359q17 -60 71.5 -95.5t128.5 -35.5q133 0 210.5 125.5t67.5 325.5h-10h-9q-49 -101 -142.5 -155t-218.5 -54q-205 0 -340 135.5t-135 340.5q0 228 162 374t415 146q153 0 275 -60t202 -174q148 -198 148 -521
q0 -355 -168 -560t-459 -205zM706 749q97 0 162 64t65 159q0 96 -65.5 161.5t-161.5 65.5t-162 -65.5t-66 -160.5q0 -96 65 -160t163 -64z" />
    <glyph glyph-name="colon" unicode=":" horiz-adv-x="767" 
d="M383 -33q-93 0 -147 52.5t-54 137.5q0 86 54 138.5t147 52.5q94 0 148 -52.5t54 -138.5q0 -85 -54 -137.5t-148 -52.5zM383 693q-93 0 -147 52.5t-54 137.5t54 137.5t147 52.5q94 0 148 -52.5t54 -137.5t-54 -137.5t-148 -52.5z" />
    <glyph glyph-name="semicolon" unicode=";" horiz-adv-x="767" 
d="M430 -397h-277l70 662h333zM383 693q-93 0 -147 52.5t-54 137.5t54 137.5t147 52.5q94 0 148 -52.5t54 -137.5t-54 -137.5t-148 -52.5z" />
    <glyph glyph-name="less" unicode="&#x3c;" horiz-adv-x="1461" 
d="M1226 309v-345l-991 490v271l991 490v-345l-630 -271v-19z" />
    <glyph glyph-name="equal" unicode="=" horiz-adv-x="1461" 
d="M1284 178h-1107v302h1107v-302zM1284 692h-1107v302h1107v-302z" />
    <glyph glyph-name="greater" unicode="&#x3e;" horiz-adv-x="1461" 
d="M235 309l630 271v19l-630 271v345l991 -490v-271l-991 -490v345z" />
    <glyph glyph-name="question" unicode="?" horiz-adv-x="1189" 
d="M76 1023q2 198 138.5 315.5t374.5 117.5q227 0 364.5 -110t137.5 -290q0 -110 -52.5 -190.5t-163.5 -144.5q-103 -60 -139 -104t-36 -114v-47h-312l-3 40q-14 127 25 203.5t145 137.5q102 60 136.5 102t34.5 108q0 61 -44.5 99t-115.5 38q-72 0 -117.5 -44t-47.5 -117
h-325zM553 -35q-97 0 -151 48t-54 134q0 87 54 135t151 48t150.5 -48t53.5 -135q0 -86 -53.5 -134t-150.5 -48z" />
    <glyph glyph-name="at" unicode="@" horiz-adv-x="1908" 
d="M942 822q-68 0 -106.5 -55t-38.5 -153t38.5 -153t106.5 -55q69 0 108.5 55.5t39.5 152.5t-40 152.5t-108 55.5zM974 1456q238 0 422.5 -93.5t285.5 -263t101 -389.5q0 -236 -107.5 -373t-294.5 -137q-97 0 -162.5 40t-85.5 111h-19q-62 -152 -234 -152q-156 0 -251 116
t-95 306q0 182 91.5 294.5t239.5 112.5q81 0 142 -37t91 -105h19v118h230v-508q0 -53 22.5 -83t63.5 -30q66 0 105 82t39 221q0 271 -164.5 432.5t-441.5 161.5q-288 0 -467.5 -184t-179.5 -479q0 -299 185 -473t503 -174q148 0 239 28v-178q-114 -30 -261 -30
q-259 0 -457 103.5t-306.5 292.5t-108.5 436q0 244 108 434t303 295t445 105z" />
    <glyph glyph-name="A" unicode="A" horiz-adv-x="1563" 
d="M1091 0l-90 317h-471l-93 -317h-364l484 1443h449l485 -1443h-400zM758 1118l-158 -537h332l-155 537h-19z" />
    <glyph glyph-name="B" unicode="B" horiz-adv-x="1459" 
d="M863 0h-693v1443h673q215 0 336.5 -96t121.5 -264q0 -116 -77 -203.5t-192 -103.5v-19q142 -8 238.5 -105.5t96.5 -235.5q0 -190 -136.5 -303t-367.5 -113zM537 1184v-329h194q100 0 156 43.5t56 120.5t-52.5 121t-145.5 44h-208zM537 259h222q114 0 174.5 48.5
t60.5 140.5q0 89 -61.5 136.5t-175.5 47.5h-220v-373z" />
    <glyph glyph-name="C" unicode="C" horiz-adv-x="1545" 
d="M800 -39q-324 0 -511 204t-187 557t186.5 556.5t511.5 203.5q179 0 325.5 -73.5t232.5 -204t91 -291.5h-353q-14 118 -96 190.5t-200 72.5q-151 0 -237.5 -121t-86.5 -332q0 -212 87 -334t238 -122q119 0 200 70.5t97 186.5h352q-9 -248 -191 -405.5t-459 -157.5z" />
    <glyph glyph-name="D" unicode="D" horiz-adv-x="1553" 
d="M170 1444h606q322 0 498.5 -185t176.5 -523q0 -355 -174.5 -545.5t-500.5 -190.5h-606v1444zM537 1149v-854h173q179 0 273 110t94 324q0 201 -96.5 310.5t-270.5 109.5h-173z" />
    <glyph glyph-name="E" unicode="E" horiz-adv-x="1302" 
d="M1159 295v-295h-989v1443h989v-295h-622v-288h585v-270h-585v-295h622z" />
    <glyph glyph-name="F" unicode="F" horiz-adv-x="1251" 
d="M537 0h-367v1443h982v-295h-615v-329h558v-281h-558v-538z" />
    <glyph glyph-name="G" unicode="G" horiz-adv-x="1572" 
d="M1468 601q0 -298 -174.5 -469t-480.5 -171q-333 0 -522 203t-189 559q0 352 188 555.5t513 203.5q264 0 443.5 -140.5t206.5 -369.5h-362q-27 95 -103.5 149.5t-184.5 54.5q-154 0 -240.5 -119t-86.5 -330q0 -213 93.5 -336.5t251.5 -123.5q125 0 205 67t87 177l1 24
h-264v252h618v-186z" />
    <glyph glyph-name="H" unicode="H" horiz-adv-x="1648" 
d="M1478 0h-366v582h-575v-582h-367v1443h367v-566h575v566h366v-1443z" />
    <glyph glyph-name="I" unicode="I" horiz-adv-x="707" 
d="M537 0h-367v1443h367v-1443z" />
    <glyph glyph-name="J" unicode="J" horiz-adv-x="1299" 
d="M70 458h352q1 -85 48 -135.5t126 -50.5q81 0 123.5 50t42.5 146v975h367v-978q0 -241 -139.5 -372.5t-387.5 -131.5q-244 0 -388 133.5t-144 363.5z" />
    <glyph glyph-name="K" unicode="K" horiz-adv-x="1507" 
d="M537 0h-367v1443h367v-620h19l480 620h394l-499 -637l528 -806h-431l-364 569l-127 -161v-408z" />
    <glyph glyph-name="L" unicode="L" horiz-adv-x="1247" 
d="M1150 303v-303h-980v1443h367v-1140h613z" />
    <glyph glyph-name="M" unicode="M" horiz-adv-x="1924" 
d="M509 0h-339v1443h433l350 -882h19l349 882h433v-1443h-339v911h-18l-321 -800h-227l-322 800h-18v-911z" />
    <glyph glyph-name="N" unicode="N" horiz-adv-x="1601" 
d="M518 0h-348v1443h293l601 -812h19v812h348v-1443h-291l-603 820h-19v-820z" />
    <glyph glyph-name="O" unicode="O" horiz-adv-x="1626" 
d="M814 1482q326 0 518 -204.5t192 -555.5q0 -352 -192 -556.5t-518 -204.5q-328 0 -520 204.5t-192 556.5q0 351 193 555.5t519 204.5zM814 1178q-153 0 -245.5 -124t-92.5 -332q0 -209 92 -333t246 -124q153 0 245 124t92 333q0 208 -92.5 332t-244.5 124z" />
    <glyph glyph-name="P" unicode="P" horiz-adv-x="1421" 
d="M170 1443h632q233 0 376.5 -140t143.5 -372q0 -229 -150 -368.5t-392 -139.5h-243v-423h-367v1443zM537 1161v-461h166q118 0 183 59t65 171q0 113 -64 172t-182 59h-168z" />
    <glyph glyph-name="Q" unicode="Q" horiz-adv-x="1626" 
d="M1490 -132h-341l-85 130q-117 -37 -250 -37q-328 0 -520 204t-192 557q0 351 193 555.5t519 204.5t518 -204.5t192 -555.5q0 -185 -54.5 -331.5t-156.5 -243.5zM814 266q40 0 78 9l-150 232h312l33 -44q64 98 64 259q0 208 -92.5 331.5t-244.5 123.5
q-153 0 -245.5 -123.5t-92.5 -331.5q0 -209 92.5 -332.5t245.5 -123.5z" />
    <glyph glyph-name="R" unicode="R" horiz-adv-x="1466" 
d="M537 1166v-402h217q101 0 158 53t57 147q0 92 -59 147t-157 55h-216zM537 505v-505h-367v1443h635q253 0 396 -126.5t143 -349.5q0 -136 -65 -246.5t-181 -161.5l288 -559h-412l-247 505h-190z" />
    <glyph glyph-name="S" unicode="S" horiz-adv-x="1423" 
d="M107 411h350q7 -79 79.5 -125.5t186.5 -46.5q103 0 167 45t64 116q0 60 -52 95.5t-176 60.5l-190 38q-198 37 -299 144t-101 277q0 212 156.5 339.5t417.5 127.5q253 0 413 -125t165 -325h-339q-6 76 -71.5 124.5t-162.5 48.5t-155.5 -42.5t-58.5 -114.5q0 -59 51 -96
t165 -59l186 -36q214 -41 313.5 -141t99.5 -272q0 -226 -162 -354.5t-446 -128.5q-274 0 -435.5 121t-165.5 329z" />
    <glyph glyph-name="T" unicode="T" horiz-adv-x="1381" 
d="M873 0h-366v1148h-416v295h1199v-295h-417v-1148z" />
    <glyph glyph-name="U" unicode="U" horiz-adv-x="1585" 
d="M538 1443v-906q0 -126 66.5 -196.5t188.5 -70.5t188 70t66 197v906h367v-945q0 -243 -170 -390t-451 -147t-451.5 147t-170.5 390v945h367z" />
    <glyph glyph-name="V" unicode="V" horiz-adv-x="1528" 
d="M1002 0h-464l-465 1443h421l277 -1062h19l269 1062h396z" />
    <glyph glyph-name="W" unicode="W" horiz-adv-x="2112" 
d="M1046 884l-237 -884h-346l-377 1443h381l192 -957h18l231 957h294l239 -957h18l189 957h378l-377 -1443h-344l-241 884h-18z" />
    <glyph glyph-name="X" unicode="X" horiz-adv-x="1549" 
d="M87 0l443 728l-442 715h428l259 -478h19l261 478h408l-461 -719l457 -724h-413l-274 457h-19l-276 -457h-390z" />
    <glyph glyph-name="Y" unicode="Y" horiz-adv-x="1507" 
d="M937 0h-366v496l-498 947h391l281 -589h19l279 589h391l-497 -947v-496z" />
    <glyph glyph-name="Z" unicode="Z" horiz-adv-x="1399" 
d="M130 0v233l677 896v19h-666v295h1106v-233l-677 -896v-19h698v-295h-1138z" />
    <glyph glyph-name="bracketleft" unicode="[" horiz-adv-x="895" 
d="M148 1444h640v-257h-300v-1171h312v-256h-652v1684z" />
    <glyph glyph-name="backslash" unicode="\" horiz-adv-x="803" 
d="M440 -274l-408 1717h338l400 -1717h-330z" />
    <glyph glyph-name="bracketright" unicode="]" horiz-adv-x="895" 
d="M747 1444v-1684h-652v256h312v1171h-298v257h638z" />
    <glyph glyph-name="asciicircum" unicode="^" horiz-adv-x="1109" 
d="M545 1170l-163 -355h-306l331 614h295l332 -614h-307l-163 355h-19z" />
    <glyph glyph-name="underscore" unicode="_" horiz-adv-x="960" 
d="M958 -373h-956v266h956v-266z" />
    <glyph glyph-name="grave" unicode="`" horiz-adv-x="1101" 
d="M849 1288h-309l-292 359h356z" />
    <glyph glyph-name="a" unicode="a" horiz-adv-x="1248" 
d="M570 230q84 0 141.5 49t57.5 121v73l-187 -12q-78 -6 -119 -36t-41 -80q0 -53 40.5 -84t107.5 -31zM441 -17q-161 0 -260.5 92.5t-99.5 244.5t114.5 238.5t330.5 99.5l243 14v87q0 57 -40.5 88.5t-113.5 31.5q-141 0 -176 -90h-318q12 162 150 256t364 94q230 0 356 -100
t126 -280v-759h-344v138h-19q-37 -71 -122 -113t-191 -42z" />
    <glyph glyph-name="b" unicode="b" horiz-adv-x="1374" 
d="M847 -17q-119 0 -207.5 50.5t-128.5 140.5h-19v-174h-344v1530h353v-596h19q41 93 126.5 144.5t200.5 51.5q211 0 327.5 -150.5t116.5 -422.5q0 -271 -117.5 -422.5t-326.5 -151.5zM715 852q-99 0 -157 -79.5t-59 -216.5q1 -137 58.5 -216t157.5 -79q99 0 156 79.5
t57 216.5q0 136 -57.5 215.5t-155.5 79.5z" />
    <glyph glyph-name="c" unicode="c" horiz-adv-x="1233" 
d="M1158 701h-325q-11 79 -59 122.5t-128 43.5q-208 0 -208 -309q0 -312 208 -312q163 0 187 158h325q-16 -201 -151.5 -315.5t-360.5 -114.5q-275 0 -419 149.5t-144 434.5q0 284 144 432.5t419 148.5q228 0 361.5 -116t150.5 -322z" />
    <glyph glyph-name="d" unicode="d" horiz-adv-x="1374" 
d="M530 -17q-209 0 -328 153.5t-119 422.5q0 266 119.5 418.5t327.5 152.5q112 0 197.5 -52t126.5 -144h19v596h354v-1530h-345v174h-19q-41 -90 -129 -140.5t-204 -50.5zM660 852q-100 0 -157 -78.5t-57 -216.5q0 -139 56.5 -217.5t157.5 -78.5t158 78.5t57 216.5
t-57.5 217t-157.5 79z" />
    <glyph glyph-name="e" unicode="e" horiz-adv-x="1262" 
d="M639 888q-87 0 -143 -56.5t-63 -150.5h404q-4 97 -56.5 152t-141.5 55zM850 328h323q-29 -163 -172 -258.5t-359 -95.5q-266 0 -412.5 150.5t-146.5 424.5q0 275 147.5 432.5t406.5 157.5q257 0 400 -148.5t143 -414.5v-98h-749v-18q2 -109 61 -172t160 -63
q77 0 128.5 27t69.5 76z" />
    <glyph glyph-name="f" unicode="f" horiz-adv-x="885" 
d="M226 0v835h-172v263h172v113q0 168 93 239.5t308 71.5q86 0 167 -12v-233q-37 7 -94 7q-67 0 -98.5 -24.5t-31.5 -76.5v-85h223v-263h-214v-835h-353z" />
    <glyph glyph-name="g" unicode="g" horiz-adv-x="1360" 
d="M871 563q0 135 -57.5 212t-158.5 77q-100 0 -156.5 -77t-56.5 -211t56 -211t157 -77q102 0 159 76.5t57 210.5zM645 -419q-232 0 -377 91.5t-156 241.5h344q10 -45 63 -71.5t136 -26.5q102 0 158 45.5t56 128.5v201h-19q-87 -175 -328 -175q-204 0 -323.5 147.5
t-119.5 399.5q0 263 120.5 415t330.5 152q111 0 199 -52.5t130 -143.5h19v179h345v-1100q0 -199 -156 -315.5t-422 -116.5z" />
    <glyph glyph-name="h" unicode="h" horiz-adv-x="1383" 
d="M148 0v1530h346v-602h19q36 95 131 150.5t216 55.5q186 0 290.5 -109t104.5 -310v-715h-354v635q0 102 -51 156.5t-142 54.5t-149 -59.5t-58 -155.5v-631h-353z" />
    <glyph glyph-name="i" unicode="i" horiz-adv-x="631" 
d="M138 0v1113h354v-1113h-354zM315 1242q-92 0 -145.5 43t-53.5 114q0 72 53.5 115t145.5 43q93 0 146.5 -43t53.5 -115q0 -71 -53.5 -114t-146.5 -43z" />
    <glyph glyph-name="j" unicode="j" horiz-adv-x="631" 
d="M492 1113v-1127q0 -169 -109 -259.5t-313 -90.5q-65 0 -103 4v253q18 -2 42 -2q69 0 99 25.5t30 82.5v1114h354zM315 1242q-92 0 -145.5 43t-53.5 114q0 72 53.5 115t145.5 43q93 0 146.5 -43t53.5 -115q0 -71 -53.5 -114t-146.5 -43z" />
    <glyph glyph-name="k" unicode="k" horiz-adv-x="1295" 
d="M520 697l316 416h396l-397 -478l424 -635h-412l-278 426l-68 -77v-349h-353v1530h353v-833h19z" />
    <glyph glyph-name="l" unicode="l" horiz-adv-x="649" 
d="M148 0v1530h353v-1530h-353z" />
    <glyph glyph-name="m" unicode="m" horiz-adv-x="1960" 
d="M138 0v1113h344v-184h19q32 97 115 153.5t192 56.5q119 0 198 -54.5t111 -155.5h19q35 95 125.5 152.5t207.5 57.5q164 0 263.5 -103.5t99.5 -274.5v-761h-353v671q0 179 -161 179q-75 0 -119.5 -50t-44.5 -132v-668h-338v677q0 84 -41 128.5t-118 44.5q-74 0 -120 -52
t-46 -136v-662h-353z" />
    <glyph glyph-name="n" unicode="n" horiz-adv-x="1359" 
d="M138 0v1113h344v-181h19q37 95 129.5 151t212.5 56q186 0 287.5 -110t101.5 -310v-719h-354v640q0 101 -48.5 155.5t-138.5 54.5q-89 0 -144.5 -59t-55.5 -155v-636h-353z" />
    <glyph glyph-name="o" unicode="o" horiz-adv-x="1300" 
d="M650 244q97 0 150.5 82t53.5 231q0 146 -54 229t-150 83t-150 -83t-54 -229q0 -149 53.5 -231t150.5 -82zM650 -26q-267 0 -417 154t-150 429q0 270 152 426t415 156q264 0 415.5 -155.5t151.5 -426.5q0 -275 -149.5 -429t-417.5 -154z" />
    <glyph glyph-name="p" unicode="p" horiz-adv-x="1364" 
d="M833 1130q211 0 329.5 -150.5t118.5 -422.5t-116 -423t-324 -151q-120 0 -206 49.5t-125 138.5h-19v-510h-353v1452h344v-181h19q41 93 129 145.5t203 52.5zM704 261q101 0 157.5 78.5t56.5 217.5q0 138 -57 216.5t-157 78.5t-157.5 -79t-57.5 -217q0 -139 57 -217
t158 -78z" />
    <glyph glyph-name="q" unicode="q" horiz-adv-x="1364" 
d="M534 1130q112 0 199.5 -53.5t129.5 -144.5h19v181h345v-1452h-355v510h-19q-41 -89 -126 -138.5t-202 -49.5q-208 0 -325 153.5t-117 422.5q0 266 120.5 418.5t330.5 152.5zM659 261q101 0 158.5 78.5t57.5 216.5q0 137 -58 216.5t-158 79.5t-156.5 -79t-56.5 -216
q0 -139 56.5 -217.5t156.5 -78.5z" />
    <glyph glyph-name="r" unicode="r" horiz-adv-x="946" 
d="M138 0v1113h344v-183h19q21 86 96 143t174 57q83 0 125 -17v-301q-19 8 -66.5 14t-82.5 6q-117 0 -186.5 -64t-69.5 -179v-589h-353z" />
    <glyph glyph-name="s" unicode="s" horiz-adv-x="1206" 
d="M113 778q0 166 132 263.5t357 97.5q231 0 355.5 -87.5t134.5 -255.5h-322q-8 49 -51 76.5t-114 27.5q-69 0 -112.5 -27.5t-43.5 -72.5q0 -35 30.5 -57.5t97.5 -36.5l230 -47q165 -35 239.5 -107.5t74.5 -198.5q0 -173 -140 -276t-374 -103q-239 0 -372.5 88.5
t-148.5 256.5h341q28 -106 185 -106q73 0 116.5 27t43.5 72q0 35 -27.5 56t-94.5 35l-207 44q-330 70 -330 331z" />
    <glyph glyph-name="t" unicode="t" horiz-adv-x="898" 
d="M226 1365h353v-267h227v-263h-227v-451q0 -125 135 -125q46 0 89 5v-252q-67 -14 -169 -14q-219 0 -313.5 71.5t-94.5 235.5v530h-172v263h172v267z" />
    <glyph glyph-name="u" unicode="u" horiz-adv-x="1367" 
d="M1230 1113v-1113h-345v180h-19q-38 -98 -125 -152t-206 -54q-184 0 -295.5 112t-111.5 307v720h353v-640q0 -101 52 -154.5t142 -53.5q89 0 145 57.5t56 154.5v636h354z" />
    <glyph glyph-name="v" unicode="v" horiz-adv-x="1238" 
d="M42 1113h381l193 -796h19l189 796h372l-371 -1113h-408z" />
    <glyph glyph-name="w" unicode="w" horiz-adv-x="1814" 
d="M1756 1113l-288 -1113h-381l-174 733h-19l-172 -733h-375l-290 1113h358l139 -763h19l168 763h337l170 -763h19l139 763h350z" />
    <glyph glyph-name="x" unicode="x" horiz-adv-x="1250" 
d="M626 341h-19l-178 -341h-369l333 547l-335 566h403l163 -347h19l165 347h383l-337 -551l338 -562h-387z" />
    <glyph glyph-name="y" unicode="y" horiz-adv-x="1282" 
d="M298 -407q-124 0 -129 1v269q5 -1 62 -1q176 0 194 98l5 31l-380 1122h391l199 -816h19l199 816h374l-358 -1111q-71 -222 -203.5 -315.5t-372.5 -93.5z" />
    <glyph glyph-name="z" unicode="z" horiz-adv-x="1190" 
d="M112 0v189l524 639v19h-512v266h936v-217l-477 -611v-19h495v-266h-966z" />
    <glyph glyph-name="braceleft" unicode="{" horiz-adv-x="981" 
d="M415 598q109 -9 166 -76.5t57 -184.5v-230q0 -117 41.5 -157.5t161.5 -40.5h45v-249h-128q-246 0 -352.5 92t-106.5 305v191q0 116 -35.5 160.5t-128.5 44.5v310q92 0 128 45.5t36 161.5v158q0 209 106 298.5t353 89.5h128v-250h-45q-121 0 -162 -40.5t-41 -157.5v-213
q0 -111 -54 -169.5t-169 -68.5v-19z" />
    <glyph glyph-name="bar" unicode="|" horiz-adv-x="788" 
d="M559 -275h-330v1718h330v-1718z" />
    <glyph glyph-name="braceright" unicode="}" horiz-adv-x="981" 
d="M566 598v19q-115 10 -169 68.5t-54 169.5v213q0 117 -41.5 157.5t-162.5 40.5h-45v250h128q247 0 353.5 -89.5t106.5 -298.5v-158q0 -116 35.5 -161.5t127.5 -45.5v-310q-92 0 -127.5 -44.5t-35.5 -160.5v-191q0 -213 -107 -305t-353 -92h-128v249h45q120 0 162 40.5
t42 157.5v230q0 117 57 184.5t166 76.5z" />
    <glyph glyph-name="asciitilde" unicode="~" horiz-adv-x="1236" 
d="M570 617q-41 41 -68 57t-57 16q-106 0 -107 -178h-264q-2 18 -2 53q-1 190 88.5 301.5t242.5 111.5q70 0 130 -29.5t137 -103.5q72 -71 122 -71q104 0 107 178h264q2 -38 2 -52q0 -191 -88.5 -302.5t-240.5 -111.5q-71 0 -131.5 29.5t-134.5 101.5z" />
    <glyph glyph-name="nonbreakingspace" unicode="&#xa0;" horiz-adv-x="502" 
 />
    <glyph glyph-name="exclamdown" unicode="&#xa1;" horiz-adv-x="778" 
d="M197 -314l32 970h320l32 -970h-384zM185 983q0 86 53.5 133.5t150.5 47.5t151 -48t54 -133q0 -87 -54 -135t-151 -48t-150.5 48t-53.5 135z" />
    <glyph glyph-name="cent" unicode="&#xa2;" horiz-adv-x="1461" 
d="M1298 536q-14 -168 -127.5 -278t-292.5 -141v-189h-279v195q-203 42 -323 191.5t-120 376.5q0 223 120.5 372.5t322.5 191.5v196h279v-191q177 -32 291.5 -146t128.5 -281h-324q-17 74 -76.5 120t-139.5 46q-108 0 -177.5 -82.5t-69.5 -225.5q0 -146 69.5 -229t176.5 -83
q86 0 143.5 42t73.5 115h324z" />
    <glyph glyph-name="sterling" unicode="&#xa3;" horiz-adv-x="1461" 
d="M1303 298v-298h-1157v274q134 15 215.5 100.5t84.5 213.5q0 18 -5 36h-289v240h217q-56 132 -56 234q0 183 151.5 283.5t428.5 100.5q214 0 346 -30v-275q-144 29 -285 29q-127 0 -201.5 -50t-74.5 -135q0 -71 33 -157h389v-240h-318q4 -15 4 -34q8 -87 -32.5 -161.5
t-115.5 -111.5v-19h665z" />
    <glyph glyph-name="currency" unicode="&#xa4;" horiz-adv-x="1461" 
d="M512 645q0 -89 65 -154.5t154 -65.5t154 65.5t65 154.5t-65 155t-154 66t-154 -66t-65 -155zM1295 1012l-139 -139q57 -108 57 -228t-57 -228l139 -139l-197 -198l-140 140q-108 -57 -227 -57q-120 0 -228 57l-140 -140l-197 198l140 140q-57 108 -57 227t57 227
l-140 140l197 198l140 -140q108 57 228 57q119 0 227 -57l140 140z" />
    <glyph glyph-name="yen" unicode="&#xa5;" horiz-adv-x="1461" 
d="M1182 182h-268v-182h-367v182h-268v182h268v120h-268v182h181l-410 777h391l281 -589h19l279 589h391l-410 -777h181v-182h-268v-120h268v-182z" />
    <glyph glyph-name="brokenbar" unicode="&#xa6;" horiz-adv-x="788" 
d="M559 773h-330v670h330v-670zM559 -275h-330v670h330v-670z" />
    <glyph glyph-name="section" unicode="&#xa7;" horiz-adv-x="1032" 
d="M470 475l123 -46q42 12 70 46t28 72q0 41 -33.5 74.5t-93.5 52.5l-122 47q-42 -13 -70.5 -47t-28.5 -71q0 -40 34 -74t93 -54zM512 -297q-195 0 -319.5 96t-130.5 251h293q6 -49 50.5 -80.5t107.5 -31.5q65 0 105 31.5t40 82.5q0 37 -29 62.5t-94 47.5l-194 68
q-155 55 -223.5 127t-68.5 181q0 93 56.5 165t154.5 104v19q-106 53 -152 117t-46 158q0 157 124.5 251.5t332.5 94.5q194 0 317 -94.5t131 -250.5h-293q-6 49 -49.5 79.5t-105.5 30.5q-64 0 -103.5 -31.5t-39.5 -82.5q0 -37 27.5 -61.5t94.5 -48.5l186 -69
q159 -58 229.5 -129.5t70.5 -175.5q0 -95 -60 -169.5t-160 -104.5v-19q110 -50 158.5 -113.5t48.5 -157.5q0 -157 -125.5 -252t-333.5 -95z" />
    <glyph glyph-name="dieresis" unicode="&#xa8;" horiz-adv-x="1220" 
d="M359 1268q-76 0 -124.5 46t-48.5 118t48.5 118t124.5 46t124.5 -46t48.5 -118t-48.5 -118t-124.5 -46zM861 1268q-76 0 -124.5 46t-48.5 118t48.5 118t124.5 46t125 -46t49 -118t-49 -118t-125 -46z" />
    <glyph glyph-name="copyright" unicode="&#xa9;" horiz-adv-x="1742" 
d="M871 -124q-160 0 -305.5 62t-251 167.5t-167.5 251t-62 306.5q0 160 62 305.5t167.5 251t251 167.5t305.5 62t305.5 -62t251 -167.5t167.5 -251t62 -305.5q0 -161 -62 -306.5t-167.5 -251t-251 -167.5t-305.5 -62zM871 52q125 0 238 48t194.5 130t129.5 195t48 238
t-48 238t-129.5 194.5t-194.5 129.5t-238 48t-238 -48t-194.5 -129.5t-129.5 -194.5t-48 -238q0 -167 81.5 -307.5t222 -222t306.5 -81.5zM1232 756h-214q-8 53 -43 83.5t-87 30.5q-68 0 -106.5 -54.5t-38.5 -151.5q0 -100 38 -154t107 -54q54 0 88 28t42 79h214
q-12 -133 -104.5 -209.5t-241.5 -76.5q-175 0 -275 103.5t-100 283.5q0 178 100.5 281.5t272.5 103.5q147 0 241.5 -79.5t106.5 -213.5z" />
    <glyph glyph-name="ordfeminine" unicode="&#xaa;" horiz-adv-x="1078" 
d="M518 709q61 0 99.5 36.5t38.5 93.5v61l-135 -10q-118 -9 -118 -91q0 -42 30.5 -66t84.5 -24zM393 490q-138 0 -220 78t-82 211q0 128 95.5 200.5t281.5 83.5l187 10v73q1 41 -30 64.5t-85 23.5q-104 0 -118 -71h-298q9 142 122.5 222.5t305.5 80.5q194 0 306.5 -87
t112.5 -238v-635h-310v110h-19q-28 -58 -95 -92t-154 -34z" />
    <glyph glyph-name="guillemotleft" unicode="&#xab;" horiz-adv-x="1476" 
d="M985 571v-8l345 -410h-314l-341 409v8l348 409h307zM456 571v-8l345 -410h-313l-342 409v8l349 409h306z" />
    <glyph glyph-name="logicalnot" unicode="&#xac;" horiz-adv-x="1461" 
d="M1279 737v-703h-312v402h-785v301h1097z" />
    <glyph glyph-name="registered" unicode="&#xae;" horiz-adv-x="1260" 
d="M630 410q-145 0 -268 71.5t-194.5 194.5t-71.5 268t71.5 268t194.5 194.5t268 71.5t268 -71.5t194.5 -194.5t71.5 -268t-71.5 -268t-194.5 -194.5t-268 -71.5zM630 558q160 0 273 113t113 273t-113 273t-273 113t-273 -113t-113 -273t113 -273t273 -113zM555 709h-139
v482h260q83 0 133.5 -43t50.5 -114q0 -53 -26.5 -92.5t-70.5 -54.5l121 -178h-164l-102 158h-63v-158zM555 1082v-114h86q71 0 71 56q0 58 -69 58h-88z" />
    <glyph glyph-name="macron" unicode="&#xaf;" horiz-adv-x="1048" 
d="M908 1327h-768v198h768v-198z" />
    <glyph glyph-name="degree" unicode="&#xb0;" horiz-adv-x="879" 
d="M439 737q-146 0 -248 103t-102 248t102 248t248 103t248.5 -103t102.5 -248t-102.5 -248t-248.5 -103zM439 933q65 0 110.5 45.5t45.5 109.5q0 65 -45 110t-111 45t-110.5 -45t-44.5 -110q0 -64 45 -109.5t110 -45.5z" />
    <glyph glyph-name="plusminus" unicode="&#xb1;" horiz-adv-x="1461" 
d="M1222 55h-986v255h986v-255zM882 645v-212h-303v212h-343v258h343v213h303v-213h343v-258h-343z" />
    <glyph glyph-name="two.sups" unicode="&#xb2;" horiz-adv-x="960" 
d="M72 1526q0 152 109.5 242.5t294.5 90.5q178 0 281.5 -78.5t103.5 -213.5q0 -96 -61 -178.5t-197 -169.5l-78 -63v-19h352v-243h-780v219l264 212q114 88 151 129.5t37 81.5q0 37 -24.5 60t-64.5 23q-43 0 -69 -25.5t-26 -66.5v-7h-293v6z" />
    <glyph glyph-name="three.sups" unicode="&#xb3;" horiz-adv-x="1001" 
d="M377 1270v198h115q45 0 69.5 20t24.5 56q0 33 -27.5 54t-70.5 21q-49 0 -78.5 -24.5t-31.5 -66.5h-291q-2 149 108.5 238.5t297.5 89.5q178 0 284 -72t106 -191q0 -80 -50 -136.5t-132 -68.5v-19q99 -10 157 -67.5t58 -146.5q0 -130 -116 -209t-307 -79
q-190 0 -301.5 91.5t-109.5 245.5h293q2 -42 33 -67.5t82 -25.5q48 0 77.5 22.5t29.5 59.5t-27 57t-77 20h-116z" />
    <glyph glyph-name="acute" unicode="&#xb4;" horiz-adv-x="1101" 
d="M246 1288l245 359h356l-292 -359h-309z" />
    <glyph glyph-name="paragraph" unicode="&#xb6;" horiz-adv-x="1717" 
d="M1036 -273h-333v665h-20q-156 0 -283 70t-197.5 189.5t-70.5 263.5q0 150 68.5 270t195 189t288.5 69h352v-1716zM1216 -273v1716h332v-1716h-332z" />
    <glyph glyph-name="periodcentered" unicode="&#xb7;" horiz-adv-x="772" 
d="M386 538q-95 0 -149.5 52.5t-54.5 140.5t54.5 141t149.5 53t149.5 -53t54.5 -141t-54.5 -140.5t-149.5 -52.5z" />
    <glyph glyph-name="cedilla" unicode="&#xb8;" horiz-adv-x="1101" 
d="M410 -240v127l51 121h196l-46 -110q91 -7 138.5 -53.5t47.5 -128.5q0 -101 -72.5 -155.5t-206.5 -54.5q-90 0 -148 17v145q35 -14 113 -14q108 0 108 53q0 28 -28.5 40.5t-91.5 12.5h-61z" />
    <glyph glyph-name="one.sups" unicode="&#xb9;" horiz-adv-x="812" 
d="M647 894h-325v655h-19l-110 -68.5t-106 -66.5v268q103 72 230 149h330v-937z" />
    <glyph glyph-name="ordmasculine" unicode="&#xba;" horiz-adv-x="1151" 
d="M574 730q73 0 112.5 64t39.5 182q0 116 -40 181t-112 65q-71 0 -111.5 -65.5t-40.5 -180.5q0 -118 39.5 -182t112.5 -64zM574 490q-225 0 -350.5 128t-125.5 358q0 225 127.5 355t348.5 130q223 0 350 -129.5t127 -355.5q0 -231 -125.5 -358.5t-351.5 -127.5z" />
    <glyph glyph-name="guillemotright" unicode="&#xbb;" horiz-adv-x="1476" 
d="M491 571l-345 408h307l348 -409v-8l-341 -409h-314l345 410v8zM1020 571l-345 408h306l349 -409v-8l-342 -409h-313l345 410v8z" />
    <glyph glyph-name="onequarter" unicode="&#xbc;" horiz-adv-x="2399" 
d="M1763 937h440v-582h104v-222h-118v-133h-279v120h-496v242q48 105 123 229t226 346zM1683 349v-2h227v361h-18q-168 -268 -209 -359zM647 506h-325v655h-19l-110 -68.5t-106 -66.5v268q103 72 230 149h330v-937zM603 0l424 746l308 697h329l-441 -750l-290 -693h-330z
" />
    <glyph glyph-name="onehalf" unicode="&#xbd;" horiz-adv-x="2398" 
d="M1510 632q0 152 109.5 242.5t294.5 90.5q178 0 281.5 -78.5t103.5 -213.5q0 -96 -61 -178.5t-197 -169.5l-78 -63v-19h352v-243h-780v219l264 212q114 88 151 129.5t37 81.5q0 37 -24.5 60t-64.5 23q-43 0 -69 -25.5t-26 -66.5v-7h-293v6zM647 506h-325v655h-19
l-110 -68.5t-106 -66.5v268q103 72 230 149h330v-937zM603 0l424 746l308 697h329l-441 -750l-290 -693h-330z" />
    <glyph glyph-name="threequarters" unicode="&#xbe;" horiz-adv-x="2543" 
d="M377 882v198h115q45 0 69.5 20t24.5 56q0 33 -27.5 54t-70.5 21q-49 0 -78.5 -24.5t-31.5 -66.5h-291q-2 149 108.5 238.5t297.5 89.5q178 0 284 -72t106 -191q0 -80 -50 -136.5t-132 -68.5v-19q99 -10 157 -67.5t58 -146.5q0 -130 -116 -209t-307 -79
q-190 0 -301.5 91.5t-109.5 245.5h293q2 -42 33 -67.5t82 -25.5q48 0 77.5 22.5t29.5 59.5t-27 57t-77 20h-116zM1907 937h440v-582h104v-222h-118v-133h-279v120h-496v242q48 105 123 229t226 346zM1827 349v-2h227v361h-18q-168 -268 -209 -359zM748 0l424 746l308 697
h329l-441 -750l-290 -693h-330z" />
    <glyph glyph-name="questiondown" unicode="&#xbf;" horiz-adv-x="1189" 
d="M1114 107q-2 -199 -139 -316.5t-374 -117.5q-228 0 -365 110t-137 290q0 110 52.5 190.5t163.5 144.5q103 60 138.5 104t35.5 114v47h312l2 -39q15 -127 -24 -204t-145 -138q-102 -60 -136.5 -102t-34.5 -108q0 -61 45 -98.5t117 -37.5q71 0 116 44t47 117h326zM636 800
q-96 0 -150 48t-54 134t54 134t150 48q97 0 151 -48t54 -134t-54 -134t-151 -48z" />
    <glyph glyph-name="Agrave" unicode="&#xc0;" horiz-adv-x="1563" 
d="M1091 0l-90 317h-471l-93 -317h-364l484 1443h449l485 -1443h-400zM758 1118l-158 -537h332l-155 537h-19zM701 1922l258 -326h-314l-306 326h362z" />
    <glyph glyph-name="Aacute" unicode="&#xc1;" horiz-adv-x="1563" 
d="M1091 0l-90 317h-471l-93 -317h-364l484 1443h449l485 -1443h-400zM758 1118l-158 -537h332l-155 537h-19zM623 1596l258 326h362l-304 -326h-316z" />
    <glyph glyph-name="Acircumflex" unicode="&#xc2;" horiz-adv-x="1563" 
d="M1091 0l-90 317h-471l-93 -317h-364l484 1443h449l485 -1443h-400zM758 1118l-158 -537h332l-155 537h-19zM947 1946l275 -350h-298l-132 190h-20l-132 -190h-298l275 350h330z" />
    <glyph glyph-name="Atilde" unicode="&#xc3;" horiz-adv-x="1563" 
d="M1091 0l-90 317h-471l-93 -317h-364l484 1443h449l485 -1443h-400zM758 1118l-158 -537h332l-155 537h-19zM946 1577q-55 0 -101.5 20t-72.5 43.5t-58.5 43.5t-61.5 20q-78 0 -82 -119h-209q0 150 72 235t185 85q56 0 103.5 -20t74 -43.5t57.5 -43.5t59 -20q78 0 83 115
h208q0 -147 -72 -231.5t-185 -84.5z" />
    <glyph glyph-name="Adieresis" unicode="&#xc4;" horiz-adv-x="1563" 
d="M1091 0l-90 317h-471l-93 -317h-364l484 1443h449l485 -1443h-400zM758 1118l-158 -537h332l-155 537h-19zM531 1581q-76 0 -124.5 46t-48.5 118t48.5 118t124.5 46t124.5 -46t48.5 -118t-48.5 -118t-124.5 -46zM1033 1581q-76 0 -124.5 46t-48.5 118t48.5 118t124.5 46
t125 -46t49 -118t-49 -118t-125 -46z" />
    <glyph glyph-name="Aring" unicode="&#xc5;" horiz-adv-x="1563" 
d="M1091 0l-90 317h-471l-93 -317h-364l484 1443h449l485 -1443h-400zM758 1118l-158 -537h332l-155 537h-19zM783 1580q-110 0 -182 69t-72 176q0 106 71.5 174t182.5 68q110 0 180.5 -68t70.5 -174q0 -107 -71 -176t-180 -69zM782 1727q43 0 70 27.5t27 69.5
q0 41 -28 68.5t-69 27.5q-42 -1 -69.5 -28t-27.5 -68q0 -43 27.5 -70t69.5 -27z" />
    <glyph glyph-name="AE" unicode="&#xc6;" horiz-adv-x="2108" 
d="M992 1167h-120l-217 -575h337v575zM992 0v327h-432l-125 -327h-362l566 1443h1326v-295h-646v-290h609v-270h-609v-293h646v-295h-973z" />
    <glyph glyph-name="Ccedilla" unicode="&#xc7;" horiz-adv-x="1545" 
d="M1098 524h352q-8 -226 -161.5 -378.5t-395.5 -179.5l-28 -67q91 -7 138.5 -53.5t47.5 -128.5q0 -101 -72.5 -155.5t-206.5 -54.5q-90 0 -148 17v145q35 -14 113 -14q108 0 108 53q0 28 -28.5 40.5t-91.5 12.5h-61v127l33 79q-279 32 -437 232t-158 523q0 353 186.5 556.5
t511.5 203.5q179 0 325.5 -73.5t232.5 -204t91 -291.5h-353q-14 118 -96 190.5t-200 72.5q-151 0 -237.5 -121t-86.5 -332q0 -212 87 -334t238 -122q119 0 200 70.5t97 186.5z" />
    <glyph glyph-name="Egrave" unicode="&#xc8;" horiz-adv-x="1302" 
d="M584 1922l258 -326h-314l-306 326h362zM1159 295v-295h-989v1443h989v-295h-622v-288h585v-270h-585v-295h622z" />
    <glyph glyph-name="Eacute" unicode="&#xc9;" horiz-adv-x="1302" 
d="M506 1596l258 326h362l-304 -326h-316zM1159 295v-295h-989v1443h989v-295h-622v-288h585v-270h-585v-295h622z" />
    <glyph glyph-name="Ecircumflex" unicode="&#xca;" horiz-adv-x="1302" 
d="M830 1946l275 -350h-298l-132 190h-20l-132 -190h-298l275 350h330zM1159 295v-295h-989v1443h989v-295h-622v-288h585v-270h-585v-295h622z" />
    <glyph glyph-name="Edieresis" unicode="&#xcb;" horiz-adv-x="1302" 
d="M414 1581q-76 0 -124.5 46t-48.5 118t48.5 118t124.5 46t124.5 -46t48.5 -118t-48.5 -118t-124.5 -46zM916 1581q-76 0 -124.5 46t-48.5 118t48.5 118t124.5 46t125 -46t49 -118t-49 -118t-125 -46zM1159 295v-295h-989v1443h989v-295h-622v-288h585v-270h-585v-295h622z
" />
    <glyph glyph-name="Igrave" unicode="&#xcc;" horiz-adv-x="707" 
d="M537 0h-367v1443h367v-1443zM272 1922l258 -326h-314l-306 326h362z" />
    <glyph glyph-name="Iacute" unicode="&#xcd;" horiz-adv-x="707" 
d="M537 0h-367v1443h367v-1443zM194 1596l258 326h362l-304 -326h-316z" />
    <glyph glyph-name="Icircumflex" unicode="&#xce;" horiz-adv-x="707" 
d="M537 0h-367v1443h367v-1443zM518 1946l275 -350h-298l-132 190h-20l-132 -190h-298l275 350h330z" />
    <glyph glyph-name="Idieresis" unicode="&#xcf;" horiz-adv-x="707" 
d="M537 0h-367v1443h367v-1443zM102 1581q-76 0 -124.5 46t-48.5 118t48.5 118t124.5 46t124.5 -46t48.5 -118t-48.5 -118t-124.5 -46zM604 1581q-76 0 -124.5 46t-48.5 118t48.5 118t124.5 46t125 -46t49 -118t-49 -118t-125 -46z" />
    <glyph glyph-name="Eth" unicode="&#xd0;" horiz-adv-x="1524" 
d="M537 295h173q179 0 273 110t94 324q0 201 -96.5 310.5t-270.5 109.5h-173v-297h198v-252h-198v-305zM170 1444h606q322 0 498.5 -185t176.5 -523q0 -355 -174.5 -545.5t-500.5 -190.5h-606v600h-126v252h126v592z" />
    <glyph glyph-name="Ntilde" unicode="&#xd1;" horiz-adv-x="1601" 
d="M958 1577q-55 0 -101.5 20t-72.5 43.5t-58.5 43.5t-61.5 20q-78 0 -82 -119h-209q0 150 72 235t185 85q56 0 103.5 -20t74 -43.5t57.5 -43.5t59 -20q78 0 83 115h208q0 -147 -72 -231.5t-185 -84.5zM518 0h-348v1443h293l601 -812h19v812h348v-1443h-291l-603 820h-19
v-820z" />
    <glyph glyph-name="Ograve" unicode="&#xd2;" horiz-adv-x="1626" 
d="M733 1922l258 -326h-314l-306 326h362zM814 1482q326 0 518 -204.5t192 -555.5q0 -352 -192 -556.5t-518 -204.5q-328 0 -520 204.5t-192 556.5q0 351 193 555.5t519 204.5zM814 1178q-153 0 -245.5 -124t-92.5 -332q0 -209 92 -333t246 -124q153 0 245 124t92 333
q0 208 -92.5 332t-244.5 124z" />
    <glyph glyph-name="Oacute" unicode="&#xd3;" horiz-adv-x="1626" 
d="M655 1596l258 326h362l-304 -326h-316zM814 1482q326 0 518 -204.5t192 -555.5q0 -352 -192 -556.5t-518 -204.5q-328 0 -520 204.5t-192 556.5q0 351 193 555.5t519 204.5zM814 1178q-153 0 -245.5 -124t-92.5 -332q0 -209 92 -333t246 -124q153 0 245 124t92 333
q0 208 -92.5 332t-244.5 124z" />
    <glyph glyph-name="Ocircumflex" unicode="&#xd4;" horiz-adv-x="1626" 
d="M979 1946l275 -350h-298l-132 190h-20l-132 -190h-298l275 350h330zM814 1482q326 0 518 -204.5t192 -555.5q0 -352 -192 -556.5t-518 -204.5q-328 0 -520 204.5t-192 556.5q0 351 193 555.5t519 204.5zM814 1178q-153 0 -245.5 -124t-92.5 -332q0 -209 92 -333t246 -124
q153 0 245 124t92 333q0 208 -92.5 332t-244.5 124z" />
    <glyph glyph-name="Otilde" unicode="&#xd5;" horiz-adv-x="1626" 
d="M814 1482q326 0 518 -204.5t192 -555.5q0 -352 -192 -556.5t-518 -204.5q-328 0 -520 204.5t-192 556.5q0 351 193 555.5t519 204.5zM814 1178q-153 0 -245.5 -124t-92.5 -332q0 -209 92 -333t246 -124q153 0 245 124t92 333q0 208 -92.5 332t-244.5 124zM978 1577
q-55 0 -101.5 20t-72.5 43.5t-58.5 43.5t-61.5 20q-78 0 -82 -119h-209q0 150 72 235t185 85q56 0 103.5 -20t74 -43.5t57.5 -43.5t59 -20q78 0 83 115h208q0 -147 -72 -231.5t-185 -84.5z" />
    <glyph glyph-name="Odieresis" unicode="&#xd6;" horiz-adv-x="1626" 
d="M563 1581q-76 0 -124.5 46t-48.5 118t48.5 118t124.5 46t124.5 -46t48.5 -118t-48.5 -118t-124.5 -46zM1065 1581q-76 0 -124.5 46t-48.5 118t48.5 118t124.5 46t125 -46t49 -118t-49 -118t-125 -46zM814 1482q326 0 518 -204.5t192 -555.5q0 -352 -192 -556.5
t-518 -204.5q-328 0 -520 204.5t-192 556.5q0 351 193 555.5t519 204.5zM814 1178q-153 0 -245.5 -124t-92.5 -332q0 -209 92 -333t246 -124q153 0 245 124t92 333q0 208 -92.5 332t-244.5 124z" />
    <glyph glyph-name="multiply" unicode="&#xd7;" horiz-adv-x="1461" 
d="M730 373l-302 -302l-213 212l303 303l-303 303l213 212l302 -302l303 302l213 -212l-303 -303l303 -303l-213 -212z" />
    <glyph glyph-name="Oslash" unicode="&#xd8;" horiz-adv-x="1614" 
d="M1072 1035l-438 -713q77 -57 180 -57q153 0 245 124t92 333q0 190 -79 313zM549 417l434 711q-75 50 -169 50q-153 0 -245.5 -124t-92.5 -332q0 -185 73 -305zM1332 1459l-71 -116q127 -99 195 -257.5t68 -363.5q0 -352 -192 -556.5t-518 -204.5q-201 0 -353 79l-72 -117
l-103 62l73 120q-124 99 -190.5 256.5t-66.5 360.5q0 351 193 555.5t519 204.5q192 0 340 -73l65 106z" />
    <glyph glyph-name="Ugrave" unicode="&#xd9;" horiz-adv-x="1586" 
d="M712 1922l258 -326h-314l-306 326h362zM538 1443v-906q0 -126 66.5 -196.5t188.5 -70.5t188 70t66 197v906h367v-945q0 -243 -170 -390t-451 -147t-451.5 147t-170.5 390v945h367z" />
    <glyph glyph-name="Uacute" unicode="&#xda;" horiz-adv-x="1586" 
d="M634 1596l258 326h362l-304 -326h-316zM538 1443v-906q0 -126 66.5 -196.5t188.5 -70.5t188 70t66 197v906h367v-945q0 -243 -170 -390t-451 -147t-451.5 147t-170.5 390v945h367z" />
    <glyph glyph-name="Ucircumflex" unicode="&#xdb;" horiz-adv-x="1586" 
d="M958 1946l275 -350h-298l-132 190h-20l-132 -190h-298l275 350h330zM538 1443v-906q0 -126 66.5 -196.5t188.5 -70.5t188 70t66 197v906h367v-945q0 -243 -170 -390t-451 -147t-451.5 147t-170.5 390v945h367z" />
    <glyph glyph-name="Udieresis" unicode="&#xdc;" horiz-adv-x="1586" 
d="M542 1581q-76 0 -124.5 46t-48.5 118t48.5 118t124.5 46t124.5 -46t48.5 -118t-48.5 -118t-124.5 -46zM1044 1581q-76 0 -124.5 46t-48.5 118t48.5 118t124.5 46t125 -46t49 -118t-49 -118t-125 -46zM538 1443v-906q0 -126 66.5 -196.5t188.5 -70.5t188 70t66 197v906
h367v-945q0 -243 -170 -390t-451 -147t-451.5 147t-170.5 390v945h367z" />
    <glyph glyph-name="Yacute" unicode="&#xdd;" horiz-adv-x="1508" 
d="M937 0h-366v496l-498 947h391l281 -589h19l279 589h391l-497 -947v-496zM596 1596l258 326h362l-304 -326h-316z" />
    <glyph glyph-name="Thorn" unicode="&#xde;" horiz-adv-x="1430" 
d="M170 1443h369v-219h273q227 0 364.5 -129.5t137.5 -350.5q0 -219 -144 -348.5t-381 -129.5h-252v-266h-367v1443zM537 942v-398h174q111 0 171.5 51t60.5 149q0 96 -60 147t-169 51h-177z" />
    <glyph glyph-name="germandbls" unicode="&#xdf;" horiz-adv-x="1469" 
d="M527 0h-353v1070q0 188 146 296.5t397 108.5q238 0 386.5 -105t148.5 -273q0 -118 -58.5 -204.5t-153.5 -112.5v-19q149 -8 242 -107t93 -255q0 -190 -134.5 -302.5t-366.5 -112.5q-123 0 -200 17v276q53 -19 127 -19q102 0 157 44t55 122t-64 122.5t-176 44.5h-77v274
h48q75 0 120.5 44.5t45.5 119.5q0 76 -50.5 121.5t-136.5 45.5q-96 0 -146 -52t-50 -153v-991z" />
    <glyph glyph-name="agrave" unicode="&#xe0;" horiz-adv-x="1248" 
d="M570 230q84 0 141.5 49t57.5 121v73l-187 -12q-78 -6 -119 -36t-41 -80q0 -53 40.5 -84t107.5 -31zM441 -17q-161 0 -260.5 92.5t-99.5 244.5t114.5 238.5t330.5 99.5l243 14v87q0 57 -40.5 88.5t-113.5 31.5q-141 0 -176 -90h-318q12 162 150 256t364 94q230 0 356 -100
t126 -280v-759h-344v138h-19q-37 -71 -122 -113t-191 -42zM814 1288h-309l-292 359h356z" />
    <glyph glyph-name="aacute" unicode="&#xe1;" horiz-adv-x="1248" 
d="M570 230q84 0 141.5 49t57.5 121v73l-187 -12q-78 -6 -119 -36t-41 -80q0 -53 40.5 -84t107.5 -31zM441 -17q-161 0 -260.5 92.5t-99.5 244.5t114.5 238.5t330.5 99.5l243 14v87q0 57 -40.5 88.5t-113.5 31.5q-141 0 -176 -90h-318q12 162 150 256t364 94q230 0 356 -100
t126 -280v-759h-344v138h-19q-37 -71 -122 -113t-191 -42zM460 1288l245 359h356l-292 -359h-309z" />
    <glyph glyph-name="acircumflex" unicode="&#xe2;" horiz-adv-x="1248" 
d="M570 230q84 0 141.5 49t57.5 121v73l-187 -12q-78 -6 -119 -36t-41 -80q0 -53 40.5 -84t107.5 -31zM441 -17q-161 0 -260.5 92.5t-99.5 244.5t114.5 238.5t330.5 99.5l243 14v87q0 57 -40.5 88.5t-113.5 31.5q-141 0 -176 -90h-318q12 162 150 256t364 94q230 0 356 -100
t126 -280v-759h-344v138h-19q-37 -71 -122 -113t-191 -42zM805 1619l271 -359h-297l-134 202h-19l-133 -202h-297l271 359h338z" />
    <glyph glyph-name="atilde" unicode="&#xe3;" horiz-adv-x="1248" 
d="M570 230q84 0 141.5 49t57.5 121v73l-187 -12q-78 -6 -119 -36t-41 -80q0 -53 40.5 -84t107.5 -31zM441 -17q-161 0 -260.5 92.5t-99.5 244.5t114.5 238.5t330.5 99.5l243 14v87q0 57 -40.5 88.5t-113.5 31.5q-141 0 -176 -90h-318q12 162 150 256t364 94q230 0 356 -100
t126 -280v-759h-344v138h-19q-37 -71 -122 -113t-191 -42zM515 1400q-38 0 -60 -36t-24 -100h-210q0 149 76.5 241t200.5 92q40 0 76.5 -14.5t61.5 -34.5t47.5 -40.5t45 -35t43.5 -14.5q38 0 60 34t23 97h210q0 -147 -76 -238t-200 -91q-49 0 -93.5 22t-70 48t-55.5 48
t-55 22z" />
    <glyph glyph-name="adieresis" unicode="&#xe4;" horiz-adv-x="1248" 
d="M570 230q84 0 141.5 49t57.5 121v73l-187 -12q-78 -6 -119 -36t-41 -80q0 -53 40.5 -84t107.5 -31zM441 -17q-161 0 -260.5 92.5t-99.5 244.5t114.5 238.5t330.5 99.5l243 14v87q0 57 -40.5 88.5t-113.5 31.5q-141 0 -176 -90h-318q12 162 150 256t364 94q230 0 356 -100
t126 -280v-759h-344v138h-19q-37 -71 -122 -113t-191 -42zM385 1260q-76 0 -124.5 46t-48.5 118t48.5 118t124.5 46t124.5 -46t48.5 -118t-48.5 -118t-124.5 -46zM887 1260q-76 0 -124.5 46t-48.5 118t48.5 118t124.5 46t125 -46t49 -118t-49 -118t-125 -46z" />
    <glyph glyph-name="aring" unicode="&#xe5;" horiz-adv-x="1248" 
d="M570 230q84 0 141.5 49t57.5 121v73l-187 -12q-78 -6 -119 -36t-41 -80q0 -53 40.5 -84t107.5 -31zM441 -17q-161 0 -260.5 92.5t-99.5 244.5t114.5 238.5t330.5 99.5l243 14v87q0 57 -40.5 88.5t-113.5 31.5q-141 0 -176 -90h-318q12 162 150 256t364 94q230 0 356 -100
t126 -280v-759h-344v138h-19q-37 -71 -122 -113t-191 -42zM637 1260q-110 0 -182 69t-72 176q0 106 71.5 174t182.5 68q110 0 180.5 -68t70.5 -174q0 -107 -71 -176t-180 -69zM636 1407q43 0 70 27.5t27 69.5q0 41 -28 68.5t-69 27.5q-42 -1 -69.5 -28t-27.5 -68
q0 -43 27.5 -70t69.5 -27z" />
    <glyph glyph-name="ae" unicode="&#xe6;" horiz-adv-x="1918" 
d="M1330 -26q-131 0 -235 49t-160 136h-19q-68 -86 -173.5 -135.5t-232.5 -49.5q-196 0 -312.5 96.5t-116.5 249.5q0 152 114.5 238.5t330.5 99.5l243 14v87q0 57 -40.5 88.5t-113.5 31.5q-141 0 -176 -90h-318q11 153 141.5 251.5t325.5 98.5q249 0 362 -148h19
q63 69 154.5 108.5t200.5 39.5q235 0 373 -151t138 -406v-104h-735v-29q2 -101 63 -162t160 -61q134 0 185 102h320q-29 -161 -164.5 -257.5t-333.5 -96.5zM1302 888q-87 0 -143 -57.5t-59 -150.5h395q-5 94 -58 151t-135 57zM573 225q82 0 139 52t57 125v71l-187 -12
q-78 -6 -119 -36.5t-41 -82.5q0 -54 41 -85.5t110 -31.5z" />
    <glyph glyph-name="ccedilla" unicode="&#xe7;" horiz-adv-x="1233" 
d="M1158 701h-325q-11 79 -59 122.5t-128 43.5q-208 0 -208 -309q0 -312 208 -312q163 0 187 158h325q-14 -177 -122 -288t-291 -136l-34 -81q91 -7 138.5 -53.5t47.5 -128.5q0 -101 -72.5 -155.5t-206.5 -54.5q-90 0 -148 17v145q35 -14 113 -14q108 0 108 53
q0 28 -28.5 40.5t-91.5 12.5h-61v127l38 91q-228 26 -346.5 173t-118.5 406q0 284 144 432.5t419 148.5q228 0 361.5 -116t150.5 -322z" />
    <glyph glyph-name="egrave" unicode="&#xe8;" horiz-adv-x="1262" 
d="M815 1288h-309l-292 359h356zM639 888q-87 0 -143 -56.5t-63 -150.5h404q-4 97 -56.5 152t-141.5 55zM850 328h323q-29 -163 -172 -258.5t-359 -95.5q-266 0 -412.5 150.5t-146.5 424.5q0 275 147.5 432.5t406.5 157.5q257 0 400 -148.5t143 -414.5v-98h-749v-18
q2 -109 61 -172t160 -63q77 0 128.5 27t69.5 76z" />
    <glyph glyph-name="eacute" unicode="&#xe9;" horiz-adv-x="1262" 
d="M461 1288l245 359h356l-292 -359h-309zM639 888q-87 0 -143 -56.5t-63 -150.5h404q-4 97 -56.5 152t-141.5 55zM850 328h323q-29 -163 -172 -258.5t-359 -95.5q-266 0 -412.5 150.5t-146.5 424.5q0 275 147.5 432.5t406.5 157.5q257 0 400 -148.5t143 -414.5v-98h-749
v-18q2 -109 61 -172t160 -63q77 0 128.5 27t69.5 76z" />
    <glyph glyph-name="ecircumflex" unicode="&#xea;" horiz-adv-x="1262" 
d="M806 1619l271 -359h-297l-134 202h-19l-133 -202h-297l271 359h338zM639 888q-87 0 -143 -56.5t-63 -150.5h404q-4 97 -56.5 152t-141.5 55zM850 328h323q-29 -163 -172 -258.5t-359 -95.5q-266 0 -412.5 150.5t-146.5 424.5q0 275 147.5 432.5t406.5 157.5
q257 0 400 -148.5t143 -414.5v-98h-749v-18q2 -109 61 -172t160 -63q77 0 128.5 27t69.5 76z" />
    <glyph glyph-name="edieresis" unicode="&#xeb;" horiz-adv-x="1262" 
d="M639 888q-87 0 -143 -56.5t-63 -150.5h404q-4 97 -56.5 152t-141.5 55zM850 328h323q-29 -163 -172 -258.5t-359 -95.5q-266 0 -412.5 150.5t-146.5 424.5q0 275 147.5 432.5t406.5 157.5q257 0 400 -148.5t143 -414.5v-98h-749v-18q2 -109 61 -172t160 -63
q77 0 128.5 27t69.5 76zM386 1260q-76 0 -124.5 46t-48.5 118t48.5 118t124.5 46t124.5 -46t48.5 -118t-48.5 -118t-124.5 -46zM888 1260q-76 0 -124.5 46t-48.5 118t48.5 118t124.5 46t125 -46t49 -118t-49 -118t-125 -46z" />
    <glyph glyph-name="igrave" unicode="&#xec;" horiz-adv-x="634" 
d="M495 1288h-309l-292 359h356zM140 0v1113h354v-1113h-354z" />
    <glyph glyph-name="iacute" unicode="&#xed;" horiz-adv-x="634" 
d="M141 1288l245 359h356l-292 -359h-309zM140 0v1113h354v-1113h-354z" />
    <glyph glyph-name="icircumflex" unicode="&#xee;" horiz-adv-x="634" 
d="M486 1619l271 -359h-297l-134 202h-19l-133 -202h-297l271 359h338zM140 0v1113h354v-1113h-354z" />
    <glyph glyph-name="idieresis" unicode="&#xef;" horiz-adv-x="634" 
d="M140 0v1113h354v-1113h-354zM66 1260q-76 0 -124.5 46t-48.5 118t48.5 118t124.5 46t124.5 -46t48.5 -118t-48.5 -118t-124.5 -46zM568 1260q-76 0 -124.5 46t-48.5 118t48.5 118t124.5 46t125 -46t49 -118t-49 -118t-125 -46z" />
    <glyph glyph-name="eth" unicode="&#xf0;" horiz-adv-x="1323" 
d="M658 -17q-255 0 -411.5 154.5t-156.5 405.5q0 225 128.5 367t333.5 142q83 0 152.5 -29t111.5 -80h18q-19 57 -64 126.5t-102 127.5l-287 -97l-67 155l227 76q-86 69 -264 181h446q52 -37 105 -84l273 92l69 -155l-203 -68q267 -294 267 -680q0 -286 -158 -460t-418 -174
zM667 819q-98 0 -156 -75t-58 -204t57.5 -204t156.5 -75q100 0 158 74.5t58 204.5q0 128 -58 203.5t-158 75.5z" />
    <glyph glyph-name="ntilde" unicode="&#xf1;" horiz-adv-x="1359" 
d="M567 1400q-38 0 -60 -36t-24 -100h-210q0 149 76.5 241t200.5 92q40 0 76.5 -14.5t61.5 -34.5t47.5 -40.5t45 -35t43.5 -14.5q38 0 60 34t23 97h210q0 -147 -76 -238t-200 -91q-49 0 -93.5 22t-70 48t-55.5 48t-55 22zM138 0v1113h344v-181h19q37 95 129.5 151t212.5 56
q186 0 287.5 -110t101.5 -310v-719h-354v640q0 101 -48.5 155.5t-138.5 54.5q-89 0 -144.5 -59t-55.5 -155v-636h-353z" />
    <glyph glyph-name="ograve" unicode="&#xf2;" horiz-adv-x="1300" 
d="M828 1288h-309l-292 359h356zM650 244q97 0 150.5 82t53.5 231q0 146 -54 229t-150 83t-150 -83t-54 -229q0 -149 53.5 -231t150.5 -82zM650 -26q-267 0 -417 154t-150 429q0 270 152 426t415 156q264 0 415.5 -155.5t151.5 -426.5q0 -275 -149.5 -429t-417.5 -154z" />
    <glyph glyph-name="oacute" unicode="&#xf3;" horiz-adv-x="1300" 
d="M474 1288l245 359h356l-292 -359h-309zM650 244q97 0 150.5 82t53.5 231q0 146 -54 229t-150 83t-150 -83t-54 -229q0 -149 53.5 -231t150.5 -82zM650 -26q-267 0 -417 154t-150 429q0 270 152 426t415 156q264 0 415.5 -155.5t151.5 -426.5q0 -275 -149.5 -429
t-417.5 -154z" />
    <glyph glyph-name="ocircumflex" unicode="&#xf4;" horiz-adv-x="1300" 
d="M819 1619l271 -359h-297l-134 202h-19l-133 -202h-297l271 359h338zM650 244q97 0 150.5 82t53.5 231q0 146 -54 229t-150 83t-150 -83t-54 -229q0 -149 53.5 -231t150.5 -82zM650 -26q-267 0 -417 154t-150 429q0 270 152 426t415 156q264 0 415.5 -155.5t151.5 -426.5
q0 -275 -149.5 -429t-417.5 -154z" />
    <glyph glyph-name="otilde" unicode="&#xf5;" horiz-adv-x="1300" 
d="M529 1400q-38 0 -60 -36t-24 -100h-210q0 149 76.5 241t200.5 92q40 0 76.5 -14.5t61.5 -34.5t47.5 -40.5t45 -35t43.5 -14.5q38 0 60 34t23 97h210q0 -147 -76 -238t-200 -91q-49 0 -93.5 22t-70 48t-55.5 48t-55 22zM650 244q97 0 150.5 82t53.5 231q0 146 -54 229
t-150 83t-150 -83t-54 -229q0 -149 53.5 -231t150.5 -82zM650 -26q-267 0 -417 154t-150 429q0 270 152 426t415 156q264 0 415.5 -155.5t151.5 -426.5q0 -275 -149.5 -429t-417.5 -154z" />
    <glyph glyph-name="odieresis" unicode="&#xf6;" horiz-adv-x="1300" 
d="M399 1260q-76 0 -124.5 46t-48.5 118t48.5 118t124.5 46t124.5 -46t48.5 -118t-48.5 -118t-124.5 -46zM901 1260q-76 0 -124.5 46t-48.5 118t48.5 118t124.5 46t125 -46t49 -118t-49 -118t-125 -46zM650 244q97 0 150.5 82t53.5 231q0 146 -54 229t-150 83t-150 -83
t-54 -229q0 -149 53.5 -231t150.5 -82zM650 -26q-267 0 -417 154t-150 429q0 270 152 426t415 156q264 0 415.5 -155.5t151.5 -426.5q0 -275 -149.5 -429t-417.5 -154z" />
    <glyph glyph-name="divide" unicode="&#xf7;" horiz-adv-x="1461" 
d="M1287 459h-1113v255h1113v-255zM731 816q-85 0 -137.5 48.5t-52.5 127.5t52 127.5t138 48.5q85 0 137 -48.5t52 -127.5t-52 -127.5t-137 -48.5zM731 4q-85 0 -137.5 48.5t-52.5 127.5t52 127.5t138 48.5q85 0 137 -48.5t52 -127.5t-52 -127.5t-137 -48.5z" />
    <glyph glyph-name="oslash" unicode="&#xf8;" horiz-adv-x="1300" 
d="M833 713l-270 -448q37 -21 87 -21q97 0 150.5 82t53.5 231q0 90 -21 156zM480 361l282 469q-48 39 -112 39q-96 0 -150 -83t-54 -229q0 -117 34 -196zM1089 1137l-68 -113q196 -156 196 -467q0 -275 -149.5 -429t-417.5 -154q-131 0 -239 40l-61 -101l-103 61l57 95
q-107 73 -164 197.5t-57 290.5q0 270 152 426t415 156q149 0 267 -52l64 107z" />
    <glyph glyph-name="ugrave" unicode="&#xf9;" horiz-adv-x="1369" 
d="M858 1288h-309l-292 359h356zM1230 1113v-1113h-345v180h-19q-38 -98 -125 -152t-206 -54q-184 0 -295.5 112t-111.5 307v720h353v-640q0 -101 52 -154.5t142 -53.5q89 0 145 57.5t56 154.5v636h354z" />
    <glyph glyph-name="uacute" unicode="&#xfa;" horiz-adv-x="1369" 
d="M504 1288l245 359h356l-292 -359h-309zM1230 1113v-1113h-345v180h-19q-38 -98 -125 -152t-206 -54q-184 0 -295.5 112t-111.5 307v720h353v-640q0 -101 52 -154.5t142 -53.5q89 0 145 57.5t56 154.5v636h354z" />
    <glyph glyph-name="ucircumflex" unicode="&#xfb;" horiz-adv-x="1369" 
d="M849 1619l271 -359h-297l-134 202h-19l-133 -202h-297l271 359h338zM1230 1113v-1113h-345v180h-19q-38 -98 -125 -152t-206 -54q-184 0 -295.5 112t-111.5 307v720h353v-640q0 -101 52 -154.5t142 -53.5q89 0 145 57.5t56 154.5v636h354z" />
    <glyph glyph-name="udieresis" unicode="&#xfc;" horiz-adv-x="1369" 
d="M1230 1113v-1113h-345v180h-19q-38 -98 -125 -152t-206 -54q-184 0 -295.5 112t-111.5 307v720h353v-640q0 -101 52 -154.5t142 -53.5q89 0 145 57.5t56 154.5v636h354zM429 1260q-76 0 -124.5 46t-48.5 118t48.5 118t124.5 46t124.5 -46t48.5 -118t-48.5 -118
t-124.5 -46zM931 1260q-76 0 -124.5 46t-48.5 118t48.5 118t124.5 46t125 -46t49 -118t-49 -118t-125 -46z" />
    <glyph glyph-name="yacute" unicode="&#xfd;" horiz-adv-x="1282" 
d="M298 -407q-124 0 -129 1v269q5 -1 62 -1q176 0 194 98l5 31l-380 1122h391l199 -816h19l199 816h374l-358 -1111q-71 -222 -203.5 -315.5t-372.5 -93.5zM474 1288l245 359h356l-292 -359h-309z" />
    <glyph glyph-name="thorn" unicode="&#xfe;" horiz-adv-x="1382" 
d="M839 1130q211 0 328 -150t117 -423q0 -272 -116 -423t-325 -151q-119 0 -205.5 49.5t-124.5 138.5h-19v-510h-354v1847h352v-576h19q41 94 127 146t201 52zM706 261q101 0 158 78.5t57 217.5q0 137 -57 216t-157 79t-157.5 -79t-58.5 -217q1 -139 58 -217t157 -78z" />
    <glyph glyph-name="ydieresis" unicode="&#xff;" horiz-adv-x="1282" 
d="M298 -407q-124 0 -129 1v269q5 -1 62 -1q176 0 194 98l5 31l-380 1122h391l199 -816h19l199 816h374l-358 -1111q-71 -222 -203.5 -315.5t-372.5 -93.5zM399 1260q-76 0 -124.5 46t-48.5 118t48.5 118t124.5 46t124.5 -46t48.5 -118t-48.5 -118t-124.5 -46zM901 1260
q-76 0 -124.5 46t-48.5 118t48.5 118t124.5 46t125 -46t49 -118t-49 -118t-125 -46z" />
    <glyph glyph-name="Amacron" unicode="&#x100;" horiz-adv-x="1563" 
d="M1091 0l-90 317h-471l-93 -317h-364l484 1443h449l485 -1443h-400zM758 1118l-158 -537h332l-155 537h-19zM1173 1637h-782v198h782v-198z" />
    <glyph glyph-name="amacron" unicode="&#x101;" horiz-adv-x="1248" 
d="M570 230q84 0 141.5 49t57.5 121v73l-187 -12q-78 -6 -119 -36t-41 -80q0 -53 40.5 -84t107.5 -31zM441 -17q-161 0 -260.5 92.5t-99.5 244.5t114.5 238.5t330.5 99.5l243 14v87q0 57 -40.5 88.5t-113.5 31.5q-141 0 -176 -90h-318q12 162 150 256t364 94q230 0 356 -100
t126 -280v-759h-344v138h-19q-37 -71 -122 -113t-191 -42zM1020 1327h-768v198h768v-198z" />
    <glyph glyph-name="Abreve" unicode="&#x102;" horiz-adv-x="1563" 
d="M1091 0l-90 317h-471l-93 -317h-364l484 1443h449l485 -1443h-400zM758 1118l-158 -537h332l-155 537h-19zM364 1932h236q2 -74 51 -117.5t131 -43.5t131 43.5t51 117.5h236q0 -157 -113.5 -254t-304.5 -97t-304.5 97t-113.5 254z" />
    <glyph glyph-name="abreve" unicode="&#x103;" horiz-adv-x="1248" 
d="M570 230q84 0 141.5 49t57.5 121v73l-187 -12q-78 -6 -119 -36t-41 -80q0 -53 40.5 -84t107.5 -31zM441 -17q-161 0 -260.5 92.5t-99.5 244.5t114.5 238.5t330.5 99.5l243 14v87q0 57 -40.5 88.5t-113.5 31.5q-141 0 -176 -90h-318q12 162 150 256t364 94q230 0 356 -100
t126 -280v-759h-344v138h-19q-37 -71 -122 -113t-191 -42zM218 1620h236q2 -78 51 -123.5t131 -45.5t131 45.5t51 123.5h236q0 -160 -113 -260t-305 -100t-305 100t-113 260z" />
    <glyph glyph-name="Aogonek" unicode="&#x104;" horiz-adv-x="1563" 
d="M758 1118l-158 -537h332l-155 537h-19zM1444 -456q-64 -27 -164 -27q-120 0 -192 60t-72 161q0 160 176 268h-103l-88 311h-471l-93 -317h-364l484 1443h449l483 -1440h-90q-151 -91 -151 -195q0 -44 33 -70.5t87 -26.5q38 0 76 9v-176z" />
    <glyph glyph-name="aogonek" unicode="&#x105;" horiz-adv-x="1248" 
d="M572 230q83 0 140 49t57 121v76l-186 -12q-77 -5 -119 -35.5t-42 -81.5q0 -53 40.5 -85t109.5 -32zM1102 -456q-67 -27 -164 -27q-119 0 -190.5 59.5t-71.5 159.5q0 163 178 269h-81v133h-19q-37 -71 -122 -113t-192 -42q-161 0 -260 93.5t-99 245.5t115 239t332 100
l241 14v84q0 57 -40.5 88.5t-113.5 31.5q-141 0 -176 -90h-318q12 162 150 256t364 94q230 0 356 -100t126 -280v-755h-62q-149 -93 -149 -193q0 -46 33 -73t87 -27q40 0 76 9v-176z" />
    <glyph glyph-name="Cacute" unicode="&#x106;" horiz-adv-x="1545" 
d="M641 1597l258 326h362l-304 -326h-316zM800 -39q-324 0 -511 204t-187 557t186.5 556.5t511.5 203.5q179 0 325.5 -73.5t232.5 -204t91 -291.5h-353q-14 118 -96 190.5t-200 72.5q-151 0 -237.5 -121t-86.5 -332q0 -212 87 -334t238 -122q119 0 200 70.5t97 186.5h352
q-9 -248 -191 -405.5t-459 -157.5z" />
    <glyph glyph-name="cacute" unicode="&#x107;" horiz-adv-x="1233" 
d="M1158 701h-325q-11 79 -59 122.5t-128 43.5q-208 0 -208 -309q0 -312 208 -312q163 0 187 158h325q-16 -201 -151.5 -315.5t-360.5 -114.5q-275 0 -419 149.5t-144 434.5q0 284 144 432.5t419 148.5q228 0 361.5 -116t150.5 -322zM469 1288l245 359h356l-292 -359h-309z
" />
    <glyph glyph-name="Ccircumflex" unicode="&#x108;" horiz-adv-x="1545" 
d="M800 -39q-324 0 -511 204t-187 557t186.5 556.5t511.5 203.5q179 0 325.5 -73.5t232.5 -204t91 -291.5h-353q-14 118 -96 190.5t-200 72.5q-151 0 -237.5 -121t-86.5 -332q0 -212 87 -334t238 -122q119 0 200 70.5t97 186.5h352q-9 -248 -191 -405.5t-459 -157.5z
M965 1947l275 -350h-298l-132 190h-20l-132 -190h-298l275 350h330z" />
    <glyph glyph-name="ccircumflex" unicode="&#x109;" horiz-adv-x="1233" 
d="M814 1619l271 -359h-297l-134 202h-19l-133 -202h-297l271 359h338zM1158 701h-325q-11 79 -59 122.5t-128 43.5q-208 0 -208 -309q0 -312 208 -312q163 0 187 158h325q-16 -201 -151.5 -315.5t-360.5 -114.5q-275 0 -419 149.5t-144 434.5q0 284 144 432.5t419 148.5
q228 0 361.5 -116t150.5 -322z" />
    <glyph glyph-name="Cdotaccent" unicode="&#x10a;" horiz-adv-x="1545" 
d="M800 1582q-79 0 -128 48.5t-49 123.5t49 123.5t128 48.5q78 0 127 -48.5t49 -123.5t-49 -123.5t-127 -48.5zM800 -39q-324 0 -511 204t-187 557t186.5 556.5t511.5 203.5q179 0 325.5 -73.5t232.5 -204t91 -291.5h-353q-14 118 -96 190.5t-200 72.5q-151 0 -237.5 -121
t-86.5 -332q0 -212 87 -334t238 -122q119 0 200 70.5t97 186.5h352q-9 -248 -191 -405.5t-459 -157.5z" />
    <glyph glyph-name="cdotaccent" unicode="&#x10b;" horiz-adv-x="1233" 
d="M1158 701h-325q-11 79 -59 122.5t-128 43.5q-208 0 -208 -309q0 -312 208 -312q163 0 187 158h325q-16 -201 -151.5 -315.5t-360.5 -114.5q-275 0 -419 149.5t-144 434.5q0 284 144 432.5t419 148.5q228 0 361.5 -116t150.5 -322zM645 1274q-79 0 -128.5 49t-49.5 124
q0 76 49.5 125t128.5 49t128.5 -49t49.5 -125q0 -75 -49.5 -124t-128.5 -49z" />
    <glyph glyph-name="Ccaron" unicode="&#x10c;" horiz-adv-x="1545" 
d="M800 -39q-324 0 -511 204t-187 557t186.5 556.5t511.5 203.5q179 0 325.5 -73.5t232.5 -204t91 -291.5h-353q-14 118 -96 190.5t-200 72.5q-151 0 -237.5 -121t-86.5 -332q0 -212 87 -334t238 -122q119 0 200 70.5t97 186.5h352q-9 -248 -191 -405.5t-459 -157.5z
M951 1597h-302l-271 326h280l131 -173h22l131 173h280z" />
    <glyph glyph-name="ccaron" unicode="&#x10d;" horiz-adv-x="1233" 
d="M814 1260h-338l-271 359h297l133 -202h19l134 202h297zM1158 701h-325q-11 79 -59 122.5t-128 43.5q-208 0 -208 -309q0 -312 208 -312q163 0 187 158h325q-16 -201 -151.5 -315.5t-360.5 -114.5q-275 0 -419 149.5t-144 434.5q0 284 144 432.5t419 148.5
q228 0 361.5 -116t150.5 -322z" />
    <glyph glyph-name="Dcaron" unicode="&#x10e;" horiz-adv-x="1553" 
d="M814 1596h-302l-271 326h280l131 -173h22l131 173h280zM170 1444h606q322 0 498.5 -185t176.5 -523q0 -355 -174.5 -545.5t-500.5 -190.5h-606v1444zM537 1149v-854h173q179 0 273 110t94 324q0 201 -96.5 310.5t-270.5 109.5h-173z" />
    <glyph glyph-name="dcaron" unicode="&#x10f;" horiz-adv-x="1606" 
d="M1348 1530h293l-50 -510h-243v510zM530 -17q-209 0 -328 153.5t-119 422.5q0 266 119.5 418.5t327.5 152.5q112 0 197.5 -52t126.5 -144h19v596h354v-1530h-345v174h-19q-41 -90 -129 -140.5t-204 -50.5zM660 852q-100 0 -157 -78.5t-57 -216.5q0 -139 56.5 -217.5
t157.5 -78.5t158 78.5t57 216.5t-57.5 217t-157.5 79z" />
    <glyph glyph-name="Dcroat" unicode="&#x110;" horiz-adv-x="1544" 
d="M537 295h173q179 0 273 110t94 324q0 201 -96.5 310.5t-270.5 109.5h-173v-297h213v-252h-213v-305zM170 1444h606q322 0 498.5 -185t176.5 -523q0 -355 -174.5 -545.5t-500.5 -190.5h-606v600h-96v252h96v592z" />
    <glyph glyph-name="dcroat" unicode="&#x111;" horiz-adv-x="1388" 
d="M678 261q101 0 158.5 78.5t57.5 216.5q0 137 -58 216.5t-158 79.5t-157 -79t-57 -216q0 -139 57 -217.5t157 -78.5zM1369 1413v-164h-124v-1249h-352v174h-19q-41 -90 -127.5 -140.5t-202.5 -50.5q-207 0 -325 153t-118 423q0 267 119.5 419t328.5 152q111 0 196.5 -52
t126.5 -144h19v315h-203v164h203v139h354v-139h124z" />
    <glyph glyph-name="Emacron" unicode="&#x112;" horiz-adv-x="1302" 
d="M1159 295v-295h-989v1443h989v-295h-622v-288h585v-270h-585v-295h622zM1056 1637h-782v198h782v-198z" />
    <glyph glyph-name="emacron" unicode="&#x113;" horiz-adv-x="1262" 
d="M639 888q-87 0 -143 -56.5t-63 -150.5h404q-4 97 -56.5 152t-141.5 55zM850 328h323q-29 -163 -172 -258.5t-359 -95.5q-266 0 -412.5 150.5t-146.5 424.5q0 275 147.5 432.5t406.5 157.5q257 0 400 -148.5t143 -414.5v-98h-749v-18q2 -109 61 -172t160 -63
q77 0 128.5 27t69.5 76zM1021 1327h-768v198h768v-198z" />
    <glyph glyph-name="Ebreve" unicode="&#x114;" horiz-adv-x="1302" 
d="M1159 295v-295h-989v1443h989v-295h-622v-288h585v-270h-585v-295h622zM247 1932h236q2 -74 51 -117.5t131 -43.5t131 43.5t51 117.5h236q0 -157 -113.5 -254t-304.5 -97t-304.5 97t-113.5 254z" />
    <glyph glyph-name="ebreve" unicode="&#x115;" horiz-adv-x="1262" 
d="M639 888q-87 0 -143 -56.5t-63 -150.5h404q-4 97 -56.5 152t-141.5 55zM850 328h323q-29 -163 -172 -258.5t-359 -95.5q-266 0 -412.5 150.5t-146.5 424.5q0 275 147.5 432.5t406.5 157.5q257 0 400 -148.5t143 -414.5v-98h-749v-18q2 -109 61 -172t160 -63
q77 0 128.5 27t69.5 76zM219 1620h236q2 -78 51 -123.5t131 -45.5t131 45.5t51 123.5h236q0 -160 -113 -260t-305 -100t-305 100t-113 260z" />
    <glyph glyph-name="Edotaccent" unicode="&#x116;" horiz-adv-x="1302" 
d="M665 1581q-79 0 -128 48.5t-49 123.5t49 123.5t128 48.5q78 0 127 -48.5t49 -123.5t-49 -123.5t-127 -48.5zM1159 295v-295h-989v1443h989v-295h-622v-288h585v-270h-585v-295h622z" />
    <glyph glyph-name="edotaccent" unicode="&#x117;" horiz-adv-x="1262" 
d="M637 1274q-79 0 -128.5 49t-49.5 124q0 76 49.5 125t128.5 49t128.5 -49t49.5 -125q0 -75 -49.5 -124t-128.5 -49zM639 888q-87 0 -143 -56.5t-63 -150.5h404q-4 97 -56.5 152t-141.5 55zM850 328h323q-29 -163 -172 -258.5t-359 -95.5q-266 0 -412.5 150.5t-146.5 424.5
q0 275 147.5 432.5t406.5 157.5q257 0 400 -148.5t143 -414.5v-98h-749v-18q2 -109 61 -172t160 -63q77 0 128.5 27t69.5 76z" />
    <glyph glyph-name="Eogonek" unicode="&#x118;" horiz-adv-x="1302" 
d="M909 0h-739v1443h989v-295h-622v-288h585v-270h-585v-295h622v-265q-102 -56 -149 -108.5t-47 -111.5q0 -45 33 -72t87 -27q41 0 76 9v-176q-65 -27 -164 -27q-120 0 -192 59.5t-72 159.5q0 159 178 264z" />
    <glyph glyph-name="eogonek" unicode="&#x119;" horiz-adv-x="1262" 
d="M777 -483q-113 0 -186.5 63t-73.5 160q0 62 27 112t91 105v19q-2 0 -9 -0.5t-10 -0.5q-255 6 -394 156t-139 418q0 275 147.5 432.5t406.5 157.5q257 0 400 -148.5t143 -414.5v-98h-749v-18q2 -109 61 -172t160 -63q76 0 127.5 26.5t70.5 76.5h323q-14 -86 -68 -156
t-164 -146q-114 -78 -154.5 -125.5t-40.5 -100.5q0 -39 32.5 -64t84.5 -25q37 0 78 9v-176q-65 -27 -164 -27zM639 888q-87 0 -143 -56.5t-63 -150.5h404q-4 97 -56.5 152t-141.5 55z" />
    <glyph glyph-name="Ecaron" unicode="&#x11a;" horiz-adv-x="1302" 
d="M816 1596h-302l-271 326h280l131 -173h22l131 173h280zM1159 295v-295h-989v1443h989v-295h-622v-288h585v-270h-585v-295h622z" />
    <glyph glyph-name="ecaron" unicode="&#x11b;" horiz-adv-x="1262" 
d="M806 1260h-338l-271 359h297l133 -202h19l134 202h297zM639 888q-87 0 -143 -56.5t-63 -150.5h404q-4 97 -56.5 152t-141.5 55zM850 328h323q-29 -163 -172 -258.5t-359 -95.5q-266 0 -412.5 150.5t-146.5 424.5q0 275 147.5 432.5t406.5 157.5q257 0 400 -148.5
t143 -414.5v-98h-749v-18q2 -109 61 -172t160 -63q77 0 128.5 27t69.5 76z" />
    <glyph glyph-name="Gcircumflex" unicode="&#x11c;" horiz-adv-x="1572" 
d="M968 1948l275 -350h-298l-132 190h-20l-132 -190h-298l275 350h330zM1468 601q0 -298 -174.5 -469t-480.5 -171q-333 0 -522 203t-189 559q0 352 188 555.5t513 203.5q264 0 443.5 -140.5t206.5 -369.5h-362q-27 95 -103.5 149.5t-184.5 54.5q-154 0 -240.5 -119
t-86.5 -330q0 -213 93.5 -336.5t251.5 -123.5q125 0 205 67t87 177l1 24h-264v252h618v-186z" />
    <glyph glyph-name="gcircumflex" unicode="&#x11d;" horiz-adv-x="1360" 
d="M839 1619l271 -359h-297l-134 202h-19l-133 -202h-297l271 359h338zM871 563q0 135 -57.5 212t-158.5 77q-100 0 -156.5 -77t-56.5 -211t56 -211t157 -77q102 0 159 76.5t57 210.5zM645 -419q-232 0 -377 91.5t-156 241.5h344q10 -45 63 -71.5t136 -26.5q102 0 158 45.5
t56 128.5v201h-19q-87 -175 -328 -175q-204 0 -323.5 147.5t-119.5 399.5q0 263 120.5 415t330.5 152q111 0 199 -52.5t130 -143.5h19v179h345v-1100q0 -199 -156 -315.5t-422 -116.5z" />
    <glyph glyph-name="Gbreve" unicode="&#x11e;" horiz-adv-x="1572" 
d="M1468 601q0 -298 -174.5 -469t-480.5 -171q-333 0 -522 203t-189 559q0 352 188 555.5t513 203.5q264 0 443.5 -140.5t206.5 -369.5h-362q-27 95 -103.5 149.5t-184.5 54.5q-154 0 -240.5 -119t-86.5 -330q0 -213 93.5 -336.5t251.5 -123.5q125 0 205 67t87 177l1 24
h-264v252h618v-186zM385 1934h236q2 -74 51 -117.5t131 -43.5t131 43.5t51 117.5h236q0 -157 -113.5 -254t-304.5 -97t-304.5 97t-113.5 254z" />
    <glyph glyph-name="gbreve" unicode="&#x11f;" horiz-adv-x="1360" 
d="M252 1620h236q2 -78 51 -123.5t131 -45.5t131 45.5t51 123.5h236q0 -160 -113 -260t-305 -100t-305 100t-113 260zM871 563q0 135 -57.5 212t-158.5 77q-100 0 -156.5 -77t-56.5 -211t56 -211t157 -77q102 0 159 76.5t57 210.5zM645 -419q-232 0 -377 91.5t-156 241.5
h344q10 -45 63 -71.5t136 -26.5q102 0 158 45.5t56 128.5v201h-19q-87 -175 -328 -175q-204 0 -323.5 147.5t-119.5 399.5q0 263 120.5 415t330.5 152q111 0 199 -52.5t130 -143.5h19v179h345v-1100q0 -199 -156 -315.5t-422 -116.5z" />
    <glyph glyph-name="Gdotaccent" unicode="&#x120;" horiz-adv-x="1572" 
d="M803 1583q-79 0 -128 48.5t-49 123.5t49 123.5t128 48.5q78 0 127 -48.5t49 -123.5t-49 -123.5t-127 -48.5zM1468 601q0 -298 -174.5 -469t-480.5 -171q-333 0 -522 203t-189 559q0 352 188 555.5t513 203.5q264 0 443.5 -140.5t206.5 -369.5h-362q-27 95 -103.5 149.5
t-184.5 54.5q-154 0 -240.5 -119t-86.5 -330q0 -213 93.5 -336.5t251.5 -123.5q125 0 205 67t87 177l1 24h-264v252h618v-186z" />
    <glyph glyph-name="gdotaccent" unicode="&#x121;" horiz-adv-x="1360" 
d="M670 1274q-79 0 -128.5 49t-49.5 124q0 76 49.5 125t128.5 49t128.5 -49t49.5 -125q0 -75 -49.5 -124t-128.5 -49zM871 563q0 135 -57.5 212t-158.5 77q-100 0 -156.5 -77t-56.5 -211t56 -211t157 -77q102 0 159 76.5t57 210.5zM645 -419q-232 0 -377 91.5t-156 241.5
h344q10 -45 63 -71.5t136 -26.5q102 0 158 45.5t56 128.5v201h-19q-87 -175 -328 -175q-204 0 -323.5 147.5t-119.5 399.5q0 263 120.5 415t330.5 152q111 0 199 -52.5t130 -143.5h19v179h345v-1100q0 -199 -156 -315.5t-422 -116.5z" />
    <glyph glyph-name="Gcommaaccent" unicode="&#x122;" horiz-adv-x="1572" 
d="M818 -505h-306l148 350h351zM1468 601q0 -298 -174.5 -469t-480.5 -171q-333 0 -522 203t-189 559q0 352 188 555.5t513 203.5q264 0 443.5 -140.5t206.5 -369.5h-362q-27 95 -103.5 149.5t-184.5 54.5q-154 0 -240.5 -119t-86.5 -330q0 -213 93.5 -336.5t251.5 -123.5
q125 0 205 67t87 177l1 24h-264v252h618v-186z" />
    <glyph glyph-name="gcommaaccent" unicode="&#x123;" horiz-adv-x="1360" 
d="M704 1643h306l-148 -350h-351zM871 563q0 135 -57.5 212t-158.5 77q-100 0 -156.5 -77t-56.5 -211t56 -211t157 -77q102 0 159 76.5t57 210.5zM645 -419q-232 0 -377 91.5t-156 241.5h344q10 -45 63 -71.5t136 -26.5q102 0 158 45.5t56 128.5v201h-19q-87 -175 -328 -175
q-204 0 -323.5 147.5t-119.5 399.5q0 263 120.5 415t330.5 152q111 0 199 -52.5t130 -143.5h19v179h345v-1100q0 -199 -156 -315.5t-422 -116.5z" />
    <glyph glyph-name="Hcircumflex" unicode="&#x124;" horiz-adv-x="1648" 
d="M1478 0h-366v582h-575v-582h-367v1443h367v-566h575v566h366v-1443zM989 1946l275 -350h-298l-132 190h-20l-132 -190h-298l275 350h330z" />
    <glyph glyph-name="hcircumflex" unicode="&#x125;" horiz-adv-x="1383" 
d="M148 0v1530h346v-602h19q36 95 131 150.5t216 55.5q186 0 290.5 -109t104.5 -310v-715h-354v635q0 102 -51 156.5t-142 54.5t-149 -59.5t-58 -155.5v-631h-353zM486 2033l275 -350h-298l-132 190h-20l-132 -190h-298l275 350h330z" />
    <glyph glyph-name="Hbar" unicode="&#x126;" horiz-adv-x="1600" 
d="M1088 877v170h-575v-170h575zM1578 1278v-231h-124v-1047h-366v582h-575v-582h-367v1047h-124v231h124v165h367v-165h575v165h366v-165h124z" />
    <glyph glyph-name="hbar" unicode="&#x127;" horiz-adv-x="1380" 
d="M489 928h19q37 95 132 150.5t217 55.5q186 0 291 -109t105 -310v-715h-354v635q0 102 -51.5 156.5t-142.5 54.5q-92 0 -150 -59.5t-58 -155.5v-631h-354v1249h-166v164h166v146h346v-146h243v-164h-243v-321z" />
    <glyph glyph-name="Itilde" unicode="&#x128;" horiz-adv-x="707" 
d="M537 0h-367v1443h367v-1443zM517 1577q-55 0 -101.5 20t-73 43.5t-58.5 43.5t-61 20q-78 0 -82 -119h-209q0 150 72 235t185 85q56 0 103.5 -20t74 -43.5t57.5 -43.5t59 -20q78 0 83 115h208q0 -147 -72 -231.5t-185 -84.5z" />
    <glyph glyph-name="itilde" unicode="&#x129;" horiz-adv-x="634" 
d="M140 0v1113h354v-1113h-354zM196 1400q-38 0 -60 -36t-24 -100h-210q0 149 76.5 241t200.5 92q40 0 76.5 -14.5t61.5 -34.5t47.5 -40.5t45 -35t43.5 -14.5q38 0 60 34t23 97h210q0 -147 -76 -238t-200 -91q-49 0 -93.5 22t-70 48t-55.5 48t-55 22z" />
    <glyph glyph-name="Imacron" unicode="&#x12a;" horiz-adv-x="707" 
d="M537 0h-367v1443h367v-1443zM744 1637h-782v198h782v-198z" />
    <glyph glyph-name="imacron" unicode="&#x12b;" horiz-adv-x="634" 
d="M140 0v1113h354v-1113h-354zM701 1327h-768v198h768v-198z" />
    <glyph glyph-name="Ibreve" unicode="&#x12c;" horiz-adv-x="707" 
d="M537 0h-367v1443h367v-1443zM-65 1932h236q2 -74 51 -117.5t131 -43.5t131 43.5t51 117.5h236q0 -157 -113.5 -254t-304.5 -97t-304.5 97t-113.5 254z" />
    <glyph glyph-name="ibreve" unicode="&#x12d;" horiz-adv-x="634" 
d="M140 0v1113h354v-1113h-354zM-101 1620h236q2 -78 51 -123.5t131 -45.5t131 45.5t51 123.5h236q0 -160 -113 -260t-305 -100t-305 100t-113 260z" />
    <glyph glyph-name="Iogonek" unicode="&#x12e;" horiz-adv-x="707" 
d="M523 -452q-67 -27 -164 -27q-119 0 -190 59.5t-71 159.5q0 160 169 265h-97v1438h367v-1441h-65q-145 -92 -145 -189q0 -44 33 -71t87 -27q40 0 76 9v-176z" />
    <glyph glyph-name="iogonek" unicode="&#x12f;" horiz-adv-x="634" 
d="M315 1242q-92 0 -145.5 43t-53.5 114q0 72 53.5 115t145.5 43q93 0 146.5 -43t53.5 -115q0 -71 -53.5 -114t-146.5 -43zM474 -456q-67 -27 -164 -27q-119 0 -190 59.5t-71 159.5q0 162 176 269h-87v1108h354v-1109h-65q-149 -93 -149 -194q0 -45 33 -72t87 -27q40 0 76 9
v-176z" />
    <glyph glyph-name="Idotaccent" unicode="&#x130;" horiz-adv-x="707" 
d="M537 0h-367v1443h367v-1443zM353 1581q-79 0 -128 48.5t-49 123.5t49 123.5t128 48.5q78 0 127 -48.5t49 -123.5t-49 -123.5t-127 -48.5z" />
    <glyph glyph-name="dotlessi" unicode="&#x131;" horiz-adv-x="634" 
d="M140 0v1113h354v-1113h-354z" />
    <glyph glyph-name="u0132" unicode="&#x132;" horiz-adv-x="2006" 
d="M537 0h-367v1443h367v-1443zM777 458h352q1 -85 48 -135.5t126 -50.5q81 0 123.5 50t42.5 146v975h367v-978q0 -241 -139.5 -372.5t-387.5 -131.5q-244 0 -388 133.5t-144 363.5z" />
    <glyph glyph-name="u0133" unicode="&#x133;" horiz-adv-x="1280" 
d="M138 0v1113h354v-1113h-354zM315 1242q-92 0 -145.5 43t-53.5 114q0 72 53.5 115t145.5 43q93 0 146.5 -43t53.5 -115q0 -71 -53.5 -114t-146.5 -43zM1132 1113v-1127q0 -169 -109 -259.5t-313 -90.5q-65 0 -103 4v253q18 -2 42 -2q69 0 99 25.5t30 82.5v1114h354z
M955 1242q-92 0 -145.5 43t-53.5 114q0 72 53.5 115t145.5 43q93 0 146.5 -43t53.5 -115q0 -71 -53.5 -114t-146.5 -43z" />
    <glyph glyph-name="Jcircumflex" unicode="&#x134;" horiz-adv-x="1299" 
d="M70 458h352q1 -85 48 -135.5t126 -50.5q81 0 123.5 50t42.5 146v975h367v-978q0 -241 -139.5 -372.5t-387.5 -131.5q-244 0 -388 133.5t-144 363.5zM1111 1946l275 -350h-298l-132 190h-20l-132 -190h-298l275 350h330z" />
    <glyph glyph-name="jcircumflex" unicode="&#x135;" horiz-adv-x="631" 
d="M491 1113v-1127q0 -169 -109 -259.5t-313 -90.5q-65 0 -103 4v253q20 -2 42 -2q69 0 99 25.5t30 82.5v1114h354zM485 1619l271 -359h-297l-134 202h-19l-133 -202h-297l271 359h338z" />
    <glyph glyph-name="Kcommaaccent" unicode="&#x136;" horiz-adv-x="1507" 
d="M537 0h-367v1443h367v-620h19l480 620h394l-499 -637l528 -806h-431l-364 569l-127 -161v-408zM716 -505h-306l148 350h351z" />
    <glyph glyph-name="kcommaaccent" unicode="&#x137;" horiz-adv-x="1295" 
d="M520 697l316 416h396l-397 -478l424 -635h-412l-278 426l-68 -77v-349h-353v1530h353v-833h19zM665 -505h-306l148 350h351z" />
    <glyph glyph-name="Lacute" unicode="&#x139;" horiz-adv-x="1247" 
d="M194 1596l258 326h362l-304 -326h-316zM1150 303v-303h-980v1443h367v-1140h613z" />
    <glyph glyph-name="lacute" unicode="&#x13a;" horiz-adv-x="649" 
d="M165 1683l258 326h362l-304 -326h-316zM148 0v1530h353v-1530h-353z" />
    <glyph glyph-name="Lcommaaccent" unicode="&#x13b;" horiz-adv-x="1247" 
d="M642 -505h-306l148 350h351zM1150 303v-303h-980v1443h367v-1140h613z" />
    <glyph glyph-name="lcommaaccent" unicode="&#x13c;" horiz-adv-x="649" 
d="M313 -505h-306l148 350h351zM148 0v1530h353v-1530h-353z" />
    <glyph glyph-name="Lcaron" unicode="&#x13d;" horiz-adv-x="1247" 
d="M720 1443h286l-50 -511h-236v511zM1150 303v-303h-980v1443h367v-1140h613z" />
    <glyph glyph-name="lcaron" unicode="&#x13e;" horiz-adv-x="858" 
d="M599 1530h294l-50 -510h-244v510zM148 0v1530h353v-1530h-353z" />
    <glyph glyph-name="Lslash" unicode="&#x141;" horiz-adv-x="1236" 
d="M537 303h613v-303h-980v636l-144 -76v229l144 76v578h367v-385l209 110v-229l-209 -110v-526z" />
    <glyph glyph-name="lslash" unicode="&#x142;" horiz-adv-x="649" 
d="M623 1133v-229l-122 -65v-839h-353v650l-122 -65v229l122 65v651h353v-462z" />
    <glyph glyph-name="Nacute" unicode="&#x143;" horiz-adv-x="1601" 
d="M635 1596l258 326h362l-304 -326h-316zM518 0h-348v1443h293l601 -812h19v812h348v-1443h-291l-603 820h-19v-820z" />
    <glyph glyph-name="nacute" unicode="&#x144;" horiz-adv-x="1359" 
d="M512 1288l245 359h356l-292 -359h-309zM138 0v1113h344v-181h19q37 95 129.5 151t212.5 56q186 0 287.5 -110t101.5 -310v-719h-354v640q0 101 -48.5 155.5t-138.5 54.5q-89 0 -144.5 -59t-55.5 -155v-636h-353z" />
    <glyph glyph-name="Ncommaaccent" unicode="&#x145;" horiz-adv-x="1601" 
d="M783 -505h-306l148 350h351zM518 0h-348v1443h293l601 -812h19v812h348v-1443h-291l-603 820h-19v-820z" />
    <glyph glyph-name="ncommaaccent" unicode="&#x146;" horiz-adv-x="1359" 
d="M674 -505h-306l148 350h351zM138 0v1113h344v-181h19q37 95 129.5 151t212.5 56q186 0 287.5 -110t101.5 -310v-719h-354v640q0 101 -48.5 155.5t-138.5 54.5q-89 0 -144.5 -59t-55.5 -155v-636h-353z" />
    <glyph glyph-name="Ncaron" unicode="&#x147;" horiz-adv-x="1601" 
d="M945 1596h-302l-271 326h280l131 -173h22l131 173h280zM518 0h-348v1443h293l601 -812h19v812h348v-1443h-291l-603 820h-19v-820z" />
    <glyph glyph-name="ncaron" unicode="&#x148;" horiz-adv-x="1359" 
d="M857 1260h-338l-271 359h297l133 -202h19l134 202h297zM138 0v1113h344v-181h19q37 95 129.5 151t212.5 56q186 0 287.5 -110t101.5 -310v-719h-354v640q0 101 -48.5 155.5t-138.5 54.5q-89 0 -144.5 -59t-55.5 -155v-636h-353z" />
    <glyph glyph-name="Omacron" unicode="&#x14c;" horiz-adv-x="1626" 
d="M814 1482q326 0 518 -204.5t192 -555.5q0 -352 -192 -556.5t-518 -204.5q-328 0 -520 204.5t-192 556.5q0 351 193 555.5t519 204.5zM814 1178q-153 0 -245.5 -124t-92.5 -332q0 -209 92 -333t246 -124q153 0 245 124t92 333q0 208 -92.5 332t-244.5 124zM1205 1637h-782
v198h782v-198z" />
    <glyph glyph-name="omacron" unicode="&#x14d;" horiz-adv-x="1300" 
d="M1034 1327h-768v198h768v-198zM650 244q97 0 150.5 82t53.5 231q0 146 -54 229t-150 83t-150 -83t-54 -229q0 -149 53.5 -231t150.5 -82zM650 -26q-267 0 -417 154t-150 429q0 270 152 426t415 156q264 0 415.5 -155.5t151.5 -426.5q0 -275 -149.5 -429t-417.5 -154z" />
    <glyph glyph-name="Obreve" unicode="&#x14e;" horiz-adv-x="1626" 
d="M814 1482q326 0 518 -204.5t192 -555.5q0 -352 -192 -556.5t-518 -204.5q-328 0 -520 204.5t-192 556.5q0 351 193 555.5t519 204.5zM814 1178q-153 0 -245.5 -124t-92.5 -332q0 -209 92 -333t246 -124q153 0 245 124t92 333q0 208 -92.5 332t-244.5 124zM396 1932h236
q2 -74 51 -117.5t131 -43.5t131 43.5t51 117.5h236q0 -157 -113.5 -254t-304.5 -97t-304.5 97t-113.5 254z" />
    <glyph glyph-name="obreve" unicode="&#x14f;" horiz-adv-x="1300" 
d="M232 1620h236q2 -78 51 -123.5t131 -45.5t131 45.5t51 123.5h236q0 -160 -113 -260t-305 -100t-305 100t-113 260zM650 244q97 0 150.5 82t53.5 231q0 146 -54 229t-150 83t-150 -83t-54 -229q0 -149 53.5 -231t150.5 -82zM650 -26q-267 0 -417 154t-150 429
q0 270 152 426t415 156q264 0 415.5 -155.5t151.5 -426.5q0 -275 -149.5 -429t-417.5 -154z" />
    <glyph glyph-name="Ohungarumlaut" unicode="&#x150;" horiz-adv-x="1626" 
d="M893 1596l221 326h293l-249 -326h-265zM444 1596l220 326h294l-249 -326h-265zM814 1482q326 0 518 -204.5t192 -555.5q0 -352 -192 -556.5t-518 -204.5q-328 0 -520 204.5t-192 556.5q0 351 193 555.5t519 204.5zM814 1178q-153 0 -245.5 -124t-92.5 -332
q0 -209 92 -333t246 -124q153 0 245 124t92 333q0 208 -92.5 332t-244.5 124z" />
    <glyph glyph-name="ohungarumlaut" unicode="&#x151;" horiz-adv-x="1300" 
d="M734 1288l191 359h284l-221 -359h-254zM279 1288l191 359h284l-221 -359h-254zM650 244q97 0 150.5 82t53.5 231q0 146 -54 229t-150 83t-150 -83t-54 -229q0 -149 53.5 -231t150.5 -82zM650 -26q-267 0 -417 154t-150 429q0 270 152 426t415 156q264 0 415.5 -155.5
t151.5 -426.5q0 -275 -149.5 -429t-417.5 -154z" />
    <glyph glyph-name="OE" unicode="&#x152;" horiz-adv-x="2242" 
d="M832 1178q-155 0 -248 -124t-93 -332q0 -209 92.5 -333t248.5 -124q152 0 243 124.5t91 332.5t-91 332t-243 124zM1236 0v226h-20q-49 -119 -173 -192t-277 -73q-307 0 -478 200.5t-171 560.5q0 362 170 561t479 199q152 0 279 -73t171 -186h20v220h927v-295h-626v-288
h589v-270h-589v-295h626v-295h-927z" />
    <glyph glyph-name="oe" unicode="&#x153;" horiz-adv-x="2033" 
d="M1435 -26q-126 0 -228.5 45t-166.5 125h-19q-62 -81 -160.5 -125.5t-223.5 -44.5q-253 0 -400 155.5t-147 424.5q0 271 147 428t401 157t385 -174h19q60 82 161.5 128t229.5 46q235 0 377 -153.5t142 -409.5v-97h-748v-19q2 -109 61 -171.5t160 -62.5q159 0 198 102h320
q-29 -161 -168.5 -257.5t-339.5 -96.5zM1411 888q-86 0 -142 -56t-63 -150h404q-5 97 -57.5 151.5t-141.5 54.5zM658 244q97 0 150.5 82t53.5 229q0 148 -54 231t-150 83t-150.5 -83t-54.5 -231q0 -147 54 -229t151 -82z" />
    <glyph glyph-name="Racute" unicode="&#x154;" horiz-adv-x="1466" 
d="M516 1596l258 326h362l-304 -326h-316zM537 1166v-402h217q101 0 158 53t57 147q0 92 -59 147t-157 55h-216zM537 505v-505h-367v1443h635q253 0 396 -126.5t143 -349.5q0 -136 -65 -246.5t-181 -161.5l288 -559h-412l-247 505h-190z" />
    <glyph glyph-name="racute" unicode="&#x155;" horiz-adv-x="941" 
d="M309 1288l245 359h356l-292 -359h-309zM138 0v1113h344v-183h19q21 86 96 143t174 57q83 0 125 -17v-301q-19 8 -66.5 14t-82.5 6q-117 0 -186.5 -64t-69.5 -179v-589h-353z" />
    <glyph glyph-name="Rcommaaccent" unicode="&#x156;" horiz-adv-x="1466" 
d="M537 1166v-402h217q101 0 158 53t57 147q0 92 -59 147t-157 55h-216zM537 505v-505h-367v1443h635q253 0 396 -126.5t143 -349.5q0 -136 -65 -246.5t-181 -161.5l288 -559h-412l-247 505h-190zM664 -505h-306l148 350h351z" />
    <glyph glyph-name="rcommaaccent" unicode="&#x157;" horiz-adv-x="941" 
d="M138 0v1113h344v-183h19q21 86 96 143t174 57q83 0 125 -17v-301q-19 8 -66.5 14t-82.5 6q-117 0 -186.5 -64t-69.5 -179v-589h-353zM299 -505h-306l148 350h351z" />
    <glyph glyph-name="Rcaron" unicode="&#x158;" horiz-adv-x="1466" 
d="M537 1166v-402h217q101 0 158 53t57 147q0 92 -59 147t-157 55h-216zM537 505v-505h-367v1443h635q253 0 396 -126.5t143 -349.5q0 -136 -65 -246.5t-181 -161.5l288 -559h-412l-247 505h-190zM826 1596h-302l-271 326h280l131 -173h22l131 173h280z" />
    <glyph glyph-name="rcaron" unicode="&#x159;" horiz-adv-x="941" 
d="M654 1260h-338l-271 359h297l133 -202h19l134 202h297zM138 0v1113h344v-183h19q21 86 96 143t174 57q83 0 125 -17v-301q-19 8 -66.5 14t-82.5 6q-117 0 -186.5 -64t-69.5 -179v-589h-353z" />
    <glyph glyph-name="Sacute" unicode="&#x15a;" horiz-adv-x="1423" 
d="M552 1596l258 326h362l-304 -326h-316zM107 411h350q7 -79 79.5 -125.5t186.5 -46.5q103 0 167 45t64 116q0 60 -52 95.5t-176 60.5l-190 38q-198 37 -299 144t-101 277q0 212 156.5 339.5t417.5 127.5q253 0 413 -125t165 -325h-339q-6 76 -71.5 124.5t-162.5 48.5
t-155.5 -42.5t-58.5 -114.5q0 -59 51 -96t165 -59l186 -36q214 -41 313.5 -141t99.5 -272q0 -226 -162 -354.5t-446 -128.5q-274 0 -435.5 121t-165.5 329z" />
    <glyph glyph-name="sacute" unicode="&#x15b;" horiz-adv-x="1206" 
d="M113 778q0 166 132 263.5t357 97.5q231 0 355.5 -87.5t134.5 -255.5h-322q-8 49 -51 76.5t-114 27.5q-69 0 -112.5 -27.5t-43.5 -72.5q0 -35 30.5 -57.5t97.5 -36.5l230 -47q165 -35 239.5 -107.5t74.5 -198.5q0 -173 -140 -276t-374 -103q-239 0 -372.5 88.5
t-148.5 256.5h341q28 -106 185 -106q73 0 116.5 27t43.5 72q0 35 -27.5 56t-94.5 35l-207 44q-330 70 -330 331zM426 1288l245 359h356l-292 -359h-309z" />
    <glyph glyph-name="Scircumflex" unicode="&#x15c;" horiz-adv-x="1423" 
d="M107 411h350q7 -79 79.5 -125.5t186.5 -46.5q103 0 167 45t64 116q0 60 -52 95.5t-176 60.5l-190 38q-198 37 -299 144t-101 277q0 212 156.5 339.5t417.5 127.5q253 0 413 -125t165 -325h-339q-6 76 -71.5 124.5t-162.5 48.5t-155.5 -42.5t-58.5 -114.5q0 -59 51 -96
t165 -59l186 -36q214 -41 313.5 -141t99.5 -272q0 -226 -162 -354.5t-446 -128.5q-274 0 -435.5 121t-165.5 329zM876 1946l275 -350h-298l-132 190h-20l-132 -190h-298l275 350h330z" />
    <glyph glyph-name="scircumflex" unicode="&#x15d;" horiz-adv-x="1206" 
d="M771 1619l271 -359h-297l-134 202h-19l-133 -202h-297l271 359h338zM113 778q0 166 132 263.5t357 97.5q231 0 355.5 -87.5t134.5 -255.5h-322q-8 49 -51 76.5t-114 27.5q-69 0 -112.5 -27.5t-43.5 -72.5q0 -35 30.5 -57.5t97.5 -36.5l230 -47q165 -35 239.5 -107.5
t74.5 -198.5q0 -173 -140 -276t-374 -103q-239 0 -372.5 88.5t-148.5 256.5h341q28 -106 185 -106q73 0 116.5 27t43.5 72q0 35 -27.5 56t-94.5 35l-207 44q-330 70 -330 331z" />
    <glyph glyph-name="Scedilla" unicode="&#x15e;" horiz-adv-x="1423" 
d="M717 893l186 -36q214 -41 313.5 -141t99.5 -272q0 -206 -136.5 -332t-378.5 -147l-28 -67q91 -7 138.5 -53.5t47.5 -128.5q0 -101 -72.5 -155.5t-206.5 -54.5q-90 0 -148 17v145q35 -14 113 -14q108 0 108 53q0 28 -28.5 40.5t-91.5 12.5h-61v127l33 79q-230 23 -362 140
t-136 305h350q7 -79 79.5 -125.5t186.5 -46.5q103 0 167 45t64 116q0 60 -52 95.5t-176 60.5l-190 38q-198 37 -299 144t-101 277q0 212 156.5 339.5t417.5 127.5q253 0 413 -125t165 -325h-339q-6 76 -71.5 124.5t-162.5 48.5t-155.5 -42.5t-58.5 -114.5q0 -59 51 -96
t165 -59z" />
    <glyph glyph-name="scedilla" unicode="&#x15f;" horiz-adv-x="1206" 
d="M577 706l230 -47q165 -35 239.5 -107.5t74.5 -198.5q0 -153 -111.5 -252.5t-303.5 -121.5l-34 -80q91 -7 138.5 -53.5t47.5 -128.5q0 -101 -72.5 -155.5t-206.5 -54.5q-90 0 -148 17v145q35 -14 113 -14q108 0 108 53q0 28 -28.5 40.5t-91.5 12.5h-61v127l38 90
q-194 17 -302 104t-121 237h341q28 -106 185 -106q73 0 116.5 27t43.5 72q0 35 -27.5 56t-94.5 35l-207 44q-330 70 -330 331q0 166 132 263.5t357 97.5q231 0 355.5 -87.5t134.5 -255.5h-322q-8 49 -51 76.5t-114 27.5q-69 0 -112.5 -27.5t-43.5 -72.5q0 -35 30.5 -57.5
t97.5 -36.5z" />
    <glyph glyph-name="Scaron" unicode="&#x160;" horiz-adv-x="1423" 
d="M107 411h350q7 -79 79.5 -125.5t186.5 -46.5q103 0 167 45t64 116q0 60 -52 95.5t-176 60.5l-190 38q-198 37 -299 144t-101 277q0 212 156.5 339.5t417.5 127.5q253 0 413 -125t165 -325h-339q-6 76 -71.5 124.5t-162.5 48.5t-155.5 -42.5t-58.5 -114.5q0 -59 51 -96
t165 -59l186 -36q214 -41 313.5 -141t99.5 -272q0 -226 -162 -354.5t-446 -128.5q-274 0 -435.5 121t-165.5 329zM862 1596h-302l-271 326h280l131 -173h22l131 173h280z" />
    <glyph glyph-name="scaron" unicode="&#x161;" horiz-adv-x="1206" 
d="M771 1260h-338l-271 359h297l133 -202h19l134 202h297zM113 778q0 166 132 263.5t357 97.5q231 0 355.5 -87.5t134.5 -255.5h-322q-8 49 -51 76.5t-114 27.5q-69 0 -112.5 -27.5t-43.5 -72.5q0 -35 30.5 -57.5t97.5 -36.5l230 -47q165 -35 239.5 -107.5t74.5 -198.5
q0 -173 -140 -276t-374 -103q-239 0 -372.5 88.5t-148.5 256.5h341q28 -106 185 -106q73 0 116.5 27t43.5 72q0 35 -27.5 56t-94.5 35l-207 44q-330 70 -330 331z" />
    <glyph glyph-name="Tcedilla" unicode="&#x162;" horiz-adv-x="1381" 
d="M873 0h-79l-42 -101q91 -7 138.5 -53.5t47.5 -128.5q0 -101 -72.5 -155.5t-206.5 -54.5q-90 0 -148 17v145q35 -14 113 -14q108 0 108 53q0 28 -28.5 40.5t-91.5 12.5h-61v127l47 112h-91v1148h-416v295h1199v-295h-417v-1148z" />
    <glyph glyph-name="tcedilla" unicode="&#x163;" horiz-adv-x="898" 
d="M490 -493q-89 0 -147 17v145q33 -14 113 -14q107 0 107 53q0 28 -28 40.5t-92 12.5h-60v127l55 130q-111 27 -161.5 96.5t-50.5 190.5v530h-172v263h172v267h353v-267h227v-263h-227v-451q0 -125 135 -125q46 0 89 5v-252q-67 -14 -166 -14q-8 0 -12 1l-41 -100
q90 -7 138 -53.5t48 -128.5q0 -101 -72.5 -155.5t-207.5 -54.5z" />
    <glyph glyph-name="Tcaron" unicode="&#x164;" horiz-adv-x="1381" 
d="M837 1596h-302l-271 326h280l131 -173h22l131 173h280zM873 0h-366v1148h-416v295h1199v-295h-417v-1148z" />
    <glyph glyph-name="tcaron" unicode="&#x165;" horiz-adv-x="898" 
d="M911 1230h-244v511h294zM226 1365h353v-267h227v-263h-227v-451q0 -125 135 -125q46 0 89 5v-252q-67 -14 -169 -14q-219 0 -313.5 71.5t-94.5 235.5v530h-172v263h172v267z" />
    <glyph glyph-name="Tbar" unicode="&#x166;" horiz-adv-x="1381" 
d="M1290 1148h-417v-344h268v-247h-268v-557h-366v557h-277v247h277v344h-416v295h1199v-295z" />
    <glyph glyph-name="tbar" unicode="&#x167;" horiz-adv-x="898" 
d="M820 491h-241v-107q0 -125 135 -125q46 0 89 5v-252q-67 -14 -169 -14q-219 0 -313.5 71.5t-94.5 235.5v186h-171v169h171v175h-172v263h172v267h353v-267h227v-263h-227v-175h241v-169z" />
    <glyph glyph-name="Utilde" unicode="&#x168;" horiz-adv-x="1586" 
d="M538 1443v-906q0 -126 66.5 -196.5t188.5 -70.5t188 70t66 197v906h367v-945q0 -243 -170 -390t-451 -147t-451.5 147t-170.5 390v945h367zM957 1577q-55 0 -101.5 20t-73 43.5t-58.5 43.5t-61 20q-78 0 -82 -119h-209q0 150 72 235t185 85q56 0 103.5 -20t74 -43.5
t58 -43.5t58.5 -20q78 0 83 115h208q0 -147 -72 -231.5t-185 -84.5z" />
    <glyph glyph-name="utilde" unicode="&#x169;" horiz-adv-x="1369" 
d="M1230 1113v-1113h-345v180h-19q-38 -98 -125 -152t-206 -54q-184 0 -295.5 112t-111.5 307v720h353v-640q0 -101 52 -154.5t142 -53.5q89 0 145 57.5t56 154.5v636h354zM559 1400q-38 0 -60 -36t-24 -100h-210q0 149 76.5 241t200.5 92q40 0 76.5 -14.5t61.5 -34.5
t47.5 -40.5t45 -35t43.5 -14.5q38 0 60 34t23 97h210q0 -147 -76 -238t-200 -91q-49 0 -93.5 22t-70 48t-55.5 48t-55 22z" />
    <glyph glyph-name="Umacron" unicode="&#x16a;" horiz-adv-x="1586" 
d="M538 1443v-906q0 -126 66.5 -196.5t188.5 -70.5t188 70t66 197v906h367v-945q0 -243 -170 -390t-451 -147t-451.5 147t-170.5 390v945h367zM1184 1637h-782v198h782v-198z" />
    <glyph glyph-name="umacron" unicode="&#x16b;" horiz-adv-x="1369" 
d="M1230 1113v-1113h-345v180h-19q-38 -98 -125 -152t-206 -54q-184 0 -295.5 112t-111.5 307v720h353v-640q0 -101 52 -154.5t142 -53.5q89 0 145 57.5t56 154.5v636h354zM1064 1327h-768v198h768v-198z" />
    <glyph glyph-name="Ubreve" unicode="&#x16c;" horiz-adv-x="1586" 
d="M538 1443v-906q0 -126 66.5 -196.5t188.5 -70.5t188 70t66 197v906h367v-945q0 -243 -170 -390t-451 -147t-451.5 147t-170.5 390v945h367zM375 1932h236q2 -74 51 -117.5t131 -43.5t131 43.5t51 117.5h236q0 -157 -113.5 -254t-304.5 -97t-304.5 97t-113.5 254z" />
    <glyph glyph-name="ubreve" unicode="&#x16d;" horiz-adv-x="1369" 
d="M1230 1113v-1113h-345v180h-19q-38 -98 -125 -152t-206 -54q-184 0 -295.5 112t-111.5 307v720h353v-640q0 -101 52 -154.5t142 -53.5q89 0 145 57.5t56 154.5v636h354zM262 1620h236q2 -78 51 -123.5t131 -45.5t131 45.5t51 123.5h236q0 -160 -113 -260t-305 -100
t-305 100t-113 260z" />
    <glyph glyph-name="Uring" unicode="&#x16e;" horiz-adv-x="1586" 
d="M794 1580q-110 0 -182 69t-72 176q0 106 71.5 174t182.5 68q110 0 180.5 -68t70.5 -174q0 -107 -71 -176t-180 -69zM793 1727q43 0 70 27.5t27 69.5q0 41 -28 68.5t-69 27.5q-42 -1 -69.5 -28t-27.5 -68q0 -43 27.5 -70t69.5 -27zM538 1443v-906q0 -126 66.5 -196.5
t188.5 -70.5t188 70t66 197v906h367v-945q0 -243 -170 -390t-451 -147t-451.5 147t-170.5 390v945h367z" />
    <glyph glyph-name="uring" unicode="&#x16f;" horiz-adv-x="1369" 
d="M1230 1113v-1113h-345v180h-19q-38 -98 -125 -152t-206 -54q-184 0 -295.5 112t-111.5 307v720h353v-640q0 -101 52 -154.5t142 -53.5q89 0 145 57.5t56 154.5v636h354zM681 1260q-110 0 -182 69t-72 176q0 106 71.5 174t182.5 68q110 0 180.5 -68t70.5 -174
q0 -107 -71 -176t-180 -69zM680 1407q43 0 70 27.5t27 69.5q0 41 -28 68.5t-69 27.5q-42 -1 -69.5 -28t-27.5 -68q0 -43 27.5 -70t69.5 -27z" />
    <glyph glyph-name="Uhungarumlaut" unicode="&#x170;" horiz-adv-x="1586" 
d="M538 1443v-906q0 -126 66.5 -196.5t188.5 -70.5t188 70t66 197v906h367v-945q0 -243 -170 -390t-451 -147t-451.5 147t-170.5 390v945h367zM872 1596l221 326h293l-249 -326h-265zM423 1596l220 326h294l-249 -326h-265z" />
    <glyph glyph-name="uhungarumlaut" unicode="&#x171;" horiz-adv-x="1369" 
d="M764 1288l191 359h284l-221 -359h-254zM309 1288l191 359h284l-221 -359h-254zM1230 1113v-1113h-345v180h-19q-38 -98 -125 -152t-206 -54q-184 0 -295.5 112t-111.5 307v720h353v-640q0 -101 52 -154.5t142 -53.5q89 0 145 57.5t56 154.5v636h354z" />
    <glyph glyph-name="Uogonek" unicode="&#x172;" horiz-adv-x="1586" 
d="M972 -483q-119 0 -190.5 59.5t-71.5 156.5q0 132 121 217v19q-10 -5 -33 -5q-289 0 -458 144t-169 390v945h367v-906q0 -127 67 -197t188 -70t187.5 70t66.5 197v906h367v-945q0 -94 -26 -172t-68 -131t-92.5 -96.5t-101 -77.5t-92.5 -65t-68 -67.5t-26 -77.5
q0 -45 33 -72.5t89 -27.5q36 0 73 9v-176q-67 -27 -163 -27z" />
    <glyph glyph-name="uogonek" unicode="&#x173;" horiz-adv-x="1360" 
d="M1203 -455q-67 -24 -156 -24q-119 0 -190.5 59.5t-71.5 159.5q0 162 175 265h-75v175h-19q-38 -98 -125 -152t-206 -54q-184 0 -295.5 112t-111.5 307v720h353v-640q0 -101 52 -154.5t142 -53.5q89 0 145 57.5t56 154.5v636h354v-1109h-69q-146 -88 -146 -189
q0 -46 33 -73t87 -27q33 0 68 8v-178z" />
    <glyph glyph-name="Wcircumflex" unicode="&#x174;" horiz-adv-x="2112" 
d="M1221 1946l275 -350h-298l-132 190h-20l-132 -190h-298l275 350h330zM1046 884l-237 -884h-346l-377 1443h381l192 -957h18l231 957h294l239 -957h18l189 957h378l-377 -1443h-344l-241 884h-18z" />
    <glyph glyph-name="wcircumflex" unicode="&#x175;" horiz-adv-x="1814" 
d="M1079 1619l271 -359h-297l-134 202h-19l-133 -202h-297l271 359h338zM1756 1113l-288 -1113h-381l-174 733h-19l-172 -733h-375l-290 1113h358l139 -763h19l168 763h337l170 -763h19l139 763h350z" />
    <glyph glyph-name="Ycircumflex" unicode="&#x176;" horiz-adv-x="1508" 
d="M937 0h-366v496l-498 947h391l281 -589h19l279 589h391l-497 -947v-496zM920 1946l275 -350h-298l-132 190h-20l-132 -190h-298l275 350h330z" />
    <glyph glyph-name="ycircumflex" unicode="&#x177;" horiz-adv-x="1282" 
d="M298 -407q-124 0 -129 1v269q5 -1 62 -1q176 0 194 98l5 31l-380 1122h391l199 -816h19l199 816h374l-358 -1111q-71 -222 -203.5 -315.5t-372.5 -93.5zM819 1619l271 -359h-297l-134 202h-19l-133 -202h-297l271 359h338z" />
    <glyph glyph-name="Ydieresis" unicode="&#x178;" horiz-adv-x="1508" 
d="M937 0h-366v496l-498 947h391l281 -589h19l279 589h391l-497 -947v-496zM504 1581q-76 0 -124.5 46t-48.5 118t48.5 118t124.5 46t124.5 -46t48.5 -118t-48.5 -118t-124.5 -46zM1006 1581q-76 0 -124.5 46t-48.5 118t48.5 118t124.5 46t125 -46t49 -118t-49 -118
t-125 -46z" />
    <glyph glyph-name="Zacute" unicode="&#x179;" horiz-adv-x="1399" 
d="M540 1596l258 326h362l-304 -326h-316zM130 0v233l677 896v19h-666v295h1106v-233l-677 -896v-19h698v-295h-1138z" />
    <glyph glyph-name="zacute" unicode="&#x17a;" horiz-adv-x="1190" 
d="M417 1288l245 359h356l-292 -359h-309zM112 0v189l524 639v19h-512v266h936v-217l-477 -611v-19h495v-266h-966z" />
    <glyph glyph-name="Zdotaccent" unicode="&#x17b;" horiz-adv-x="1399" 
d="M699 1581q-79 0 -128 48.5t-49 123.5t49 123.5t128 48.5q78 0 127 -48.5t49 -123.5t-49 -123.5t-127 -48.5zM130 0v233l677 896v19h-666v295h1106v-233l-677 -896v-19h698v-295h-1138z" />
    <glyph glyph-name="zdotaccent" unicode="&#x17c;" horiz-adv-x="1190" 
d="M593 1274q-79 0 -128.5 49t-49.5 124q0 76 49.5 125t128.5 49t128.5 -49t49.5 -125q0 -75 -49.5 -124t-128.5 -49zM112 0v189l524 639v19h-512v266h936v-217l-477 -611v-19h495v-266h-966z" />
    <glyph glyph-name="Zcaron" unicode="&#x17d;" horiz-adv-x="1399" 
d="M130 0v233l677 896v19h-666v295h1106v-233l-677 -896v-19h698v-295h-1138zM850 1596h-302l-271 326h280l131 -173h22l131 173h280z" />
    <glyph glyph-name="zcaron" unicode="&#x17e;" horiz-adv-x="1190" 
d="M762 1260h-338l-271 359h297l133 -202h19l134 202h297zM112 0v189l524 639v19h-512v266h936v-217l-477 -611v-19h495v-266h-966z" />
    <glyph glyph-name="florin" unicode="&#x192;" horiz-adv-x="1461" 
d="M338 -24q-130 0 -216 21v277q79 -22 167 -22q85 0 138.5 44t66.5 128l31 202h-306v245h346l28 173q67 412 542 412q115 0 196 -13v-279q-59 16 -157 16q-188 0 -217 -177l-21 -132h339v-245h-379l-34 -218q-37 -222 -165 -327t-359 -105z" />
    <glyph glyph-name="Ohorn" unicode="&#x1a0;" horiz-adv-x="1709" 
d="M1524 714q0 -345 -193 -549t-519 -204t-518 205.5t-192 554.5q0 348 190 554.5t511 206.5q97 0 183.5 -20.5t135.5 -45.5t101.5 -45.5t89.5 -20.5q87 0 87 105v196h269v-309q0 -94 -47 -149.5t-125 -55.5q-42 0 -53 9l-16 -17q96 -173 96 -415zM814 1178
q-154 0 -246 -124.5t-92 -332.5q0 -207 92 -331.5t246 -124.5q153 0 245 124.5t92 332.5q0 207 -92 331.5t-245 124.5z" />
    <glyph glyph-name="ohorn" unicode="&#x1a1;" horiz-adv-x="1470" 
d="M446 555q0 -147 53.5 -229t150.5 -82t150.5 82t53.5 229q0 148 -54 231t-150 83t-150 -83t-54 -231zM1217 549q0 -270 -153 -422.5t-424 -152.5q-253 0 -405 157.5t-152 418.5q0 263 152 426t398 163q91 0 172 -24t126.5 -52.5t91.5 -52.5t77 -24q72 0 72 100v163h269
v-228q0 -120 -56.5 -189.5t-152.5 -69.5q-22 0 -42 5l-8 -10q35 -108 35 -208z" />
    <glyph glyph-name="Uhorn" unicode="&#x1af;" horiz-adv-x="1796" 
d="M1421 1417q40 -10 64 -2q25 7 35.5 29.5t10.5 67.5v171h270v-232q0 -138 -72.5 -213.5t-204.5 -75.5q-99 0 -110 10v-674q0 -243 -170 -390t-451 -147t-451.5 147t-170.5 390v945h367v-906q0 -127 67 -197t188 -70t187.5 70t66.5 197v906h374v-26z" />
    <glyph glyph-name="uhorn" unicode="&#x1b0;" horiz-adv-x="1629" 
d="M862 180q-39 -98 -125.5 -152t-205.5 -54q-187 0 -297.5 113.5t-110.5 305.5v720h354v-640q0 -99 50.5 -153.5t142.5 -54.5q91 0 146 58.5t55 153.5v636h361v-22q45 -9 71 3q40 14 40 92v171h269v-232q0 -137 -72.5 -213t-204.5 -76q-17 0 -61 3t-49 7v-846h-344v180h-19
z" />
    <glyph glyph-name="u01C4" unicode="&#x1c4;" horiz-adv-x="2967" 
d="M170 1444h606q322 0 498.5 -185t176.5 -523q0 -355 -174.5 -545.5t-500.5 -190.5h-606v1444zM537 1149v-854h173q179 0 273 110t94 324q0 201 -96.5 310.5t-270.5 109.5h-173zM1698 0v233l677 896v19h-666v295h1106v-233l-677 -896v-19h698v-295h-1138zM2418 1596h-302
l-271 326h280l131 -173h22l131 173h280z" />
    <glyph glyph-name="u01C5" unicode="&#x1c5;" horiz-adv-x="2758" 
d="M170 1444h606q322 0 498.5 -185t176.5 -523q0 -355 -174.5 -545.5t-500.5 -190.5h-606v1444zM537 1149v-854h173q179 0 273 110t94 324q0 201 -96.5 310.5t-270.5 109.5h-173zM2330 1260h-338l-271 359h297l133 -202h19l134 202h297zM1680 0v189l524 639v19h-512v266h936
v-217l-477 -611v-19h495v-266h-966z" />
    <glyph glyph-name="u01C6" unicode="&#x1c6;" horiz-adv-x="2577" 
d="M530 -17q-209 0 -328 153.5t-119 422.5q0 266 119.5 418.5t327.5 152.5q112 0 197.5 -52t126.5 -144h19v596h354v-1530h-345v174h-19q-41 -90 -129 -140.5t-204 -50.5zM660 852q-100 0 -157 -78.5t-57 -216.5q0 -139 56.5 -217.5t157.5 -78.5t158 78.5t57 216.5
t-57.5 217t-157.5 79zM2150 1260h-338l-271 359h297l133 -202h19l134 202h297zM1500 0v189l524 639v19h-512v266h936v-217l-477 -611v-19h495v-266h-966z" />
    <glyph glyph-name="u01C7" unicode="&#x1c7;" horiz-adv-x="2539" 
d="M1309 458h352q1 -85 48 -135.5t126 -50.5q81 0 123.5 50t42.5 146v975h367v-978q0 -241 -139.5 -372.5t-387.5 -131.5q-244 0 -388 133.5t-144 363.5zM1150 303v-303h-980v1443h367v-1140h613z" />
    <glyph glyph-name="u01C8" unicode="&#x1c8;" horiz-adv-x="1879" 
d="M1731 1113v-1127q0 -169 -109 -259.5t-313 -90.5q-65 0 -103 4v253q18 -2 42 -2q69 0 99 25.5t30 82.5v1114h354zM1554 1242q-92 0 -145.5 43t-53.5 114q0 72 53.5 115t145.5 43q93 0 146.5 -43t53.5 -115q0 -71 -53.5 -114t-146.5 -43zM1150 303v-303h-980v1443h367
v-1140h613z" />
    <glyph glyph-name="u01C9" unicode="&#x1c9;" horiz-adv-x="1280" 
d="M1132 1113v-1127q0 -169 -109 -259.5t-313 -90.5q-65 0 -103 4v253q18 -2 42 -2q69 0 99 25.5t30 82.5v1114h354zM955 1242q-92 0 -145.5 43t-53.5 114q0 72 53.5 115t145.5 43q93 0 146.5 -43t53.5 -115q0 -71 -53.5 -114t-146.5 -43zM148 0v1530h353v-1530h-353z" />
    <glyph glyph-name="u01CA" unicode="&#x1ca;" horiz-adv-x="2900" 
d="M1671 458h352q1 -85 48 -135.5t126 -50.5q81 0 123.5 50t42.5 146v975h367v-978q0 -241 -139.5 -372.5t-387.5 -131.5q-244 0 -388 133.5t-144 363.5zM518 0h-348v1443h293l601 -812h19v812h348v-1443h-291l-603 820h-19v-820z" />
    <glyph glyph-name="u01CB" unicode="&#x1cb;" horiz-adv-x="2241" 
d="M2093 1113v-1127q0 -169 -109 -259.5t-313 -90.5q-65 0 -103 4v253q18 -2 42 -2q69 0 99 25.5t30 82.5v1114h354zM1916 1242q-92 0 -145.5 43t-53.5 114q0 72 53.5 115t145.5 43q93 0 146.5 -43t53.5 -115q0 -71 -53.5 -114t-146.5 -43zM518 0h-348v1443h293l601 -812h19
v812h348v-1443h-291l-603 820h-19v-820z" />
    <glyph glyph-name="u01CC" unicode="&#x1cc;" horiz-adv-x="2007" 
d="M1859 1113v-1127q0 -169 -109 -259.5t-313 -90.5q-65 0 -103 4v253q18 -2 42 -2q69 0 99 25.5t30 82.5v1114h354zM1682 1242q-92 0 -145.5 43t-53.5 114q0 72 53.5 115t145.5 43q93 0 146.5 -43t53.5 -115q0 -71 -53.5 -114t-146.5 -43zM138 0v1113h344v-181h19
q37 95 129.5 151t212.5 56q186 0 287.5 -110t101.5 -310v-719h-354v640q0 101 -48.5 155.5t-138.5 54.5q-89 0 -144.5 -59t-55.5 -155v-636h-353z" />
    <glyph glyph-name="Acaron" unicode="&#x1cd;" horiz-adv-x="1563" 
d="M1091 0l-90 317h-471l-93 -317h-364l484 1443h449l485 -1443h-400zM758 1118l-158 -537h332l-155 537h-19zM933 1596h-302l-271 326h280l131 -173h22l131 173h280z" />
    <glyph glyph-name="acaron" unicode="&#x1ce;" horiz-adv-x="1248" 
d="M570 230q84 0 141.5 49t57.5 121v73l-187 -12q-78 -6 -119 -36t-41 -80q0 -53 40.5 -84t107.5 -31zM441 -17q-161 0 -260.5 92.5t-99.5 244.5t114.5 238.5t330.5 99.5l243 14v87q0 57 -40.5 88.5t-113.5 31.5q-141 0 -176 -90h-318q12 162 150 256t364 94q230 0 356 -100
t126 -280v-759h-344v138h-19q-37 -71 -122 -113t-191 -42zM805 1260h-338l-271 359h297l133 -202h19l134 202h297z" />
    <glyph glyph-name="Icaron" unicode="&#x1cf;" horiz-adv-x="707" 
d="M537 0h-367v1443h367v-1443zM504 1596h-302l-271 326h280l131 -173h22l131 173h280z" />
    <glyph glyph-name="icaron" unicode="&#x1d0;" horiz-adv-x="634" 
d="M486 1260h-338l-271 359h297l133 -202h19l134 202h297zM140 0v1113h354v-1113h-354z" />
    <glyph glyph-name="Ocaron" unicode="&#x1d1;" horiz-adv-x="1626" 
d="M965 1596h-302l-271 326h280l131 -173h22l131 173h280zM814 1482q326 0 518 -204.5t192 -555.5q0 -352 -192 -556.5t-518 -204.5q-328 0 -520 204.5t-192 556.5q0 351 193 555.5t519 204.5zM814 1178q-153 0 -245.5 -124t-92.5 -332q0 -209 92 -333t246 -124
q153 0 245 124t92 333q0 208 -92.5 332t-244.5 124z" />
    <glyph glyph-name="ocaron" unicode="&#x1d2;" horiz-adv-x="1300" 
d="M819 1260h-338l-271 359h297l133 -202h19l134 202h297zM650 244q97 0 150.5 82t53.5 231q0 146 -54 229t-150 83t-150 -83t-54 -229q0 -149 53.5 -231t150.5 -82zM650 -26q-267 0 -417 154t-150 429q0 270 152 426t415 156q264 0 415.5 -155.5t151.5 -426.5
q0 -275 -149.5 -429t-417.5 -154z" />
    <glyph glyph-name="Ucaron" unicode="&#x1d3;" horiz-adv-x="1586" 
d="M944 1596h-302l-271 326h280l131 -173h22l131 173h280zM538 1443v-906q0 -126 66.5 -196.5t188.5 -70.5t188 70t66 197v906h367v-945q0 -243 -170 -390t-451 -147t-451.5 147t-170.5 390v945h367z" />
    <glyph glyph-name="ucaron" unicode="&#x1d4;" horiz-adv-x="1369" 
d="M849 1260h-338l-271 359h297l133 -202h19l134 202h297zM1230 1113v-1113h-345v180h-19q-38 -98 -125 -152t-206 -54q-184 0 -295.5 112t-111.5 307v720h353v-640q0 -101 52 -154.5t142 -53.5q89 0 145 57.5t56 154.5v636h354z" />
    <glyph glyph-name="Udieresismacron" unicode="&#x1d5;" horiz-adv-x="1586" 
d="M538 1443v-906q0 -126 66.5 -196.5t188.5 -70.5t188 70t66 197v906h367v-945q0 -243 -170 -390t-451 -147t-451.5 147t-170.5 390v945h367zM402 2021v183h782v-183h-782zM542 1581q-76 0 -124.5 45.5t-48.5 117.5t48.5 117.5t124.5 45.5t124 -45.5t48 -117.5t-48 -117.5
t-124 -45.5zM1044 1581q-76 0 -124 45.5t-48 117.5t48 117.5t124 45.5t124.5 -45.5t48.5 -117.5t-48.5 -117.5t-124.5 -45.5z" />
    <glyph glyph-name="udieresismacron" unicode="&#x1d6;" horiz-adv-x="1369" 
d="M1230 1113v-1113h-345v180h-19q-38 -98 -125 -152t-206 -54q-184 0 -295.5 112t-111.5 307v720h353v-640q0 -101 52 -154.5t142 -53.5q89 0 145 57.5t56 154.5v636h354zM449 1260q-71 0 -116.5 44.5t-45.5 110.5q0 68 45.5 112.5t116.5 44.5t116 -44.5t45 -112.5
q0 -66 -45 -110.5t-116 -44.5zM911 1260q-71 0 -116 44.5t-45 110.5q0 68 45 112.5t116 44.5t116.5 -44.5t45.5 -112.5q0 -66 -45.5 -110.5t-116.5 -44.5zM1064 1699h-768v198h768v-198z" />
    <glyph glyph-name="Udieresisacute" unicode="&#x1d7;" horiz-adv-x="1586" 
d="M656 1962l132 250h327l-185 -250h-274zM542 1581q-76 0 -124.5 46t-48.5 118t48.5 118t124.5 46t124.5 -46t48.5 -118t-48.5 -118t-124.5 -46zM1044 1581q-76 0 -124.5 46t-48.5 118t48.5 118t124.5 46t125 -46t49 -118t-49 -118t-125 -46zM538 1443v-906
q0 -126 66.5 -196.5t188.5 -70.5t188 70t66 197v906h367v-945q0 -243 -170 -390t-451 -147t-451.5 147t-170.5 390v945h367z" />
    <glyph glyph-name="udieresisacute" unicode="&#x1d8;" horiz-adv-x="1369" 
d="M538 1666l215 326h324l-262 -326h-277zM429 1269q-76 0 -124.5 46t-48.5 118t48.5 118t124.5 46t124.5 -46t48.5 -118t-48.5 -118t-124.5 -46zM931 1269q-76 0 -124.5 46t-48.5 118t48.5 118t124.5 46t125 -46t49 -118t-49 -118t-125 -46zM1230 1113v-1113h-345v180h-19
q-38 -98 -125 -152t-206 -54q-184 0 -295.5 112t-111.5 307v720h353v-640q0 -101 52 -154.5t142 -53.5q89 0 145 57.5t56 154.5v636h354z" />
    <glyph glyph-name="Udieresiscaron" unicode="&#x1d9;" horiz-adv-x="1586" 
d="M542 1560q-75 0 -122.5 43.5t-47.5 111.5q0 67 47.5 111t122.5 44t122.5 -44t47.5 -111q0 -68 -47.5 -111.5t-122.5 -43.5zM1044 1560q-75 0 -122.5 43.5t-47.5 111.5q0 67 47.5 111t122.5 44t122.5 -44t47.5 -111q0 -68 -47.5 -111.5t-122.5 -43.5zM948 1929h-310
l-269 326h285l128 -178h22l128 178h285zM538 1443v-906q0 -126 66.5 -196.5t188.5 -70.5t188 70t66 197v906h367v-945q0 -243 -170 -390t-451 -147t-451.5 147t-170.5 390v945h367z" />
    <glyph glyph-name="udieresiscaron" unicode="&#x1da;" horiz-adv-x="1369" 
d="M449 1260q-71 0 -116.5 44.5t-45.5 110.5q0 68 45.5 112.5t116.5 44.5t116 -44.5t45 -112.5q0 -66 -45 -110.5t-116 -44.5zM911 1260q-71 0 -116 44.5t-45 110.5q0 68 45 112.5t116 44.5t116.5 -44.5t45.5 -112.5q0 -66 -45.5 -110.5t-116.5 -44.5zM835 1641h-310
l-267 356h279l133 -208h20l133 208h279zM1230 1113v-1113h-345v180h-19q-38 -98 -125 -152t-206 -54q-184 0 -295.5 112t-111.5 307v720h353v-640q0 -101 52 -154.5t142 -53.5q89 0 145 57.5t56 154.5v636h354z" />
    <glyph glyph-name="Udieresisgrave" unicode="&#x1db;" horiz-adv-x="1586" 
d="M934 1962h-274l-184 250h326zM542 1581q-76 0 -124.5 46t-48.5 118t48.5 118t124.5 46t124.5 -46t48.5 -118t-48.5 -118t-124.5 -46zM1044 1581q-76 0 -124.5 46t-48.5 118t48.5 118t124.5 46t125 -46t49 -118t-49 -118t-125 -46zM538 1443v-906q0 -126 66.5 -196.5
t188.5 -70.5t188 70t66 197v906h367v-945q0 -243 -170 -390t-451 -147t-451.5 147t-170.5 390v945h367z" />
    <glyph glyph-name="udieresisgrave" unicode="&#x1dc;" horiz-adv-x="1369" 
d="M822 1666h-277l-262 326h324zM429 1269q-76 0 -124.5 46t-48.5 118t48.5 118t124.5 46t124.5 -46t48.5 -118t-48.5 -118t-124.5 -46zM931 1269q-76 0 -124.5 46t-48.5 118t48.5 118t124.5 46t125 -46t49 -118t-49 -118t-125 -46zM1230 1113v-1113h-345v180h-19
q-38 -98 -125 -152t-206 -54q-184 0 -295.5 112t-111.5 307v720h353v-640q0 -101 52 -154.5t142 -53.5q89 0 145 57.5t56 154.5v636h354z" />
    <glyph glyph-name="Adieresismacron" unicode="&#x1de;" horiz-adv-x="1563" 
d="M1091 0l-90 317h-471l-93 -317h-364l484 1443h449l485 -1443h-400zM758 1118l-158 -537h332l-155 537h-19zM391 2021v183h782v-183h-782zM531 1581q-76 0 -124.5 45.5t-48.5 117.5t48.5 117.5t124.5 45.5t124 -45.5t48 -117.5t-48 -117.5t-124 -45.5zM1033 1581
q-76 0 -124 45.5t-48 117.5t48 117.5t124 45.5t124.5 -45.5t48.5 -117.5t-48.5 -117.5t-124.5 -45.5z" />
    <glyph glyph-name="adieresismacron" unicode="&#x1df;" horiz-adv-x="1248" 
d="M570 230q84 0 141.5 49t57.5 121v73l-187 -12q-78 -6 -119 -36t-41 -80q0 -53 40.5 -84t107.5 -31zM441 -17q-161 0 -260.5 92.5t-99.5 244.5t114.5 238.5t330.5 99.5l243 14v87q0 57 -40.5 88.5t-113.5 31.5q-141 0 -176 -90h-318q12 162 150 256t364 94q230 0 356 -100
t126 -280v-759h-344v138h-19q-37 -71 -122 -113t-191 -42zM405 1260q-71 0 -116.5 44.5t-45.5 110.5q0 68 45.5 112.5t116.5 44.5t116 -44.5t45 -112.5q0 -66 -45 -110.5t-116 -44.5zM867 1260q-71 0 -116 44.5t-45 110.5q0 68 45 112.5t116 44.5t116.5 -44.5t45.5 -112.5
q0 -66 -45.5 -110.5t-116.5 -44.5zM1020 1699h-768v198h768v-198z" />
    <glyph glyph-name="Adotmacron" unicode="&#x1e0;" horiz-adv-x="1563" 
d="M1091 0l-90 317h-471l-93 -317h-364l484 1443h449l485 -1443h-400zM758 1118l-158 -537h332l-155 537h-19zM782 1575q-78 0 -127 45.5t-49 115.5q0 69 49 114.5t127 45.5t127 -45.5t49 -114.5q0 -70 -49 -115.5t-127 -45.5zM1173 2021h-782v183h782v-183z" />
    <glyph glyph-name="adotmacron" unicode="&#x1e1;" horiz-adv-x="1248" 
d="M570 230q84 0 141.5 49t57.5 121v73l-187 -12q-78 -6 -119 -36t-41 -80q0 -53 40.5 -84t107.5 -31zM441 -17q-161 0 -260.5 92.5t-99.5 244.5t114.5 238.5t330.5 99.5l243 14v87q0 57 -40.5 88.5t-113.5 31.5q-141 0 -176 -90h-318q12 162 150 256t364 94q230 0 356 -100
t126 -280v-759h-344v138h-19q-37 -71 -122 -113t-191 -42zM636 1260q-74 0 -120.5 45.5t-46.5 114.5q0 71 46.5 117.5t120.5 46.5t120.5 -46.5t46.5 -117.5q0 -69 -46.5 -114.5t-120.5 -45.5zM1020 1699h-768v198h768v-198z" />
    <glyph glyph-name="AEmacron" unicode="&#x1e2;" horiz-adv-x="2108" 
d="M992 1167h-120l-217 -575h337v575zM992 0v327h-432l-125 -327h-362l566 1443h1326v-295h-646v-290h609v-270h-609v-293h646v-295h-973zM1958 1637h-782v198h782v-198z" />
    <glyph glyph-name="aemacron" unicode="&#x1e3;" horiz-adv-x="1929" 
d="M1330 -26q-131 0 -235 49t-160 136h-19q-68 -86 -173.5 -135.5t-232.5 -49.5q-196 0 -312.5 96.5t-116.5 249.5q0 152 114.5 238.5t330.5 99.5l243 14v87q0 57 -40.5 88.5t-113.5 31.5q-141 0 -176 -90h-318q11 153 141.5 251.5t325.5 98.5q249 0 362 -148h19
q63 69 154.5 108.5t200.5 39.5q235 0 373 -151t138 -406v-104h-735v-29q2 -101 63 -162t160 -61q134 0 185 102h320q-29 -161 -164.5 -257.5t-333.5 -96.5zM1302 888q-87 0 -143 -57.5t-59 -150.5h395q-5 94 -58 151t-135 57zM573 225q82 0 139 52t57 125v71l-187 -12
q-78 -6 -119 -36.5t-41 -82.5q0 -54 41 -85.5t110 -31.5zM1389 1327h-768v198h768v-198z" />
    <glyph glyph-name="Gcaron" unicode="&#x1e6;" horiz-adv-x="1572" 
d="M954 1598h-302l-271 326h280l131 -173h22l131 173h280zM1468 601q0 -298 -174.5 -469t-480.5 -171q-333 0 -522 203t-189 559q0 352 188 555.5t513 203.5q264 0 443.5 -140.5t206.5 -369.5h-362q-27 95 -103.5 149.5t-184.5 54.5q-154 0 -240.5 -119t-86.5 -330
q0 -213 93.5 -336.5t251.5 -123.5q125 0 205 67t87 177l1 24h-264v252h618v-186z" />
    <glyph glyph-name="gcaron" unicode="&#x1e7;" horiz-adv-x="1360" 
d="M839 1260h-338l-271 359h297l133 -202h19l134 202h297zM871 563q0 135 -57.5 212t-158.5 77q-100 0 -156.5 -77t-56.5 -211t56 -211t157 -77q102 0 159 76.5t57 210.5zM645 -419q-232 0 -377 91.5t-156 241.5h344q10 -45 63 -71.5t136 -26.5q102 0 158 45.5t56 128.5v201
h-19q-87 -175 -328 -175q-204 0 -323.5 147.5t-119.5 399.5q0 263 120.5 415t330.5 152q111 0 199 -52.5t130 -143.5h19v179h345v-1100q0 -199 -156 -315.5t-422 -116.5z" />
    <glyph glyph-name="Kcaron" unicode="&#x1e8;" horiz-adv-x="1507" 
d="M537 0h-367v1443h367v-620h19l480 620h394l-499 -637l528 -806h-431l-364 569l-127 -161v-408zM878 1596h-302l-271 326h280l131 -173h22l131 173h280z" />
    <glyph glyph-name="kcaron" unicode="&#x1e9;" horiz-adv-x="1295" 
d="M520 697l316 416h396l-397 -478l424 -635h-412l-278 426l-68 -77v-349h-353v1530h353v-833h19zM475 1683h-302l-271 326h280l131 -173h22l131 173h280z" />
    <glyph glyph-name="Oogonek" unicode="&#x1ea;" horiz-adv-x="1626" 
d="M995 -483q-117 0 -188 59.5t-71 158.5q0 134 113 217v19q-17 -5 -41 -5q-327 0 -516.5 202.5t-189.5 552.5t192 555.5t520 205.5t519 -205t191 -557q0 -109 -19 -202t-51.5 -159.5t-74 -122.5t-88 -96t-93 -74.5l-88 -63.5t-74 -57t-51.5 -61t-19 -71q0 -47 32 -74.5
t88 -27.5q35 0 74 9v-176q-64 -27 -165 -27zM814 1178q-153 0 -245.5 -124.5t-92.5 -332.5q0 -207 92 -331.5t246 -124.5q153 0 245 124.5t92 332.5q0 207 -92 331.5t-245 124.5z" />
    <glyph glyph-name="oogonek" unicode="&#x1eb;" horiz-adv-x="1300" 
d="M793 -483q-117 0 -188.5 61.5t-71.5 160.5q0 125 117 218v19q-7 -1 -19 -1q-260 3 -404 156t-144 427q0 269 152 425t415 156q264 0 415.5 -155t151.5 -426q0 -328 -223 -493q-136 -102 -183.5 -155t-47.5 -104q0 -43 32.5 -69t85.5 -26q34 0 76 9v-176q-68 -27 -164 -27
zM650 244q97 0 150.5 82t53.5 231q0 146 -54 229t-150 83t-150 -83t-54 -229q0 -149 53.5 -231t150.5 -82z" />
    <glyph glyph-name="Oogonekmacron" unicode="&#x1ec;" horiz-adv-x="1626" 
d="M995 -483q-117 0 -188 59.5t-71 158.5q0 134 113 217v19q-17 -5 -41 -5q-327 0 -516.5 202.5t-189.5 552.5t192 555.5t520 205.5t519 -205t191 -557q0 -109 -19 -202t-51.5 -159.5t-74 -122.5t-88 -96t-93 -74.5l-88 -63.5t-74 -57t-51.5 -61t-19 -71q0 -47 32 -74.5
t88 -27.5q35 0 74 9v-176q-64 -27 -165 -27zM814 1178q-153 0 -245.5 -124.5t-92.5 -332.5q0 -207 92 -331.5t246 -124.5q153 0 245 124.5t92 332.5q0 207 -92 331.5t-245 124.5zM1205 1637h-782v198h782v-198z" />
    <glyph glyph-name="oogonekmacron" unicode="&#x1ed;" horiz-adv-x="1300" 
d="M793 -483q-117 0 -188.5 61.5t-71.5 160.5q0 125 117 218v19q-7 -1 -19 -1q-260 3 -404 156t-144 427q0 269 152 425t415 156q264 0 415.5 -155t151.5 -426q0 -328 -223 -493q-136 -102 -183.5 -155t-47.5 -104q0 -43 32.5 -69t85.5 -26q34 0 76 9v-176q-68 -27 -164 -27
zM650 244q97 0 150.5 82t53.5 231q0 146 -54 229t-150 83t-150 -83t-54 -229q0 -149 53.5 -231t150.5 -82zM1034 1327h-768v198h768v-198z" />
    <glyph glyph-name="u01F1" unicode="&#x1f1;" horiz-adv-x="2967" 
d="M1698 0v233l677 896v19h-666v295h1106v-233l-677 -896v-19h698v-295h-1138zM170 1444h606q322 0 498.5 -185t176.5 -523q0 -355 -174.5 -545.5t-500.5 -190.5h-606v1444zM537 1149v-854h173q179 0 273 110t94 324q0 201 -96.5 310.5t-270.5 109.5h-173z" />
    <glyph glyph-name="u01F2" unicode="&#x1f2;" horiz-adv-x="2758" 
d="M1680 0v189l524 639v19h-512v266h936v-217l-477 -611v-19h495v-266h-966zM170 1444h606q322 0 498.5 -185t176.5 -523q0 -355 -174.5 -545.5t-500.5 -190.5h-606v1444zM537 1149v-854h173q179 0 273 110t94 324q0 201 -96.5 310.5t-270.5 109.5h-173z" />
    <glyph glyph-name="u01F3" unicode="&#x1f3;" horiz-adv-x="2577" 
d="M1500 0v189l524 639v19h-512v266h936v-217l-477 -611v-19h495v-266h-966zM530 -17q-209 0 -328 153.5t-119 422.5q0 266 119.5 418.5t327.5 152.5q112 0 197.5 -52t126.5 -144h19v596h354v-1530h-345v174h-19q-41 -90 -129 -140.5t-204 -50.5zM660 852q-100 0 -157 -78.5
t-57 -216.5q0 -139 56.5 -217.5t157.5 -78.5t158 78.5t57 216.5t-57.5 217t-157.5 79z" />
    <glyph glyph-name="Gacute" unicode="&#x1f4;" horiz-adv-x="1572" 
d="M644 1598l258 326h362l-304 -326h-316zM1468 601q0 -298 -174.5 -469t-480.5 -171q-333 0 -522 203t-189 559q0 352 188 555.5t513 203.5q264 0 443.5 -140.5t206.5 -369.5h-362q-27 95 -103.5 149.5t-184.5 54.5q-154 0 -240.5 -119t-86.5 -330q0 -213 93.5 -336.5
t251.5 -123.5q125 0 205 67t87 177l1 24h-264v252h618v-186z" />
    <glyph glyph-name="gacute" unicode="&#x1f5;" horiz-adv-x="1360" 
d="M494 1288l245 359h356l-292 -359h-309zM871 563q0 135 -57.5 212t-158.5 77q-100 0 -156.5 -77t-56.5 -211t56 -211t157 -77q102 0 159 76.5t57 210.5zM645 -419q-232 0 -377 91.5t-156 241.5h344q10 -45 63 -71.5t136 -26.5q102 0 158 45.5t56 128.5v201h-19
q-87 -175 -328 -175q-204 0 -323.5 147.5t-119.5 399.5q0 263 120.5 415t330.5 152q111 0 199 -52.5t130 -143.5h19v179h345v-1100q0 -199 -156 -315.5t-422 -116.5z" />
    <glyph glyph-name="Ngrave" unicode="&#x1f8;" horiz-adv-x="1601" 
d="M713 1922l258 -326h-314l-306 326h362zM518 0h-348v1443h293l601 -812h19v812h348v-1443h-291l-603 820h-19v-820z" />
    <glyph glyph-name="ngrave" unicode="&#x1f9;" horiz-adv-x="1359" 
d="M866 1288h-309l-292 359h356zM138 0v1113h344v-181h19q37 95 129.5 151t212.5 56q186 0 287.5 -110t101.5 -310v-719h-354v640q0 101 -48.5 155.5t-138.5 54.5q-89 0 -144.5 -59t-55.5 -155v-636h-353z" />
    <glyph glyph-name="Aringacute" unicode="&#x1fa;" horiz-adv-x="1563" 
d="M1091 0l-90 317h-471l-93 -317h-364l484 1443h449l485 -1443h-400zM758 1118l-158 -537h332l-155 537h-19zM758 1798q-24 -10 -32.5 -32.5t1.5 -45.5q10 -24 32.5 -32.5t46.5 2.5q24 10 32.5 32.5t-1.5 45.5q-10 24 -32.5 32.5t-46.5 -2.5zM783 1530q-97 0 -160.5 61
t-63.5 155q0 93 63 152.5t161 59.5q96 0 159 -59.5t63 -152.5q0 -94 -63 -155t-159 -61zM731 2230h305l-115 -195h-277z" />
    <glyph glyph-name="aringacute" unicode="&#x1fb;" horiz-adv-x="1248" 
d="M570 230q84 0 141.5 49t57.5 121v73l-187 -12q-78 -6 -119 -36t-41 -80q0 -53 40.5 -84t107.5 -31zM441 -17q-161 0 -260.5 92.5t-99.5 244.5t114.5 238.5t330.5 99.5l243 14v87q0 57 -40.5 88.5t-113.5 31.5q-141 0 -176 -90h-318q12 162 150 256t364 94q230 0 356 -100
t126 -280v-759h-344v138h-19q-37 -71 -122 -113t-191 -42zM636 1221q-105 0 -172.5 65.5t-67.5 166.5t67.5 166.5t172.5 65.5t172.5 -65.5t67.5 -166.5t-67.5 -166.5t-172.5 -65.5zM549 1453q0 -38 24.5 -62.5t62.5 -24.5t62.5 24.5t24.5 62.5q0 37 -24.5 61.5t-62.5 24.5
t-62.5 -24.5t-24.5 -61.5zM519 1760l156 241h279l-201 -241h-234z" />
    <glyph glyph-name="AEacute" unicode="&#x1fc;" horiz-adv-x="2108" 
d="M1408 1596l258 326h362l-304 -326h-316zM992 1167h-120l-217 -575h337v575zM992 0v327h-432l-125 -327h-362l566 1443h1326v-295h-646v-290h609v-270h-609v-293h646v-295h-973z" />
    <glyph glyph-name="aeacute" unicode="&#x1fd;" horiz-adv-x="1929" 
d="M829 1288l245 359h356l-292 -359h-309zM1330 -26q-131 0 -235 49t-160 136h-19q-68 -86 -173.5 -135.5t-232.5 -49.5q-196 0 -312.5 96.5t-116.5 249.5q0 152 114.5 238.5t330.5 99.5l243 14v87q0 57 -40.5 88.5t-113.5 31.5q-141 0 -176 -90h-318q11 153 141.5 251.5
t325.5 98.5q249 0 362 -148h19q63 69 154.5 108.5t200.5 39.5q235 0 373 -151t138 -406v-104h-735v-29q2 -101 63 -162t160 -61q134 0 185 102h320q-29 -161 -164.5 -257.5t-333.5 -96.5zM1302 888q-87 0 -143 -57.5t-59 -150.5h395q-5 94 -58 151t-135 57zM573 225
q82 0 139 52t57 125v71l-187 -12q-78 -6 -119 -36.5t-41 -82.5q0 -54 41 -85.5t110 -31.5z" />
    <glyph glyph-name="Oslashacute" unicode="&#x1fe;" horiz-adv-x="1614" 
d="M1303 1922l-304 -326h-316l258 326h362zM1072 1035l-438 -713q77 -57 180 -57q153 0 245 124t92 333q0 190 -79 313zM549 417l434 711q-75 50 -169 50q-153 0 -245.5 -124t-92.5 -332q0 -185 73 -305zM1332 1459l-71 -116q127 -99 195 -257.5t68 -363.5
q0 -352 -192 -556.5t-518 -204.5q-201 0 -353 79l-72 -117l-103 62l73 120q-124 99 -190.5 256.5t-66.5 360.5q0 351 193 555.5t519 204.5q192 0 340 -73l65 106z" />
    <glyph glyph-name="oslashacute" unicode="&#x1ff;" horiz-adv-x="1300" 
d="M1070 1647l-292 -359h-309l245 359h356zM833 713l-270 -448q37 -21 87 -21q97 0 150.5 82t53.5 231q0 90 -21 156zM480 361l282 469q-48 39 -112 39q-96 0 -150 -83t-54 -229q0 -117 34 -196zM1089 1137l-68 -113q196 -156 196 -467q0 -275 -149.5 -429t-417.5 -154
q-131 0 -239 40l-61 -101l-103 61l57 95q-107 73 -164 197.5t-57 290.5q0 270 152 426t415 156q149 0 267 -52l64 107z" />
    <glyph glyph-name="Adblgrave" unicode="&#x200;" horiz-adv-x="1563" 
d="M1091 0l-90 317h-471l-93 -317h-364l484 1443h449l485 -1443h-400zM758 1118l-158 -537h332l-155 537h-19zM694 1596h-266l-248 326h293zM1143 1596h-265l-249 326h293z" />
    <glyph glyph-name="adblgrave" unicode="&#x201;" horiz-adv-x="1248" 
d="M570 230q84 0 141.5 49t57.5 121v73l-187 -12q-78 -6 -119 -36t-41 -80q0 -53 40.5 -84t107.5 -31zM441 -17q-161 0 -260.5 92.5t-99.5 244.5t114.5 238.5t330.5 99.5l243 14v87q0 57 -40.5 88.5t-113.5 31.5q-141 0 -176 -90h-318q12 162 150 256t364 94q230 0 356 -100
t126 -280v-759h-344v138h-19q-37 -71 -122 -113t-191 -42zM548 1288h-254l-221 359h284zM1003 1288h-254l-221 359h284z" />
    <glyph glyph-name="Ainvertedbreve" unicode="&#x202;" horiz-adv-x="1563" 
d="M1091 0l-90 317h-471l-93 -317h-364l484 1443h449l485 -1443h-400zM758 1118l-158 -537h332l-155 537h-19zM364 1581q0 157 113.5 254t304.5 97t304.5 -97t113.5 -254h-236q-2 74 -51 117.5t-131 43.5t-131 -43.5t-51 -117.5h-236z" />
    <glyph glyph-name="ainvertedbreve" unicode="&#x203;" horiz-adv-x="1248" 
d="M570 230q84 0 141.5 49t57.5 121v73l-187 -12q-78 -6 -119 -36t-41 -80q0 -53 40.5 -84t107.5 -31zM441 -17q-161 0 -260.5 92.5t-99.5 244.5t114.5 238.5t330.5 99.5l243 14v87q0 57 -40.5 88.5t-113.5 31.5q-141 0 -176 -90h-318q12 162 150 256t364 94q230 0 356 -100
t126 -280v-759h-344v138h-19q-37 -71 -122 -113t-191 -42zM218 1260q0 160 113 260t305 100t305 -100t113 -260h-236q-2 78 -51 124t-131 46t-131 -46t-51 -124h-236z" />
    <glyph glyph-name="Edblgrave" unicode="&#x204;" horiz-adv-x="1302" 
d="M577 1596h-266l-248 326h293zM1026 1596h-265l-249 326h293zM1159 295v-295h-989v1443h989v-295h-622v-288h585v-270h-585v-295h622z" />
    <glyph glyph-name="edblgrave" unicode="&#x205;" horiz-adv-x="1262" 
d="M639 888q-87 0 -143 -56.5t-63 -150.5h404q-4 97 -56.5 152t-141.5 55zM850 328h323q-29 -163 -172 -258.5t-359 -95.5q-266 0 -412.5 150.5t-146.5 424.5q0 275 147.5 432.5t406.5 157.5q257 0 400 -148.5t143 -414.5v-98h-749v-18q2 -109 61 -172t160 -63
q77 0 128.5 27t69.5 76zM549 1288h-254l-221 359h284zM1004 1288h-254l-221 359h284z" />
    <glyph glyph-name="Einvertedbreve" unicode="&#x206;" horiz-adv-x="1302" 
d="M1159 295v-295h-989v1443h989v-295h-622v-288h585v-270h-585v-295h622zM247 1581q0 157 113.5 254t304.5 97t304.5 -97t113.5 -254h-236q-2 74 -51 117.5t-131 43.5t-131 -43.5t-51 -117.5h-236z" />
    <glyph glyph-name="einvertedbreve" unicode="&#x207;" horiz-adv-x="1262" 
d="M639 888q-87 0 -143 -56.5t-63 -150.5h404q-4 97 -56.5 152t-141.5 55zM850 328h323q-29 -163 -172 -258.5t-359 -95.5q-266 0 -412.5 150.5t-146.5 424.5q0 275 147.5 432.5t406.5 157.5q257 0 400 -148.5t143 -414.5v-98h-749v-18q2 -109 61 -172t160 -63
q77 0 128.5 27t69.5 76zM219 1260q0 160 113 260t305 100t305 -100t113 -260h-236q-2 78 -51 124t-131 46t-131 -46t-51 -124h-236z" />
    <glyph glyph-name="Idblgrave" unicode="&#x208;" horiz-adv-x="707" 
d="M537 0h-367v1443h367v-1443zM265 1596h-266l-248 326h293zM714 1596h-265l-249 326h293z" />
    <glyph glyph-name="idblgrave" unicode="&#x209;" horiz-adv-x="634" 
d="M140 0v1113h354v-1113h-354zM229 1288h-254l-221 359h284zM684 1288h-254l-221 359h284z" />
    <glyph glyph-name="Iinvertedbreve" unicode="&#x20a;" horiz-adv-x="707" 
d="M537 0h-367v1443h367v-1443zM-65 1581q0 157 113.5 254t304.5 97t304.5 -97t113.5 -254h-236q-2 74 -51 117.5t-131 43.5t-131 -43.5t-51 -117.5h-236z" />
    <glyph glyph-name="iinvertedbreve" unicode="&#x20b;" horiz-adv-x="634" 
d="M140 0v1113h354v-1113h-354zM-101 1260q0 160 113 260t305 100t305 -100t113 -260h-236q-2 78 -51 124t-131 46t-131 -46t-51 -124h-236z" />
    <glyph glyph-name="Odblgrave" unicode="&#x20c;" horiz-adv-x="1626" 
d="M726 1596h-266l-248 326h293zM1175 1596h-265l-249 326h293zM814 1482q326 0 518 -204.5t192 -555.5q0 -352 -192 -556.5t-518 -204.5q-328 0 -520 204.5t-192 556.5q0 351 193 555.5t519 204.5zM814 1178q-153 0 -245.5 -124t-92.5 -332q0 -209 92 -333t246 -124
q153 0 245 124t92 333q0 208 -92.5 332t-244.5 124z" />
    <glyph glyph-name="odblgrave" unicode="&#x20d;" horiz-adv-x="1300" 
d="M650 244q97 0 150.5 82t53.5 231q0 146 -54 229t-150 83t-150 -83t-54 -229q0 -149 53.5 -231t150.5 -82zM650 -26q-267 0 -417 154t-150 429q0 270 152 426t415 156q264 0 415.5 -155.5t151.5 -426.5q0 -275 -149.5 -429t-417.5 -154zM562 1288h-254l-221 359h284z
M1017 1288h-254l-221 359h284z" />
    <glyph glyph-name="Oinvertedbreve" unicode="&#x20e;" horiz-adv-x="1626" 
d="M396 1581q0 157 113.5 254t304.5 97t304.5 -97t113.5 -254h-236q-2 74 -51 117.5t-131 43.5t-131 -43.5t-51 -117.5h-236zM814 1482q326 0 518 -204.5t192 -555.5q0 -352 -192 -556.5t-518 -204.5q-328 0 -520 204.5t-192 556.5q0 351 193 555.5t519 204.5zM814 1178
q-153 0 -245.5 -124t-92.5 -332q0 -209 92 -333t246 -124q153 0 245 124t92 333q0 208 -92.5 332t-244.5 124z" />
    <glyph glyph-name="oinvertedbreve" unicode="&#x20f;" horiz-adv-x="1300" 
d="M650 244q97 0 150.5 82t53.5 231q0 146 -54 229t-150 83t-150 -83t-54 -229q0 -149 53.5 -231t150.5 -82zM650 -26q-267 0 -417 154t-150 429q0 270 152 426t415 156q264 0 415.5 -155.5t151.5 -426.5q0 -275 -149.5 -429t-417.5 -154zM232 1260q0 160 113 260t305 100
t305 -100t113 -260h-236q-2 78 -51 124t-131 46t-131 -46t-51 -124h-236z" />
    <glyph glyph-name="Rdblgrave" unicode="&#x210;" horiz-adv-x="1466" 
d="M587 1596h-266l-248 326h293zM1036 1596h-265l-249 326h293zM537 1166v-402h217q101 0 158 53t57 147q0 92 -59 147t-157 55h-216zM537 505v-505h-367v1443h635q253 0 396 -126.5t143 -349.5q0 -136 -65 -246.5t-181 -161.5l288 -559h-412l-247 505h-190z" />
    <glyph glyph-name="rdblgrave" unicode="&#x211;" horiz-adv-x="941" 
d="M138 0v1113h344v-183h19q21 86 96 143t174 57q83 0 125 -17v-301q-19 8 -66.5 14t-82.5 6q-117 0 -186.5 -64t-69.5 -179v-589h-353zM397 1288h-254l-221 359h284zM852 1288h-254l-221 359h284z" />
    <glyph glyph-name="Rinvertedbreve" unicode="&#x212;" horiz-adv-x="1466" 
d="M537 1166v-402h217q101 0 158 53t57 147q0 92 -59 147t-157 55h-216zM537 505v-505h-367v1443h635q253 0 396 -126.5t143 -349.5q0 -136 -65 -246.5t-181 -161.5l288 -559h-412l-247 505h-190zM257 1581q0 157 113.5 254t304.5 97t304.5 -97t113.5 -254h-236
q-2 74 -51 117.5t-131 43.5t-131 -43.5t-51 -117.5h-236z" />
    <glyph glyph-name="rinvertedbreve" unicode="&#x213;" horiz-adv-x="941" 
d="M138 0v1113h344v-183h19q21 86 96 143t174 57q83 0 125 -17v-301q-19 8 -66.5 14t-82.5 6q-117 0 -186.5 -64t-69.5 -179v-589h-353zM67 1260q0 160 113 260t305 100t305 -100t113 -260h-236q-2 78 -51 124t-131 46t-131 -46t-51 -124h-236z" />
    <glyph glyph-name="Udblgrave" unicode="&#x214;" horiz-adv-x="1586" 
d="M705 1596h-266l-248 326h293zM1154 1596h-265l-249 326h293zM538 1443v-906q0 -126 66.5 -196.5t188.5 -70.5t188 70t66 197v906h367v-945q0 -243 -170 -390t-451 -147t-451.5 147t-170.5 390v945h367z" />
    <glyph glyph-name="udblgrave" unicode="&#x215;" horiz-adv-x="1369" 
d="M1230 1113v-1113h-345v180h-19q-38 -98 -125 -152t-206 -54q-184 0 -295.5 112t-111.5 307v720h353v-640q0 -101 52 -154.5t142 -53.5q89 0 145 57.5t56 154.5v636h354zM592 1288h-254l-221 359h284zM1047 1288h-254l-221 359h284z" />
    <glyph glyph-name="Uinvertedbreve" unicode="&#x216;" horiz-adv-x="1586" 
d="M538 1443v-906q0 -126 66.5 -196.5t188.5 -70.5t188 70t66 197v906h367v-945q0 -243 -170 -390t-451 -147t-451.5 147t-170.5 390v945h367zM375 1581q0 157 113.5 254t304.5 97t304.5 -97t113.5 -254h-236q-2 74 -51 117.5t-131 43.5t-131 -43.5t-51 -117.5h-236z" />
    <glyph glyph-name="uinvertedbreve" unicode="&#x217;" horiz-adv-x="1369" 
d="M1230 1113v-1113h-345v180h-19q-38 -98 -125 -152t-206 -54q-184 0 -295.5 112t-111.5 307v720h353v-640q0 -101 52 -154.5t142 -53.5q89 0 145 57.5t56 154.5v636h354zM262 1260q0 160 113 260t305 100t305 -100t113 -260h-236q-2 78 -51 124t-131 46t-131 -46t-51 -124
h-236z" />
    <glyph glyph-name="Scommaaccent" unicode="&#x218;" horiz-adv-x="1423" 
d="M107 411h350q7 -79 79.5 -125.5t186.5 -46.5q103 0 167 45t64 116q0 60 -52 95.5t-176 60.5l-190 38q-198 37 -299 144t-101 277q0 212 156.5 339.5t417.5 127.5q253 0 413 -125t165 -325h-339q-6 76 -71.5 124.5t-162.5 48.5t-155.5 -42.5t-58.5 -114.5q0 -59 51 -96
t165 -59l186 -36q214 -41 313.5 -141t99.5 -272q0 -226 -162 -354.5t-446 -128.5q-274 0 -435.5 121t-165.5 329zM697 -505h-306l148 350h351z" />
    <glyph glyph-name="scommaaccent" unicode="&#x219;" horiz-adv-x="1206" 
d="M113 778q0 166 132 263.5t357 97.5q231 0 355.5 -87.5t134.5 -255.5h-322q-8 49 -51 76.5t-114 27.5q-69 0 -112.5 -27.5t-43.5 -72.5q0 -35 30.5 -57.5t97.5 -36.5l230 -47q165 -35 239.5 -107.5t74.5 -198.5q0 -173 -140 -276t-374 -103q-239 0 -372.5 88.5
t-148.5 256.5h341q28 -106 185 -106q73 0 116.5 27t43.5 72q0 35 -27.5 56t-94.5 35l-207 44q-330 70 -330 331zM596 -505h-306l148 350h351z" />
    <glyph glyph-name="Tcommaaccent" unicode="&#x21a;" horiz-adv-x="1381" 
d="M675 -505h-306l148 350h351zM873 0h-366v1148h-416v295h1199v-295h-417v-1148z" />
    <glyph glyph-name="tcommaaccent" unicode="&#x21b;" horiz-adv-x="898" 
d="M509 -505h-306l148 350h351zM226 1365h353v-267h227v-263h-227v-451q0 -125 135 -125q46 0 89 5v-252q-67 -14 -169 -14q-219 0 -313.5 71.5t-94.5 235.5v530h-172v263h172v267z" />
    <glyph glyph-name="Hcaron" unicode="&#x21e;" horiz-adv-x="1648" 
d="M1478 0h-366v582h-575v-582h-367v1443h367v-566h575v566h366v-1443zM975 1596h-302l-271 326h280l131 -173h22l131 173h280z" />
    <glyph glyph-name="hcaron" unicode="&#x21f;" horiz-adv-x="1383" 
d="M148 0v1530h346v-602h19q36 95 131 150.5t216 55.5q186 0 290.5 -109t104.5 -310v-715h-354v635q0 102 -51 156.5t-142 54.5t-149 -59.5t-58 -155.5v-631h-353zM472 1683h-302l-271 326h280l131 -173h22l131 173h280z" />
    <glyph glyph-name="Adotaccent" unicode="&#x226;" horiz-adv-x="1563" 
d="M1091 0l-90 317h-471l-93 -317h-364l484 1443h449l485 -1443h-400zM758 1118l-158 -537h332l-155 537h-19zM782 1581q-79 0 -128 48.5t-49 123.5t49 123.5t128 48.5q78 0 127 -48.5t49 -123.5t-49 -123.5t-127 -48.5z" />
    <glyph glyph-name="adotaccent" unicode="&#x227;" horiz-adv-x="1248" 
d="M570 230q84 0 141.5 49t57.5 121v73l-187 -12q-78 -6 -119 -36t-41 -80q0 -53 40.5 -84t107.5 -31zM441 -17q-161 0 -260.5 92.5t-99.5 244.5t114.5 238.5t330.5 99.5l243 14v87q0 57 -40.5 88.5t-113.5 31.5q-141 0 -176 -90h-318q12 162 150 256t364 94q230 0 356 -100
t126 -280v-759h-344v138h-19q-37 -71 -122 -113t-191 -42zM636 1274q-79 0 -128.5 49t-49.5 124q0 76 49.5 125t128.5 49t128.5 -49t49.5 -125q0 -75 -49.5 -124t-128.5 -49z" />
    <glyph glyph-name="Ecedilla" unicode="&#x228;" horiz-adv-x="1302" 
d="M1159 1148h-622v-288h585v-270h-585v-295h622v-295h-387l-42 -101q91 -7 138.5 -53.5t47.5 -128.5q0 -101 -72.5 -155.5t-206.5 -54.5q-90 0 -148 17v145q35 -14 113 -14q108 0 108 53q0 28 -28.5 40.5t-91.5 12.5h-61v127l47 112h-406v1443h989v-295z" />
    <glyph glyph-name="ecedilla" unicode="&#x229;" horiz-adv-x="1262" 
d="M433 681h404q-4 97 -56.5 152t-141.5 55q-87 0 -143 -56.5t-63 -150.5zM1180 478h-749v-18q2 -109 61 -172t160 -63q77 0 128.5 27t69.5 76h323q-25 -143 -140 -235t-292 -113l-34 -81q91 -7 138.5 -53.5t47.5 -128.5q0 -101 -72.5 -155.5t-206.5 -54.5q-90 0 -148 17
v145q35 -14 113 -14q108 0 108 53q0 28 -28.5 40.5t-91.5 12.5h-61v127l39 92q-222 26 -342 174t-120 395q0 275 147.5 432.5t406.5 157.5q257 0 400 -148.5t143 -414.5v-98z" />
    <glyph glyph-name="Odieresismacron" unicode="&#x22a;" horiz-adv-x="1626" 
d="M814 1482q326 0 518 -204.5t192 -555.5q0 -352 -192 -556.5t-518 -204.5q-328 0 -520 204.5t-192 556.5q0 351 193 555.5t519 204.5zM814 1178q-153 0 -245.5 -124t-92.5 -332q0 -209 92 -333t246 -124q153 0 245 124t92 333q0 208 -92.5 332t-244.5 124zM423 2021v183
h782v-183h-782zM563 1581q-76 0 -124.5 45.5t-48.5 117.5t48.5 117.5t124.5 45.5t124 -45.5t48 -117.5t-48 -117.5t-124 -45.5zM1065 1581q-76 0 -124 45.5t-48 117.5t48 117.5t124 45.5t124.5 -45.5t48.5 -117.5t-48.5 -117.5t-124.5 -45.5z" />
    <glyph glyph-name="odieresismacron" unicode="&#x22b;" horiz-adv-x="1300" 
d="M419 1260q-71 0 -116.5 44.5t-45.5 110.5q0 68 45.5 112.5t116.5 44.5t116 -44.5t45 -112.5q0 -66 -45 -110.5t-116 -44.5zM881 1260q-71 0 -116 44.5t-45 110.5q0 68 45 112.5t116 44.5t116.5 -44.5t45.5 -112.5q0 -66 -45.5 -110.5t-116.5 -44.5zM1034 1699h-768v198
h768v-198zM650 244q97 0 150.5 82t53.5 231q0 146 -54 229t-150 83t-150 -83t-54 -229q0 -149 53.5 -231t150.5 -82zM650 -26q-267 0 -417 154t-150 429q0 270 152 426t415 156q264 0 415.5 -155.5t151.5 -426.5q0 -275 -149.5 -429t-417.5 -154z" />
    <glyph glyph-name="Otildemacron" unicode="&#x22c;" horiz-adv-x="1626" 
d="M1205 2008h-782v196h782v-196zM975 1581q-53 0 -98 18.5t-71 40t-58 40t-62 18.5q-78 0 -82 -109h-209q0 143 72 222t186 79q53 0 98 -18.5t71 -40t58 -40t62 -18.5q78 0 82 105h209q0 -140 -72 -218.5t-186 -78.5zM814 1482q326 0 518 -204.5t192 -555.5
q0 -352 -192 -556.5t-518 -204.5q-328 0 -520 204.5t-192 556.5q0 351 193 555.5t519 204.5zM814 1178q-153 0 -245.5 -124t-92.5 -332q0 -209 92 -333t246 -124q153 0 245 124t92 333q0 208 -92.5 332t-244.5 124z" />
    <glyph glyph-name="otildemacron" unicode="&#x22d;" horiz-adv-x="1300" 
d="M511 1400q-38 0 -60 -36t-24 -100h-210q0 149 76.5 241t200.5 92q40 0 76.5 -14.5t61.5 -34.5t47.5 -40.5t45 -35t43.5 -14.5q38 0 60 34t23 97h210q0 -147 -76 -238t-200 -91q-49 0 -93.5 22t-70 48t-55.5 48t-55 22zM1034 1701h-768v198h768v-198zM650 244
q97 0 150.5 82t53.5 231q0 146 -54 229t-150 83t-150 -83t-54 -229q0 -149 53.5 -231t150.5 -82zM650 -26q-267 0 -417 154t-150 429q0 270 152 426t415 156q264 0 415.5 -155.5t151.5 -426.5q0 -275 -149.5 -429t-417.5 -154z" />
    <glyph glyph-name="Odotaccent" unicode="&#x22e;" horiz-adv-x="1626" 
d="M814 1581q-79 0 -128 48.5t-49 123.5t49 123.5t128 48.5q78 0 127 -48.5t49 -123.5t-49 -123.5t-127 -48.5zM814 1482q326 0 518 -204.5t192 -555.5q0 -352 -192 -556.5t-518 -204.5q-328 0 -520 204.5t-192 556.5q0 351 193 555.5t519 204.5zM814 1178
q-153 0 -245.5 -124t-92.5 -332q0 -209 92 -333t246 -124q153 0 245 124t92 333q0 208 -92.5 332t-244.5 124z" />
    <glyph glyph-name="odotaccent" unicode="&#x22f;" horiz-adv-x="1300" 
d="M650 1274q-79 0 -128.5 49t-49.5 124q0 76 49.5 125t128.5 49t128.5 -49t49.5 -125q0 -75 -49.5 -124t-128.5 -49zM650 244q97 0 150.5 82t53.5 231q0 146 -54 229t-150 83t-150 -83t-54 -229q0 -149 53.5 -231t150.5 -82zM650 -26q-267 0 -417 154t-150 429
q0 270 152 426t415 156q264 0 415.5 -155.5t151.5 -426.5q0 -275 -149.5 -429t-417.5 -154z" />
    <glyph glyph-name="Odotaccentmacron" unicode="&#x230;" horiz-adv-x="1626" 
d="M814 1575q-78 0 -127 45.5t-49 115.5q0 69 49 114.5t127 45.5t127 -45.5t49 -114.5q0 -70 -49 -115.5t-127 -45.5zM1205 2021h-782v183h782v-183zM814 1482q326 0 518 -204.5t192 -555.5q0 -352 -192 -556.5t-518 -204.5q-328 0 -520 204.5t-192 556.5q0 351 193 555.5
t519 204.5zM814 1178q-153 0 -245.5 -124t-92.5 -332q0 -209 92 -333t246 -124q153 0 245 124t92 333q0 208 -92.5 332t-244.5 124z" />
    <glyph glyph-name="odotaccentmacron" unicode="&#x231;" horiz-adv-x="1300" 
d="M650 244q97 0 150.5 82t53.5 231q0 146 -54 229t-150 83t-150 -83t-54 -229q0 -149 53.5 -231t150.5 -82zM650 -26q-267 0 -417 154t-150 429q0 270 152 426t415 156q264 0 415.5 -155.5t151.5 -426.5q0 -275 -149.5 -429t-417.5 -154zM650 1260q-74 0 -120.5 45.5
t-46.5 114.5q0 71 46.5 117.5t120.5 46.5t120.5 -46.5t46.5 -117.5q0 -69 -46.5 -114.5t-120.5 -45.5zM1034 1699h-768v198h768v-198z" />
    <glyph glyph-name="Ymacron" unicode="&#x232;" horiz-adv-x="1508" 
d="M937 0h-366v496l-498 947h391l281 -589h19l279 589h391l-497 -947v-496zM1146 1637h-782v198h782v-198z" />
    <glyph glyph-name="ymacron" unicode="&#x233;" horiz-adv-x="1282" 
d="M298 -407q-124 0 -129 1v269q5 -1 62 -1q176 0 194 98l5 31l-380 1122h391l199 -816h19l199 816h374l-358 -1111q-71 -222 -203.5 -315.5t-372.5 -93.5zM1034 1327h-768v198h768v-198z" />
    <glyph glyph-name="dotlessj" unicode="&#x237;" horiz-adv-x="631" 
d="M492 1113v-1127q0 -169 -109 -259.5t-313 -90.5q-65 0 -103 4v253q20 -2 42 -2q69 0 99 25.5t30 82.5v1114h354z" />
    <glyph glyph-name="circumflex" unicode="&#x2c6;" horiz-adv-x="1102" 
d="M720 1619l271 -359h-297l-134 202h-19l-133 -202h-297l271 359h338z" />
    <glyph glyph-name="caron" unicode="&#x2c7;" horiz-adv-x="1102" 
d="M720 1260h-338l-271 359h297l133 -202h19l134 202h297z" />
    <glyph glyph-name="breve" unicode="&#x2d8;" horiz-adv-x="1048" 
d="M106 1620h236q2 -78 51 -123.5t131 -45.5t131 45.5t51 123.5h236q0 -160 -113 -260t-305 -100t-305 100t-113 260z" />
    <glyph glyph-name="dotaccent" unicode="&#x2d9;" horiz-adv-x="1048" 
d="M524 1274q-79 0 -128.5 49t-49.5 124q0 76 49.5 125t128.5 49t128.5 -49t49.5 -125q0 -75 -49.5 -124t-128.5 -49z" />
    <glyph glyph-name="ring" unicode="&#x2da;" horiz-adv-x="1102" 
d="M552 1260q-110 0 -182 69t-72 176q0 106 71.5 174t182.5 68q110 0 180.5 -68t70.5 -174q0 -107 -71 -176t-180 -69zM551 1407q43 0 70 27.5t27 69.5q0 41 -28 68.5t-69 27.5q-42 -1 -69.5 -28t-27.5 -68q0 -43 27.5 -70t69.5 -27z" />
    <glyph glyph-name="ogonek" unicode="&#x2db;" horiz-adv-x="1048" 
d="M742 -276v-176q-65 -27 -165 -27q-118 0 -188.5 58.5t-70.5 156.5q0 170 193 289l189 -6q-73 -48 -112.5 -102t-39.5 -105q0 -44 32 -70.5t85 -26.5q41 0 77 9z" />
    <glyph glyph-name="tilde" unicode="&#x2dc;" horiz-adv-x="1101" 
d="M422 1408q-38 0 -60 -36t-24 -100h-210q0 149 76.5 241t200.5 92q40 0 76.5 -14.5t61.5 -34.5t47.5 -40.5t45 -35t43.5 -14.5q38 0 60 34t23 97h210q0 -147 -76 -238t-200 -91q-49 0 -93.5 22t-70 48t-55.5 48t-55 22z" />
    <glyph glyph-name="hungarumlaut" unicode="&#x2dd;" horiz-adv-x="1048" 
d="M512 1288l191 359h284l-221 -359h-254zM57 1288l191 359h284l-221 -359h-254z" />
    <glyph glyph-name="gravecmb" unicode="&#x300;" 
d="M178 1288h-309l-292 359h356z" />
    <glyph glyph-name="acutecmb" unicode="&#x301;" 
d="M-176 1288l245 359h356l-292 -359h-309z" />
    <glyph glyph-name="circumflexcmb" unicode="&#x302;" 
d="M169 1619l271 -359h-297l-134 202h-19l-133 -202h-297l271 359h338z" />
    <glyph glyph-name="tildecmb" unicode="&#x303;" 
d="M-121 1400q-38 0 -60 -36t-24 -100h-210q0 149 76.5 241t200.5 92q40 0 76.5 -14.5t61.5 -34.5t47.5 -40.5t45 -35t43.5 -14.5q38 0 60 34t23 97h210q0 -147 -76 -238t-200 -91q-49 0 -93.5 22t-70 48t-55.5 48t-55 22z" />
    <glyph glyph-name="macroncmb" unicode="&#x304;" 
d="M384 1327h-768v198h768v-198z" />
    <glyph glyph-name="brevecmb" unicode="&#x306;" 
d="M-418 1620h236q2 -78 51 -123.5t131 -45.5t131 45.5t51 123.5h236q0 -160 -113 -260t-305 -100t-305 100t-113 260z" />
    <glyph glyph-name="dotaccentcmb" unicode="&#x307;" 
d="M0 1274q-79 0 -128.5 49t-49.5 124q0 76 49.5 125t128.5 49t128.5 -49t49.5 -125q0 -75 -49.5 -124t-128.5 -49z" />
    <glyph glyph-name="dieresiscmb" unicode="&#x308;" 
d="M-251 1260q-76 0 -124.5 46t-48.5 118t48.5 118t124.5 46t124.5 -46t48.5 -118t-48.5 -118t-124.5 -46zM251 1260q-76 0 -124.5 46t-48.5 118t48.5 118t124.5 46t125 -46t49 -118t-49 -118t-125 -46z" />
    <glyph glyph-name="hookabovecmb" unicode="&#x309;" 
d="M-197 1514v168q77 27 169 27q115 0 189.5 -61.5t74.5 -160.5q0 -89 -54 -156t-155 -107l-104 122q49 19 77.5 47t28.5 59q0 37 -30 59t-83 22q-68 0 -113 -19z" />
    <glyph glyph-name="ringcmb" unicode="&#x30a;" 
d="M1 1260q-110 0 -182 69t-72 176q0 106 71.5 174t182.5 68q110 0 180.5 -68t70.5 -174q0 -107 -71 -176t-180 -69zM0 1407q43 0 70 27.5t27 69.5q0 41 -28 68.5t-69 27.5q-42 -1 -69.5 -28t-27.5 -68q0 -43 27.5 -70t69.5 -27z" />
    <glyph glyph-name="hungarumlautcmb" unicode="&#x30b;" 
d="M84 1288l191 359h284l-221 -359h-254zM-371 1288l191 359h284l-221 -359h-254z" />
    <glyph glyph-name="caroncmb" unicode="&#x30c;" 
d="M169 1260h-338l-271 359h297l133 -202h19l134 202h297z" />
    <glyph glyph-name="dblgravecmb" unicode="&#x30f;" 
d="M-88 1288h-254l-221 359h284zM367 1288h-254l-221 359h284z" />
    <glyph glyph-name="invertedbrevecmb" unicode="&#x311;" 
d="M-418 1260q0 160 113 260t305 100t305 -100t113 -260h-236q-2 78 -51 124t-131 46t-131 -46t-51 -124h-236z" />
    <glyph glyph-name="horncmb" unicode="&#x31b;" 
d="M0 886v235q30 -13 56 -10q62 7 62 105v158h269v-219q0 -135 -68.5 -212.5t-185.5 -77.5q-91 0 -133 21z" />
    <glyph glyph-name="dotbelowcmb" unicode="&#x323;" 
d="M0 -425q-81 0 -128 40.5t-47 105.5q0 66 47 106.5t128 40.5t128 -40.5t47 -106.5q0 -65 -47 -105.5t-128 -40.5z" />
    <glyph glyph-name="dieresisbelowcmb" unicode="&#x324;" 
d="M-250 -432q-81 0 -128 40.5t-47 105.5t47 105.5t128 40.5t128 -40.5t47 -105.5t-47 -105.5t-128 -40.5zM250 -432q-81 0 -128 40.5t-47 105.5t47 105.5t128 40.5t128 -40.5t47 -105.5t-47 -105.5t-128 -40.5z" />
    <glyph glyph-name="ringbelowcmb" unicode="&#x325;" 
d="M1 -569q-110 0 -182 69t-72 176q0 106 71.5 174t182.5 68q110 0 180.5 -68t70.5 -174q0 -107 -71 -176t-180 -69zM0 -422q43 0 70 27.5t27 69.5q0 41 -28 68.5t-69 27.5q-42 -1 -69.5 -28t-27.5 -68q0 -43 27.5 -70t69.5 -27z" />
    <glyph glyph-name="commabelowcmb" unicode="&#x326;" 
d="M-11 -505h-306l148 350h351z" />
    <glyph glyph-name="cedillacmb" unicode="&#x327;" 
d="M-136 -239v127l51 121h196l-46 -110q91 -7 138.5 -53.5t47.5 -128.5q0 -101 -72.5 -155.5t-206.5 -54.5q-90 0 -148 17v145q35 -14 113 -14q108 0 108 53q0 28 -28.5 40.5t-91.5 12.5h-61z" />
    <glyph glyph-name="ogonekcmb" unicode="&#x328;" 
d="M163 -280v-176q-65 -27 -165 -27q-118 0 -188.5 58.5t-70.5 156.5q0 170 193 289l189 -6q-73 -48 -112.5 -102t-39.5 -105q0 -44 32 -70.5t85 -26.5q41 0 77 9z" />
    <glyph glyph-name="circumflexbelowcmb" unicode="&#x32d;" 
d="M183 -156l278 -276h-327l-124 145h-20l-124 -145h-327l278 276h366z" />
    <glyph glyph-name="brevebelowcmb" unicode="&#x32e;" 
d="M-418 -104h239q0 -67 48 -108t131 -41t131 41t48 108h239q0 -141 -112 -234.5t-306 -93.5t-306 93.5t-112 234.5z" />
    <glyph glyph-name="tildebelowcmb" unicode="&#x330;" 
d="M164 -430q-54 0 -100.5 18.5t-72.5 41t-59.5 41t-64.5 18.5q-35 0 -57.5 -24.5t-23.5 -78.5h-207q0 143 71 220t186 77q55 0 102 -18.5t74 -41t59.5 -41t62.5 -18.5q79 0 80 99h207q0 -141 -71 -217t-186 -76z" />
    <glyph glyph-name="macronbelowcmb" unicode="&#x331;" 
d="M391 -422h-782v198h782v-198z" />
    <glyph glyph-name="greekquestionmark" unicode="&#x37e;" horiz-adv-x="767" 
d="M430 -397h-277l70 662h333zM383 693q-93 0 -147 52.5t-54 137.5t54 137.5t147 52.5q94 0 148 -52.5t54 -137.5t-54 -137.5t-148 -52.5z" />
    <glyph glyph-name="tonosgreek" unicode="&#x384;" horiz-adv-x="936" 
d="M253 1268l81 394h348l-151 -394h-278z" />
    <glyph glyph-name="dieresistonosgreek" unicode="&#x385;" horiz-adv-x="1496" 
d="M344 1268q-70 0 -114 42t-44 108q0 65 44 107t114 42q69 0 113.5 -42t44.5 -107q0 -66 -44.5 -108t-113.5 -42zM1152 1268q-69 0 -113.5 42t-44.5 108q0 65 44.5 107t113.5 42q70 0 114 -42t44 -107q0 -66 -44 -108t-114 -42zM597 1268l19 394h316l-86 -394h-249z" />
    <glyph glyph-name="Alphatonosgreek" unicode="&#x386;" horiz-adv-x="1658" 
d="M1186 0l-90 317h-471l-93 -317h-364l484 1443h449l485 -1443h-400zM853 1118l-158 -537h332l-155 537h-19zM57 1049l81 394h348l-151 -394h-278z" />
    <glyph glyph-name="anoteleia" unicode="&#x387;" horiz-adv-x="772" 
d="M386 739q-95 0 -149.5 52.5t-54.5 140.5t54.5 140.5t149.5 52.5t149.5 -52.5t54.5 -140.5t-54.5 -140.5t-149.5 -52.5z" />
    <glyph glyph-name="Epsilontonosgreek" unicode="&#x388;" horiz-adv-x="1791" 
d="M60 1049l81 394h348l-151 -394h-278zM1648 295v-295h-989v1443h989v-295h-622v-288h585v-270h-585v-295h622z" />
    <glyph glyph-name="Etatonosgreek" unicode="&#x389;" horiz-adv-x="2137" 
d="M60 1049l81 394h348l-151 -394h-278zM1967 0h-366v582h-575v-582h-367v1443h367v-566h575v566h366v-1443z" />
    <glyph glyph-name="Iotatonosgreek" unicode="&#x38a;" horiz-adv-x="1196" 
d="M1026 0h-367v1443h367v-1443zM60 1049l81 394h348l-151 -394h-278z" />
    <glyph glyph-name="Omicrontonosgreek" unicode="&#x38c;" horiz-adv-x="2003" 
d="M1191 1482q326 0 518 -204.5t192 -555.5q0 -352 -192 -556.5t-518 -204.5q-328 0 -520 204.5t-192 556.5q0 351 193 555.5t519 204.5zM1191 1178q-153 0 -245.5 -124t-92.5 -332q0 -209 92 -333t246 -124q153 0 245 124t92 333q0 208 -92.5 332t-244.5 124zM60 1049
l81 394h348l-151 -394h-278z" />
    <glyph glyph-name="Upsilontonosgreek" unicode="&#x38e;" horiz-adv-x="1997" 
d="M60 1049l81 394h348l-151 -394h-278zM1426 0h-366v496l-498 947h391l281 -589h19l279 589h391l-497 -947v-496z" />
    <glyph glyph-name="Omegatonosgreek" unicode="&#x38f;" horiz-adv-x="2006" 
d="M457 0v280h267v19q-124 72 -195.5 210.5t-71.5 306.5q0 194 91 346t254.5 236t373.5 84t374 -84t254.5 -236t90.5 -346q0 -168 -71.5 -306.5t-195.5 -210.5v-19h267v-280h-604v357q121 69 179.5 174t58.5 254q0 180 -96 286.5t-257 106.5t-257 -106.5t-96 -286.5
q0 -149 58.5 -254t179.5 -174v-357h-604zM60 1049l81 394h348l-151 -394h-278z" />
    <glyph glyph-name="iotadieresistonosgreek" unicode="&#x390;" horiz-adv-x="764" 
d="M534 -2q-220 0 -315.5 71t-95.5 237v807h354v-729q0 -125 138 -125q54 0 96 5v-252q-65 -14 -177 -14zM-88 1268q-70 0 -114 42t-44 108q0 65 44 107t114 42q69 0 113.5 -42t44.5 -107q0 -66 -44.5 -108t-113.5 -42zM720 1268q-69 0 -113.5 42t-44.5 108q0 65 44.5 107
t113.5 42q70 0 114 -42t44 -107q0 -66 -44 -108t-114 -42zM165 1268l19 394h316l-86 -394h-249z" />
    <glyph glyph-name="Alphagreek" unicode="&#x391;" horiz-adv-x="1563" 
d="M1091 0l-90 317h-471l-93 -317h-364l484 1443h449l485 -1443h-400zM758 1118l-158 -537h332l-155 537h-19z" />
    <glyph glyph-name="Betagreek" unicode="&#x392;" horiz-adv-x="1459" 
d="M863 0h-693v1443h673q215 0 336.5 -96t121.5 -264q0 -116 -77 -203.5t-192 -103.5v-19q142 -8 238.5 -105.5t96.5 -235.5q0 -190 -136.5 -303t-367.5 -113zM537 1184v-329h194q100 0 156 43.5t56 120.5t-52.5 121t-145.5 44h-208zM537 259h222q114 0 174.5 48.5
t60.5 140.5q0 89 -61.5 136.5t-175.5 47.5h-220v-373z" />
    <glyph glyph-name="Gammagreek" unicode="&#x393;" horiz-adv-x="1228" 
d="M170 0v1443h962v-295h-595v-1148h-367z" />
    <glyph glyph-name="Deltagreek" unicode="&#x394;" horiz-adv-x="1565" 
d="M119 0v196l439 1247h449l439 -1247v-196h-1327zM495 295h542v19l-259 814h-19l-264 -814v-19z" />
    <glyph glyph-name="Epsilongreek" unicode="&#x395;" horiz-adv-x="1302" 
d="M1159 295v-295h-989v1443h989v-295h-622v-288h585v-270h-585v-295h622z" />
    <glyph glyph-name="Zetagreek" unicode="&#x396;" horiz-adv-x="1399" 
d="M130 0v233l677 896v19h-666v295h1106v-233l-677 -896v-19h698v-295h-1138z" />
    <glyph glyph-name="Etagreek" unicode="&#x397;" horiz-adv-x="1648" 
d="M1478 0h-366v582h-575v-582h-367v1443h367v-566h575v566h366v-1443z" />
    <glyph glyph-name="Thetagreek" unicode="&#x398;" horiz-adv-x="1738" 
d="M637 572v288h462v-288h-462zM870 259q175 0 274.5 122.5t99.5 340.5t-99.5 340t-274.5 122q-176 0 -276 -122t-100 -340q0 -219 99.5 -341t276.5 -122zM870 -39q-354 0 -553.5 201t-199.5 560q0 362 198 561t555 199q356 0 553.5 -199t197.5 -561q0 -359 -199.5 -560
t-551.5 -201z" />
    <glyph glyph-name="Iotagreek" unicode="&#x399;" horiz-adv-x="707" 
d="M537 0h-367v1443h367v-1443z" />
    <glyph glyph-name="Kappagreek" unicode="&#x39a;" horiz-adv-x="1507" 
d="M537 0h-367v1443h367v-620h19l480 620h394l-499 -637l528 -806h-431l-364 569l-127 -161v-408z" />
    <glyph glyph-name="Lambdagreek" unicode="&#x39b;" horiz-adv-x="1530" 
d="M76 0l465 1443h448l465 -1443h-399l-294 1108h-19l-302 -1108h-364z" />
    <glyph glyph-name="Mugreek" unicode="&#x39c;" horiz-adv-x="1926" 
d="M509 0h-339v1443h433l350 -882h19l349 882h433v-1443h-339v911h-18l-321 -800h-227l-322 800h-18v-911z" />
    <glyph glyph-name="Nugreek" unicode="&#x39d;" horiz-adv-x="1601" 
d="M518 0h-348v1443h293l601 -812h19v812h348v-1443h-291l-603 820h-19v-820z" />
    <glyph glyph-name="Xigreek" unicode="&#x39e;" horiz-adv-x="1388" 
d="M143 0v304h1102v-304h-1102zM230 584v279h928v-279h-928zM143 1139v304h1102v-304h-1102z" />
    <glyph glyph-name="Omicrongreek" unicode="&#x39f;" horiz-adv-x="1657" 
d="M829 1482q326 0 518 -204.5t192 -555.5q0 -352 -192 -556.5t-518 -204.5q-328 0 -520 204.5t-192 556.5q0 351 193 555.5t519 204.5zM829 1178q-153 0 -245.5 -124t-92.5 -332q0 -209 92 -333t246 -124q153 0 245 124t92 333q0 208 -92.5 332t-244.5 124z" />
    <glyph glyph-name="Pigreek" unicode="&#x3a0;" horiz-adv-x="1628" 
d="M170 0v1443h1288v-1443h-366v1148h-555v-1148h-367z" />
    <glyph glyph-name="Rhogreek" unicode="&#x3a1;" horiz-adv-x="1421" 
d="M170 1443h632q233 0 376.5 -140t143.5 -372q0 -229 -150 -368.5t-392 -139.5h-243v-423h-367v1443zM537 1161v-461h166q118 0 183 59t65 171q0 113 -64 172t-182 59h-168z" />
    <glyph glyph-name="Sigmagreek" unicode="&#x3a3;" horiz-adv-x="1384" 
d="M133 0v214l362 509l-340 466v254h1077v-295h-614v-19l264 -377v-38l-288 -400v-19h662v-295h-1123z" />
    <glyph glyph-name="Taugreek" unicode="&#x3a4;" horiz-adv-x="1381" 
d="M873 0h-366v1148h-416v295h1199v-295h-417v-1148z" />
    <glyph glyph-name="Upsilongreek" unicode="&#x3a5;" horiz-adv-x="1508" 
d="M937 0h-366v496l-498 947h391l281 -589h19l279 589h391l-497 -947v-496z" />
    <glyph glyph-name="Phigreek" unicode="&#x3a6;" horiz-adv-x="1973" 
d="M822 -131v155q-318 16 -516.5 205.5t-198.5 482.5t198.5 482.5t516.5 205.5v155h328v-155q319 -16 517.5 -205.5t198.5 -482.5t-198.5 -482.5t-517.5 -205.5v-155h-328zM822 304v816q-169 -18 -264.5 -123.5t-95.5 -284.5t95 -284.5t265 -123.5zM1150 304
q170 18 265.5 123.5t95.5 284.5t-95.5 284.5t-265.5 123.5v-816z" />
    <glyph glyph-name="Chigreek" unicode="&#x3a7;" horiz-adv-x="1549" 
d="M87 0l443 728l-442 715h428l259 -478h19l261 478h408l-461 -719l457 -724h-413l-274 457h-19l-276 -457h-390z" />
    <glyph glyph-name="Psigreek" unicode="&#x3a8;" horiz-adv-x="1833" 
d="M745 0v293q-285 8 -447 170.5t-162 442.5v537h344v-544q0 -293 265 -318v862h343v-862q266 25 266 318v544h343v-537q0 -280 -162 -443t-447 -170v-293h-343z" />
    <glyph glyph-name="Omegagreek" unicode="&#x3a9;" horiz-adv-x="1660" 
d="M111 0v280h267v19q-124 72 -195.5 210.5t-71.5 306.5q0 194 91 346t254.5 236t373.5 84t374 -84t254.5 -236t90.5 -346q0 -168 -71.5 -306.5t-195.5 -210.5v-19h267v-280h-604v357q121 69 179.5 174t58.5 254q0 180 -96 286.5t-257 106.5t-257 -106.5t-96 -286.5
q0 -149 58.5 -254t179.5 -174v-357h-604z" />
    <glyph glyph-name="Iotadieresisgreek" unicode="&#x3aa;" horiz-adv-x="707" 
d="M537 0h-367v1443h367v-1443zM102 1581q-76 0 -124.5 46t-48.5 118t48.5 118t124.5 46t124.5 -46t48.5 -118t-48.5 -118t-124.5 -46zM604 1581q-76 0 -124.5 46t-48.5 118t48.5 118t124.5 46t125 -46t49 -118t-49 -118t-125 -46z" />
    <glyph glyph-name="Upsilondieresisgreek" unicode="&#x3ab;" horiz-adv-x="1508" 
d="M937 0h-366v496l-498 947h391l281 -589h19l279 589h391l-497 -947v-496zM504 1581q-76 0 -124.5 46t-48.5 118t48.5 118t124.5 46t124.5 -46t48.5 -118t-48.5 -118t-124.5 -46zM1006 1581q-76 0 -124.5 46t-48.5 118t48.5 118t124.5 46t125 -46t49 -118t-49 -118
t-125 -46z" />
    <glyph glyph-name="alphatonosgreek" unicode="&#x3ac;" horiz-adv-x="1445" 
d="M538 -17q-217 0 -337.5 151.5t-120.5 424.5q0 267 119 419t328 152q116 0 198 -56t122 -162h19v201h353v-741q0 -69 20 -95t73 -26q33 0 56 9v-250q-56 -20 -173 -20q-122 0 -195 40.5t-103 127.5l-13 32h-19q-31 -94 -121 -150.5t-206 -56.5zM647 261q98 0 155 79.5
t57 215.5q0 134 -57 215t-151 81q-96 0 -152.5 -79.5t-56.5 -215.5t55 -216t150 -80zM508 1268l81 394h348l-151 -394h-278z" />
    <glyph glyph-name="epsilontonosgreek" unicode="&#x3ad;" horiz-adv-x="1284" 
d="M505 1268l81 394h348l-151 -394h-278zM622 -26q-246 0 -389 87.5t-143 239.5q0 91 51 158.5t143 99.5v19q-88 36 -129 92t-41 140q0 150 142.5 239.5t378.5 89.5q252 0 396.5 -97t167.5 -284h-344q-35 121 -214 121q-81 0 -130 -28.5t-49 -76.5q0 -93 178 -93h143v-241
h-141q-91 0 -140 -25.5t-49 -74.5q0 -50 47.5 -77.5t130.5 -27.5q194 0 236 144h363q-23 -182 -191.5 -293.5t-416.5 -111.5z" />
    <glyph glyph-name="etatonosgreek" unicode="&#x3ae;" horiz-adv-x="1457" 
d="M243 0v741q0 62 -24 91.5t-75 29.5q-31 0 -58 -9v250q65 20 169 20q136 0 210 -46t108 -152l5 -17h19q37 108 131 169.5t222 61.5q184 0 284.5 -111t100.5 -313v-1054h-354v974q0 105 -48 160t-139 55q-88 0 -142.5 -60.5t-54.5 -158.5v-631h-354zM559 1268l81 394h348
l-151 -394h-278z" />
    <glyph glyph-name="iotatonosgreek" unicode="&#x3af;" horiz-adv-x="764" 
d="M534 -2q-220 0 -315.5 71t-95.5 237v807h354v-729q0 -125 138 -125q54 0 96 5v-252q-65 -14 -177 -14zM159 1268l81 394h348l-151 -394h-278z" />
    <glyph glyph-name="upsilondieresistonosgreek" unicode="&#x3b0;" horiz-adv-x="1267" 
d="M203 1268q-70 0 -114 42t-44 108q0 65 44 107t114 42q69 0 113.5 -42t44.5 -107q0 -66 -44.5 -108t-113.5 -42zM1011 1268q-69 0 -113.5 42t-44.5 108q0 65 44.5 107t113.5 42q70 0 114 -42t44 -107q0 -66 -44 -108t-114 -42zM456 1268l19 394h316l-86 -394h-249z
M612 -26q-498 0 -498 487v652h331v-603q0 -129 42.5 -187.5t138.5 -58.5q97 0 148 83t51 231q0 285 -100 535h340q102 -202 102 -532q0 -297 -146 -452t-409 -155z" />
    <glyph glyph-name="alphagreek" unicode="&#x3b1;" horiz-adv-x="1445" 
d="M538 -17q-217 0 -337.5 151.5t-120.5 424.5q0 267 119 419t328 152q116 0 198 -56t122 -162h19v201h353v-741q0 -69 20 -95t73 -26q33 0 56 9v-250q-56 -20 -173 -20q-122 0 -195 40.5t-103 127.5l-13 32h-19q-31 -94 -121 -150.5t-206 -56.5zM647 261q98 0 155 79.5
t57 215.5q0 134 -57 215t-151 81q-96 0 -152.5 -79.5t-56.5 -215.5t55 -216t150 -80z" />
    <glyph glyph-name="betagreek" unicode="&#x3b2;" horiz-adv-x="1366" 
d="M130 -339v1326q0 283 136.5 426t406.5 143q232 0 364.5 -106.5t132.5 -293.5q0 -104 -54 -188.5t-145 -123.5v-19q314 -74 314 -407q0 -200 -121 -317.5t-329 -117.5q-116 0 -206.5 51.5t-125.5 136.5h-19v-510h-354zM718 261q93 0 149 55t56 146q0 107 -65.5 163.5
t-191.5 56.5h-71v249h66q89 0 141.5 47t52.5 127q0 85 -47.5 133t-130.5 48q-95 0 -145 -59t-50 -174v-499q0 -293 236 -293z" />
    <glyph glyph-name="gammagreek" unicode="&#x3b3;" horiz-adv-x="1262" 
d="M424 -336v258l-405 1191h366l235 -804h19q98 167 143.5 303.5t45.5 295.5q0 127 -18 205h342q20 -73 20 -203q0 -221 -99.5 -450t-302.5 -502v-294h-346z" />
    <glyph glyph-name="deltagreek" unicode="&#x3b4;" horiz-adv-x="1260" 
d="M617 -26q-258 0 -406 138.5t-148 384.5q0 178 101.5 307t272.5 169v20q-187 90 -187 268q0 138 114.5 216.5t316.5 78.5q241 0 407 -82v-246q-181 81 -347 81q-54 0 -85.5 -20.5t-31.5 -57.5q0 -35 27.5 -60t97.5 -63q161 -94 254.5 -180t139.5 -189.5t46 -238.5
q0 -234 -153.5 -380t-418.5 -146zM621 218q94 0 147 76t53 210q0 132 -54.5 210t-146.5 78t-146 -78t-54 -210q0 -134 53.5 -210t147.5 -76z" />
    <glyph glyph-name="epsilongreek" unicode="&#x3b5;" horiz-adv-x="1284" 
d="M622 -26q-246 0 -389 87.5t-143 239.5q0 91 51 158.5t143 99.5v19q-88 36 -129 92t-41 140q0 150 142.5 239.5t378.5 89.5q252 0 396.5 -97t167.5 -284h-344q-35 121 -214 121q-81 0 -130 -28.5t-49 -76.5q0 -93 178 -93h143v-241h-141q-91 0 -140 -25.5t-49 -74.5
q0 -50 47.5 -77.5t130.5 -27.5q194 0 236 144h363q-23 -182 -191.5 -293.5t-416.5 -111.5z" />
    <glyph glyph-name="zetagreek" unicode="&#x3b6;" horiz-adv-x="1072" 
d="M901 -408l-257 103q81 111 81 189q0 56 -37.5 87t-151.5 71q-174 61 -270 126.5t-140 155.5t-44 226q0 311 418 681v19h-340v280h878v-217q-293 -215 -447 -390.5t-154 -327.5q0 -99 52.5 -151t214.5 -111q207 -77 279 -151t72 -213q0 -173 -154 -377z" />
    <glyph glyph-name="etagreek" unicode="&#x3b7;" horiz-adv-x="1457" 
d="M243 0v741q0 62 -24 91.5t-75 29.5q-31 0 -58 -9v250q65 20 169 20q136 0 210 -46t108 -152l5 -17h19q37 108 131 169.5t222 61.5q184 0 284.5 -111t100.5 -313v-1054h-354v974q0 105 -48 160t-139 55q-88 0 -142.5 -60.5t-54.5 -158.5v-631h-354z" />
    <glyph glyph-name="thetagreek" unicode="&#x3b8;" horiz-adv-x="1307" 
d="M654 -26q-285 0 -430.5 201.5t-145.5 596.5q0 384 148 584t428 200q281 0 428.5 -200t147.5 -585q0 -393 -146.5 -595t-429.5 -202zM654 225q111 0 166 99.5t57 311.5h-447q2 -212 57.5 -311.5t166.5 -99.5zM430 900h447q-6 407 -223 407q-110 0 -165.5 -99.5
t-58.5 -307.5z" />
    <glyph glyph-name="iotagreek" unicode="&#x3b9;" horiz-adv-x="764" 
d="M534 -2q-220 0 -315.5 71t-95.5 237v807h354v-729q0 -125 138 -125q54 0 96 5v-252q-65 -14 -177 -14z" />
    <glyph glyph-name="kappagreek" unicode="&#x3ba;" horiz-adv-x="1330" 
d="M130 0v1113h346v-456h19l239 277q92 107 164 148t167 41q83 0 147 -20v-250q-27 9 -68 9q-45 0 -78 -18.5t-78 -69.5l-140 -153l402 -621h-368l-265 411l-141 -154v-257h-346z" />
    <glyph glyph-name="lambdagreek" unicode="&#x3bb;" horiz-adv-x="1314" 
d="M27 0l463 1047l-30 80q-37 100 -79 134t-131 34q-29 0 -71 -9v250q75 20 156 20q89 0 148.5 -18t110.5 -69t90.5 -128.5t89.5 -210.5l285 -761q27 -71 57 -94.5t92 -23.5q24 0 57 9v-250q-57 -20 -171 -20q-130 0 -201 48t-112 164l-148 413h-19l-241 -615h-346z" />
    <glyph glyph-name="mugreek" unicode="&#x3bc;" horiz-adv-x="1457" 
d="M130 -339v1452h354v-641q0 -99 50.5 -153t142.5 -54q89 0 144 58t55 152v638h354v-741q0 -69 20 -95t73 -26q24 0 57 9v-250q-77 -21 -158 -21q-125 0 -194.5 46t-98.5 149l-5 15h-19q-52 -225 -264 -225q-106 0 -138 58h-19v-371h-354z" />
    <glyph glyph-name="nugreek" unicode="&#x3bd;" horiz-adv-x="1262" 
d="M801 0h-404l-378 1113h366l235 -805h19q98 168 143.5 305t45.5 296q0 127 -18 204h342q20 -73 20 -202q0 -217 -90.5 -429t-280.5 -482z" />
    <glyph glyph-name="xigreek" unicode="&#x3be;" horiz-adv-x="1110" 
d="M909 -406l-256 103q80 119 80 190q0 57 -38 87.5t-170 77.5q-246 89 -340.5 174t-94.5 218q0 234 249 298v19q-187 79 -187 238q0 90 51.5 150t146.5 83v18h-194v280h868v-237l-144 -19q-222 -29 -303 -70.5t-81 -127.5q0 -132 236 -132h212v-264h-231q-268 0 -268 -157
q0 -23 2 -36t13 -29t26 -26.5t49.5 -27t75 -32l110.5 -41.5q202 -76 272 -148.5t70 -206.5q0 -179 -154 -382z" />
    <glyph glyph-name="omicrongreek" unicode="&#x3bf;" horiz-adv-x="1293" 
d="M647 -26q-264 0 -415.5 153.5t-151.5 429.5q0 272 153 427t414 155t413.5 -155t152.5 -427q0 -277 -150.5 -430t-415.5 -153zM647 244q95 0 149 82t54 231q0 146 -54.5 229t-148.5 83q-95 0 -149.5 -83t-54.5 -229q0 -149 54 -231t150 -82z" />
    <glyph glyph-name="pigreek" unicode="&#x3c0;" horiz-adv-x="1600" 
d="M303 0v833h-212v280h1401v-280h-235v-463q0 -69 22 -94t82 -25q30 0 62 9v-250q-64 -20 -169 -20q-193 0 -264 67t-71 244v532h-279v-833h-337z" />
    <glyph glyph-name="rhogreek" unicode="&#x3c1;" horiz-adv-x="1329" 
d="M104 -339v874q0 284 154.5 444t420.5 160q142 0 251.5 -42.5t178 -120t103.5 -182.5t35 -234q0 -273 -122 -425t-334 -152q-234 0 -315 188h-19v-510h-353zM668 261q103 0 159.5 79t56.5 225q0 151 -56.5 227.5t-159.5 76.5q-102 0 -158 -80.5t-56 -231.5
q0 -140 57.5 -218t156.5 -78z" />
    <glyph glyph-name="sigmafinalgreek" unicode="&#x3c2;" horiz-adv-x="1199" 
d="M900 -406l-257 103q81 113 81 189q0 57 -38 88.5t-152 70.5q-253 87 -353.5 210t-100.5 340q0 251 151 397.5t407 146.5q229 0 362.5 -114.5t150.5 -323.5h-325q-12 81 -59 123.5t-124 42.5q-98 0 -152.5 -65t-54.5 -186q0 -114 51 -168t220 -115q204 -75 275 -149.5
t71 -213.5q0 -173 -153 -376z" />
    <glyph glyph-name="sigmagreek" unicode="&#x3c3;" horiz-adv-x="1456" 
d="M638 -26q-260 0 -409 148t-149 406q0 263 165 424t433 161h687v-280h-252v-19q42 -49 65.5 -126.5t23.5 -167.5q0 -250 -153 -398t-411 -148zM647 238q94 0 149 83t55 225q0 131 -55.5 207t-149.5 76q-93 0 -148 -76t-55 -207q0 -142 55 -225t149 -83z" />
    <glyph glyph-name="taugreek" unicode="&#x3c4;" horiz-adv-x="1212" 
d="M777 -2q-217 0 -312 72t-95 235v528h-320v280h1066v-280h-392v-449q0 -125 135 -125q69 0 99 5v-252q-60 -14 -181 -14z" />
    <glyph glyph-name="upsilongreek" unicode="&#x3c5;" horiz-adv-x="1267" 
d="M612 -26q-498 0 -498 487v652h331v-603q0 -129 42.5 -187.5t138.5 -58.5q97 0 148 83t51 231q0 285 -100 535h340q102 -202 102 -532q0 -297 -146 -452t-409 -155z" />
    <glyph glyph-name="phigreek" unicode="&#x3c6;" horiz-adv-x="1689" 
d="M685 -339v312q-130 5 -241 46t-194 113.5t-130 182t-47 242.5t47 242.5t129.5 182.5t194 114t241.5 46v256h319v-256q130 -5 241.5 -46t194 -114t129.5 -182.5t47 -242.5t-47 -242.5t-130 -182t-194 -113.5t-241 -46v-312h-319zM693 237v641q-134 -8 -209 -90t-75 -231
q0 -148 75.5 -230t208.5 -90zM996 237q133 8 208.5 90t75.5 230q0 149 -75 231t-209 90v-641z" />
    <glyph glyph-name="chigreek" unicode="&#x3c7;" horiz-adv-x="1314" 
d="M81 -339l400 706l-203 376q-41 75 -73.5 97t-85.5 22q-34 0 -63 -9v250q63 19 157 19q126 0 198.5 -43.5t129.5 -150.5l135 -255h19l229 436h348l-426 -746l179 -335q35 -65 69.5 -90.5t88.5 -25.5q36 0 64 10v-251q-70 -20 -170 -20q-119 0 -186.5 39t-119.5 136
l-122 231h-19l-201 -396h-348z" />
    <glyph glyph-name="psigreek" unicode="&#x3c8;" horiz-adv-x="1694" 
d="M670 -339v313q-270 1 -413 127t-143 362v650h331v-569q0 -161 48 -220t177 -59v1133h333v-1131q118 0 183.5 83t65.5 231q0 281 -101 532h340q102 -201 102 -519q0 -299 -152.5 -459.5t-437.5 -160.5v-313h-333z" />
    <glyph glyph-name="omegagreek" unicode="&#x3c9;" horiz-adv-x="1732" 
d="M527 -26q-209 0 -319 139t-110 403q0 175 45 329.5t128 267.5h348q-181 -283 -181 -596q0 -130 34.5 -191.5t107.5 -61.5q62 0 95 43t33 124v365h316v-365q0 -81 33 -124t95 -43q73 0 107.5 61.5t34.5 191.5q0 314 -180 596h347q83 -113 128 -267.5t45 -329.5
q0 -264 -110 -403t-318 -139q-117 0 -196.5 54t-133.5 171h-19q-55 -117 -134.5 -171t-195.5 -54z" />
    <glyph glyph-name="iotadieresisgreek" unicode="&#x3ca;" horiz-adv-x="764" 
d="M534 -2q-220 0 -315.5 71t-95.5 237v807h354v-729q0 -125 138 -125q54 0 96 5v-252q-65 -14 -177 -14zM42 1260q-76 0 -124.5 46t-48.5 118t48.5 118t124.5 46t124.5 -46t48.5 -118t-48.5 -118t-124.5 -46zM544 1260q-76 0 -124.5 46t-48.5 118t48.5 118t124.5 46
t125 -46t49 -118t-49 -118t-125 -46z" />
    <glyph glyph-name="upsilondieresisgreek" unicode="&#x3cb;" horiz-adv-x="1267" 
d="M342 1260q-76 0 -124.5 46t-48.5 118t48.5 118t124.5 46t124.5 -46t48.5 -118t-48.5 -118t-124.5 -46zM844 1260q-76 0 -124.5 46t-48.5 118t48.5 118t124.5 46t125 -46t49 -118t-49 -118t-125 -46zM612 -26q-498 0 -498 487v652h331v-603q0 -129 42.5 -187.5
t138.5 -58.5q97 0 148 83t51 231q0 285 -100 535h340q102 -202 102 -532q0 -297 -146 -452t-409 -155z" />
    <glyph glyph-name="omicrontonosgreek" unicode="&#x3cc;" horiz-adv-x="1293" 
d="M647 -26q-264 0 -415.5 153.5t-151.5 429.5q0 272 153 427t414 155t413.5 -155t152.5 -427q0 -277 -150.5 -430t-415.5 -153zM647 244q95 0 149 82t54 231q0 146 -54.5 229t-148.5 83q-95 0 -149.5 -83t-54.5 -229q0 -149 54 -231t150 -82zM498 1268l81 394h348
l-151 -394h-278z" />
    <glyph glyph-name="upsilontonosgreek" unicode="&#x3cd;" horiz-adv-x="1267" 
d="M443 1268l81 394h348l-151 -394h-278zM612 -26q-498 0 -498 487v652h331v-603q0 -129 42.5 -187.5t138.5 -58.5q97 0 148 83t51 231q0 285 -100 535h340q102 -202 102 -532q0 -297 -146 -452t-409 -155z" />
    <glyph glyph-name="omegatonosgreek" unicode="&#x3ce;" horiz-adv-x="1732" 
d="M527 -26q-209 0 -319 139t-110 403q0 175 45 329.5t128 267.5h348q-181 -283 -181 -596q0 -130 34.5 -191.5t107.5 -61.5q62 0 95 43t33 124v365h316v-365q0 -81 33 -124t95 -43q73 0 107.5 61.5t34.5 191.5q0 314 -180 596h347q83 -113 128 -267.5t45 -329.5
q0 -264 -110 -403t-318 -139q-117 0 -196.5 54t-133.5 171h-19q-55 -117 -134.5 -171t-195.5 -54zM714 1268l81 394h348l-151 -394h-278z" />
    <glyph glyph-name="Iocyrillic" unicode="&#x401;" horiz-adv-x="1322" 
d="M424 1581q-76 0 -124.5 46t-48.5 118t48.5 118t124.5 46t124.5 -46t48.5 -118t-48.5 -118t-124.5 -46zM926 1581q-76 0 -124.5 46t-48.5 118t48.5 118t124.5 46t125 -46t49 -118t-49 -118t-125 -46zM1169 295v-295h-989v1443h989v-295h-622v-288h585v-270h-585v-295h622z
" />
    <glyph glyph-name="Djecyrillic" unicode="&#x402;" horiz-adv-x="1845" 
d="M1196 -94q-45 0 -83.5 4t-54.5 8l-17 5v277q36 -11 114 -11q101 0 159.5 53.5t58.5 153.5q0 92 -60 147.5t-169 55.5q-97 0 -163.5 -40.5t-97.5 -96.5v-462h-366v1148h-416v295h1199v-295h-417v-350h18q128 108 329 108q125 0 224 -38t161 -105t94 -153.5t32 -187.5
q0 -233 -145.5 -374.5t-399.5 -141.5z" />
    <glyph glyph-name="Gjecyrillic" unicode="&#x403;" horiz-adv-x="1259" 
d="M477 1573l258 326h362l-304 -326h-316zM547 0h-367v1443h969v-295h-602v-1148z" />
    <glyph glyph-name="Ecyrillic" unicode="&#x404;" horiz-adv-x="1605" 
d="M1488 509q-10 -240 -192.5 -394t-462.5 -154q-328 0 -517 203.5t-189 557.5q0 355 189 557.5t517 202.5q275 0 460 -158.5t193 -395.5h-352q-14 110 -97 179t-204 69q-132 0 -221 -84t-104 -228h529v-272h-532q12 -146 102.5 -235.5t226.5 -89.5q121 0 203.5 67t97.5 175
h353z" />
    <glyph glyph-name="Dzecyrillic" unicode="&#x405;" horiz-adv-x="1443" 
d="M117 411h350q7 -79 79.5 -125.5t186.5 -46.5q103 0 167 45t64 116q0 60 -52 95.5t-176 60.5l-190 38q-198 37 -299 144t-101 277q0 212 156.5 339.5t417.5 127.5q253 0 413 -125t165 -325h-339q-6 76 -71.5 124.5t-162.5 48.5t-155.5 -42.5t-58.5 -114.5q0 -59 51 -96
t165 -59l186 -36q214 -41 313.5 -141t99.5 -272q0 -226 -162 -354.5t-446 -128.5q-274 0 -435.5 121t-165.5 329z" />
    <glyph glyph-name="Icyrillic" unicode="&#x406;" horiz-adv-x="727" 
d="M547 0h-367v1443h367v-1443z" />
    <glyph glyph-name="Yicyrillic" unicode="&#x407;" horiz-adv-x="727" 
d="M547 0h-367v1443h367v-1443zM112 1581q-76 0 -124.5 46t-48.5 118t48.5 118t124.5 46t124.5 -46t48.5 -118t-48.5 -118t-124.5 -46zM614 1581q-76 0 -124.5 46t-48.5 118t48.5 118t124.5 46t125 -46t49 -118t-49 -118t-125 -46z" />
    <glyph glyph-name="Jecyrillic" unicode="&#x408;" horiz-adv-x="1319" 
d="M80 458h352q1 -85 48 -135.5t126 -50.5q81 0 123.5 50t42.5 146v975h367v-978q0 -241 -139.5 -372.5t-387.5 -131.5q-244 0 -388 133.5t-144 363.5z" />
    <glyph glyph-name="Ljecyrillic" unicode="&#x409;" horiz-adv-x="2302" 
d="M653 586q-7 -140 -34.5 -246t-80.5 -187.5t-139.5 -124t-204.5 -42.5q-82 0 -129 14v319q48 -9 74 -9q50 0 85 22t54 66t28 94t12 121l38 830h1057v-458h241q242 0 392 -135t150 -357q0 -223 -143.5 -358t-376.5 -135h-630v1148h-364zM1413 283h166q116 0 179.5 54
t63.5 157q0 104 -64 158.5t-181 54.5h-164v-424z" />
    <glyph glyph-name="Njecyrillic" unicode="&#x40a;" horiz-adv-x="2355" 
d="M1463 283h189q107 0 166.5 43.5t59.5 125.5q0 79 -60 120.5t-168 41.5h-187v-331zM547 605v-605h-367v1443h367v-551h550v551h366v-551h241q243 0 392.5 -121t149.5 -320q0 -205 -143 -328t-376 -123h-630v605h-550z" />
    <glyph glyph-name="Tshecyrillic" unicode="&#x40b;" horiz-adv-x="1860" 
d="M1133 599q-166 0 -250 -137v-462h-366v1148h-416v295h1199v-295h-417v-350h18q127 108 317 108q244 0 372 -145.5t128 -384.5v-376h-367v355q0 113 -56 178.5t-162 65.5z" />
    <glyph glyph-name="Kjecyrillic" unicode="&#x40c;" horiz-adv-x="1527" 
d="M604 1573l258 326h362l-304 -326h-316zM557 839h48l451 604h394l-538 -710l568 -733h-432l-441 562h-50v-562h-367v1443h367v-604z" />
    <glyph glyph-name="Ushortcyrillic" unicode="&#x40e;" horiz-adv-x="1473" 
d="M329 1931h250q4 -68 43.5 -107.5t102.5 -39.5t102.5 39.5t43.5 107.5h250q0 -151 -108.5 -241.5t-287.5 -90.5t-287.5 90.5t-108.5 241.5zM417 -15q-36 0 -72 3.5t-55 7.5t-21 5v290q27 -9 92 -9q64 0 108.5 17.5t78.5 63.5l-472 1080h388l270 -732h19l257 732h387
l-442 -1030q-46 -107 -93 -181t-110.5 -132.5t-146 -86.5t-188.5 -28z" />
    <glyph glyph-name="Dzhecyrillic" unicode="&#x40f;" horiz-adv-x="1656" 
d="M655 0h-475v1443h367v-1148h562v1148h367v-1443h-476v-285h-345v285z" />
    <glyph glyph-name="Acyrillic" unicode="&#x410;" horiz-adv-x="1583" 
d="M1101 0l-90 317h-471l-93 -317h-364l484 1443h449l485 -1443h-400zM768 1118l-158 -537h332l-155 537h-19z" />
    <glyph glyph-name="Becyrillic" unicode="&#x411;" horiz-adv-x="1439" 
d="M1327 466q0 -211 -143 -338.5t-376 -127.5h-628v1443h1020v-295h-653v-230h246q238 0 386 -124t148 -328zM547 283h171q112 0 173.5 47t61.5 137t-62 137.5t-175 47.5h-169v-369z" />
    <glyph glyph-name="Vecyrillic" unicode="&#x412;" horiz-adv-x="1479" 
d="M873 0h-693v1443h673q215 0 336.5 -96t121.5 -264q0 -116 -77 -203.5t-192 -103.5v-19q142 -8 238.5 -105.5t96.5 -235.5q0 -190 -136.5 -303t-367.5 -113zM547 1184v-329h194q100 0 156 43.5t56 120.5t-52.5 121t-145.5 44h-208zM547 259h222q114 0 174.5 48.5
t60.5 140.5q0 89 -61.5 136.5t-175.5 47.5h-220v-373z" />
    <glyph glyph-name="Gecyrillic" unicode="&#x413;" horiz-adv-x="1259" 
d="M547 0h-367v1443h969v-295h-602v-1148z" />
    <glyph glyph-name="Decyrillic" unicode="&#x414;" horiz-adv-x="1662" 
d="M608 644q-16 -242 -86 -329v-19h524v853h-405zM370 0v-285h-330v581h98q70 54 97 137.5t37 242.5l48 767h1092v-1147h180v-581h-330v285h-892z" />
    <glyph glyph-name="Iecyrillic" unicode="&#x415;" horiz-adv-x="1322" 
d="M1169 295v-295h-989v1443h989v-295h-622v-288h585v-270h-585v-295h622z" />
    <glyph glyph-name="Zhecyrillic" unicode="&#x416;" horiz-adv-x="2197" 
d="M917 837v606h359v-606h52l396 606h385l-480 -714l510 -729h-423l-386 564h-54v-564h-359v564h-54l-386 -564h-419l506 722l-484 721h389l396 -606h52z" />
    <glyph glyph-name="Zecyrillic" unicode="&#x417;" horiz-adv-x="1419" 
d="M512 593v274h189q95 0 153 47t58 124q0 78 -57 123.5t-157 45.5t-162 -51t-65 -136h-334q5 211 158.5 336.5t411.5 125.5q245 0 397 -108.5t152 -287.5q0 -121 -76 -212t-196 -114v-19q148 -14 236.5 -105.5t88.5 -231.5q0 -197 -171.5 -320t-437.5 -123
q-258 0 -418.5 127.5t-170.5 339.5h349q4 -82 70 -130t176 -48q102 0 164.5 50.5t62.5 131.5q0 75 -61.5 118t-169.5 43h-190z" />
    <glyph glyph-name="Iicyrillic" unicode="&#x418;" horiz-adv-x="1676" 
d="M1130 0v881h-19l-580 -881h-351v1443h366v-882h19l580 882h351v-1443h-366z" />
    <glyph glyph-name="Iishortcyrillic" unicode="&#x419;" horiz-adv-x="1676" 
d="M430 1931h250q4 -68 44 -107.5t102 -39.5t102 39.5t44 107.5h250q0 -151 -108.5 -241.5t-287.5 -90.5t-287.5 90.5t-108.5 241.5zM1130 0v881h-19l-580 -881h-351v1443h366v-882h19l580 882h351v-1443h-366z" />
    <glyph glyph-name="Kacyrillic" unicode="&#x41a;" horiz-adv-x="1528" 
d="M547 839h48l451 604h394l-538 -710l568 -733h-432l-441 562h-50v-562h-367v1443h367v-604z" />
    <glyph glyph-name="Elcyrillic" unicode="&#x41b;" horiz-adv-x="1583" 
d="M1403 0h-367v1148h-364l-29 -562q-7 -140 -34.5 -246t-80.5 -187.5t-139.5 -124t-204.5 -42.5q-82 0 -129 14v319q48 -9 74 -9q50 0 85 22t54 66t28 94t12 121l38 830h1057v-1443z" />
    <glyph glyph-name="Emcyrillic" unicode="&#x41c;" horiz-adv-x="1944" 
d="M519 0h-339v1443h433l350 -882h19l349 882h433v-1443h-339v911h-18l-321 -800h-227l-322 800h-18v-911z" />
    <glyph glyph-name="Encyrillic" unicode="&#x41d;" horiz-adv-x="1668" 
d="M1488 0h-366v582h-575v-582h-367v1443h367v-566h575v566h366v-1443z" />
    <glyph glyph-name="Ocyrillic" unicode="&#x41e;" horiz-adv-x="1677" 
d="M839 1482q326 0 518 -204.5t192 -555.5q0 -352 -192 -556.5t-518 -204.5q-328 0 -520 204.5t-192 556.5q0 351 193 555.5t519 204.5zM839 1178q-153 0 -245.5 -124t-92.5 -332q0 -209 92 -333t246 -124q153 0 245 124t92 333q0 208 -92.5 332t-244.5 124z" />
    <glyph glyph-name="Pecyrillic" unicode="&#x41f;" horiz-adv-x="1656" 
d="M1476 0h-366v1148h-563v-1148h-367v1443h1296v-1443z" />
    <glyph glyph-name="Ercyrillic" unicode="&#x420;" horiz-adv-x="1441" 
d="M180 1443h632q233 0 376.5 -140t143.5 -372q0 -229 -150 -368.5t-392 -139.5h-243v-423h-367v1443zM547 1161v-461h166q118 0 183 59t65 171q0 113 -64 172t-182 59h-168z" />
    <glyph glyph-name="Escyrillic" unicode="&#x421;" horiz-adv-x="1598" 
d="M825 -39q-324 0 -511 204t-187 557t186.5 556.5t511.5 203.5q179 0 325.5 -73.5t232.5 -204t91 -291.5h-353q-14 118 -96 190.5t-200 72.5q-151 0 -237.5 -121t-86.5 -332q0 -212 87 -334t238 -122q119 0 200 70.5t97 186.5h352q-9 -248 -191 -405.5t-459 -157.5z" />
    <glyph glyph-name="Tecyrillic" unicode="&#x422;" horiz-adv-x="1401" 
d="M883 0h-366v1148h-416v295h1199v-295h-417v-1148z" />
    <glyph glyph-name="Ucyrillic" unicode="&#x423;" horiz-adv-x="1473" 
d="M417 -15q-36 0 -72 3.5t-55 7.5t-21 5v290q27 -9 92 -9q64 0 108.5 17.5t78.5 63.5l-472 1080h388l270 -732h19l257 732h387l-442 -1030q-46 -107 -93 -181t-110.5 -132.5t-146 -86.5t-188.5 -28z" />
    <glyph glyph-name="Efcyrillic" unicode="&#x424;" horiz-adv-x="1949" 
d="M798 406v634q-141 -8 -226.5 -92t-85.5 -225t85 -225t227 -92zM1463 722q0 141 -85 225.5t-227 92.5v-634q141 8 226.5 92t85.5 224zM793 120q-309 11 -493 169.5t-184 433.5q0 274 185 432.5t492 169.5v153h363v-153q309 -11 493 -169.5t184 -433.5q0 -274 -185 -432.5
t-492 -169.5v-155h-363v155z" />
    <glyph glyph-name="Xacyrillic" unicode="&#x425;" horiz-adv-x="1569" 
d="M97 0l443 728l-442 715h428l259 -478h19l261 478h408l-461 -719l457 -724h-413l-274 457h-19l-276 -457h-390z" />
    <glyph glyph-name="Tsecyrillic" unicode="&#x426;" horiz-adv-x="1726" 
d="M1656 -285h-330v285h-1146v1443h367v-1148h562v1148h367v-1148h180v-580z" />
    <glyph glyph-name="Checyrillic" unicode="&#x427;" horiz-adv-x="1579" 
d="M1399 0h-367v586h-19q-134 -108 -337 -108q-242 0 -387.5 147.5t-145.5 389.5v428h367v-389q0 -127 66 -197.5t191 -70.5q96 0 164 37t101 102v518h367v-1443z" />
    <glyph glyph-name="Shacyrillic" unicode="&#x428;" horiz-adv-x="2161" 
d="M180 0v1443h367v-1148h351v1148h366v-1148h351v1148h366v-1443h-1801z" />
    <glyph glyph-name="Shchacyrillic" unicode="&#x429;" horiz-adv-x="2231" 
d="M2161 -285h-330v285h-1651v1443h367v-1148h351v1148h366v-1148h351v1148h366v-1148h180v-580z" />
    <glyph glyph-name="Hardsigncyrillic" unicode="&#x42a;" horiz-adv-x="1703" 
d="M1077 0h-630v1149h-338v294h704v-458h241q242 0 392 -135t150 -357q0 -223 -143 -358t-376 -135zM813 283h166q116 0 179.5 54t63.5 157q0 104 -64 158.5t-181 54.5h-164v-424z" />
    <glyph glyph-name="Yericyrillic" unicode="&#x42b;" horiz-adv-x="2019" 
d="M1839 0h-367v1443h367v-1443zM182 0v1443h367v-458h240q243 0 392.5 -135t149.5 -357q0 -223 -143 -358t-376 -135h-630zM549 283h166q115 0 179 54.5t64 156.5q0 104 -64.5 158.5t-181.5 54.5h-163v-424z" />
    <glyph glyph-name="Softsigncyrillic" unicode="&#x42c;" horiz-adv-x="1439" 
d="M180 0v1443h367v-458h240q243 0 392.5 -135t149.5 -357q0 -223 -143 -358t-376 -135h-630zM547 283h166q115 0 179 54.5t64 156.5q0 104 -64.5 158.5t-181.5 54.5h-163v-424z" />
    <glyph glyph-name="Ereversedcyrillic" unicode="&#x42d;" horiz-adv-x="1605" 
d="M778 -39q-282 0 -466.5 154t-194.5 394h353q15 -107 100.5 -174.5t209.5 -67.5q132 0 220 88t101 237h-532v272h532q-16 145 -103.5 228.5t-216.5 83.5q-124 0 -210 -69t-100 -179h-352q4 117 56 219.5t138.5 176t207.5 116t258 42.5q325 0 512 -202.5t187 -557.5
q0 -354 -187.5 -557.5t-512.5 -203.5z" />
    <glyph glyph-name="IUcyrillic" unicode="&#x42e;" horiz-adv-x="2249" 
d="M1421 -39q-288 0 -471.5 165t-220.5 456h-182v-582h-367v1443h367v-566h184q41 283 224 444t466 161q322 0 511 -204.5t189 -555.5q0 -352 -189 -556.5t-511 -204.5zM1419 1178q-148 0 -238.5 -124t-90.5 -332q0 -209 90 -333t239 -124q148 0 238.5 124.5t90.5 332.5
t-90.5 332t-238.5 124z" />
    <glyph glyph-name="IAcyrillic" unicode="&#x42f;" horiz-adv-x="1491" 
d="M948 761v405h-211q-102 0 -162.5 -55t-60.5 -148q0 -95 59.5 -148.5t164.5 -53.5h210zM787 503l-314 -503h-397l361 555q-135 49 -216 157t-81 252q0 218 149 348.5t408 130.5h613v-1443h-362v503h-161z" />
    <glyph glyph-name="acyrillic" unicode="&#x430;" horiz-adv-x="1269" 
d="M580 230q84 0 141.5 49t57.5 121v73l-187 -12q-78 -6 -119 -36t-41 -80q0 -53 40.5 -84t107.5 -31zM451 -17q-161 0 -260.5 92.5t-99.5 244.5t114.5 238.5t330.5 99.5l243 14v87q0 57 -40.5 88.5t-113.5 31.5q-141 0 -176 -90h-318q12 162 150 256t364 94q230 0 356 -100
t126 -280v-759h-344v138h-19q-37 -71 -122 -113t-191 -42z" />
    <glyph glyph-name="becyrillic" unicode="&#x431;" horiz-adv-x="1345" 
d="M681 -26q-277 0 -429 168.5t-152 492.5q0 219 40.5 379.5t121 261.5t194 151t264.5 55l158 5q76 3 149.5 13t108.5 18l36 9v-268q-86 -35 -270 -40l-148 -4q-99 -3 -168.5 -27t-114.5 -71.5t-69 -111t-35 -153.5h19q108 215 372 215q218 0 352.5 -142t134.5 -382
q0 -264 -151.5 -416.5t-412.5 -152.5zM673 244q99 0 154 75t55 212q0 133 -55.5 207.5t-153.5 74.5q-99 0 -154.5 -74.5t-55.5 -207.5q0 -137 55.5 -212t154.5 -75z" />
    <glyph glyph-name="vecyrillic" unicode="&#x432;" horiz-adv-x="1286" 
d="M639 903h-150v-236h141q74 0 114 31.5t40 87.5q0 55 -37.5 86t-107.5 31zM645 481h-156v-271h162q84 0 128.5 35t44.5 102q0 65 -46.5 99.5t-132.5 34.5zM143 0v1113h602q182 0 284 -74t102 -205q0 -89 -60 -156t-150 -79v-19q114 -8 186.5 -81t72.5 -176
q0 -146 -114 -234.5t-307 -88.5h-616z" />
    <glyph glyph-name="gecyrillic" unicode="&#x433;" horiz-adv-x="1035" 
d="M945 851h-448v-851h-354v1113h802v-262z" />
    <glyph glyph-name="decyrillic" unicode="&#x434;" horiz-adv-x="1422" 
d="M865 262v590h-297l-20 -300q-12 -173 -72 -271v-19h389zM359 -285h-320v547h81q103 53 119 316l34 535h945v-851h160v-547h-321v285h-698v-285z" />
    <glyph glyph-name="iecyrillic" unicode="&#x435;" horiz-adv-x="1302" 
d="M657 888q-87 0 -143 -56.5t-63 -150.5h404q-4 97 -56.5 152t-141.5 55zM868 328h323q-29 -163 -172 -258.5t-359 -95.5q-266 0 -412.5 150.5t-146.5 424.5q0 275 147.5 432.5t406.5 157.5q257 0 400 -148.5t143 -414.5v-98h-749v-18q2 -109 61 -172t160 -63
q77 0 128.5 27t69.5 76z" />
    <glyph glyph-name="zhecyrillic" unicode="&#x436;" horiz-adv-x="1878" 
d="M50 0l372 609l-349 504h386l252 -427h55v427h345v-427h55l253 427h384l-347 -503l372 -610h-402l-255 450h-60v-450h-345v450h-60l-255 -450h-401z" />
    <glyph glyph-name="zecyrillic" unicode="&#x437;" horiz-adv-x="1245" 
d="M627 -26q-78 0 -148 12.5t-136.5 42.5t-116.5 75.5t-83.5 116.5t-40.5 160h334q41 -138 191 -138q72 0 115.5 29t43.5 84q0 103 -157 103h-148v217h135q139 0 139 98q0 46 -34.5 75t-104.5 29q-145 0 -164 -124h-331q15 178 141 281.5t352 103.5q233 0 359 -83.5
t126 -240.5q0 -82 -44 -138t-115 -77v-19q99 -28 149.5 -92t50.5 -153q0 -167 -135 -264.5t-378 -97.5z" />
    <glyph glyph-name="iicyrillic" unicode="&#x438;" horiz-adv-x="1389" 
d="M489 0h-346v1113h346v-629h19l392 629h346v-1113h-346v641h-19z" />
    <glyph glyph-name="iishortcyrillic" unicode="&#x439;" horiz-adv-x="1389" 
d="M279 1639h250q3 -79 44 -127t106 -48t106 48t44 127h250q0 -160 -110 -259.5t-290 -99.5t-290 99.5t-110 259.5zM489 0h-346v1113h346v-629h19l392 629h346v-1113h-346v641h-19z" />
    <glyph glyph-name="kacyrillic" unicode="&#x43a;" horiz-adv-x="1298" 
d="M497 691h49l283 422h395l-386 -502l410 -611h-412l-285 444h-54v-444h-354v1113h354v-422z" />
    <glyph glyph-name="elcyrillic" unicode="&#x43b;" horiz-adv-x="1312" 
d="M557 552q-7 -134 -30.5 -233t-70 -176.5t-123.5 -117t-185 -39.5q-64 0 -109 14v294q35 -8 68 -8q38 0 65 22t42 64t23 91t11 115l26 535h896v-1113h-354v851h-242z" />
    <glyph glyph-name="emcyrillic" unicode="&#x43c;" horiz-adv-x="1710" 
d="M471 0h-328v1113h465l238 -656h19l239 656h463v-1113h-328v717h-18l-246 -642h-240l-246 642h-18v-717z" />
    <glyph glyph-name="encyrillic" unicode="&#x43d;" horiz-adv-x="1378" 
d="M143 0v1113h354v-415h384v415h354v-1113h-354v436h-384v-436h-354z" />
    <glyph glyph-name="ocyrillic" unicode="&#x43e;" horiz-adv-x="1335" 
d="M668 244q97 0 150.5 82t53.5 231q0 146 -54 229t-150 83t-150 -83t-54 -229q0 -149 53.5 -231t150.5 -82zM668 -26q-267 0 -417 154t-150 429q0 270 152 426t415 156q264 0 415.5 -155.5t151.5 -426.5q0 -275 -149.5 -429t-417.5 -154z" />
    <glyph glyph-name="pecyrillic" unicode="&#x43f;" horiz-adv-x="1368" 
d="M871 0v851h-374v-851h-354v1113h1082v-1113h-354z" />
    <glyph glyph-name="ercyrillic" unicode="&#x440;" horiz-adv-x="1387" 
d="M843 1130q211 0 329.5 -150.5t118.5 -422.5t-116 -423t-324 -151q-120 0 -206 49.5t-125 138.5h-19v-510h-353v1452h344v-181h19q41 93 129 145.5t203 52.5zM714 261q101 0 157.5 78.5t56.5 217.5q0 138 -57 216.5t-157 78.5t-157.5 -79t-57.5 -217q0 -139 57 -217
t158 -78z" />
    <glyph glyph-name="escyrillic" unicode="&#x441;" horiz-adv-x="1265" 
d="M1176 701h-325q-11 79 -59 122.5t-128 43.5q-208 0 -208 -309q0 -312 208 -312q163 0 187 158h325q-16 -201 -151.5 -315.5t-360.5 -114.5q-275 0 -419 149.5t-144 434.5q0 284 144 432.5t419 148.5q228 0 361.5 -116t150.5 -322z" />
    <glyph glyph-name="tecyrillic" unicode="&#x442;" horiz-adv-x="1122" 
d="M1057 1113v-262h-319v-851h-354v851h-319v262h992z" />
    <glyph glyph-name="ucyrillic" unicode="&#x443;" horiz-adv-x="1302" 
d="M308 -407q-124 0 -129 1v269q5 -1 62 -1q176 0 194 98l5 31l-380 1122h391l199 -816h19l199 816h374l-358 -1111q-71 -222 -203.5 -315.5t-372.5 -93.5z" />
    <glyph glyph-name="efcyrillic" unicode="&#x444;" horiz-adv-x="1777" 
d="M718 242v629q-118 -4 -188 -87t-70 -227q0 -147 69 -229t189 -86zM1317 557q0 146 -69.5 228t-188.5 86v-629q118 4 188 87.5t70 227.5zM714 -17q-285 7 -449.5 158.5t-164.5 415.5q0 260 166.5 413t447.5 160v332h350v-332q284 -7 448.5 -158.5t164.5 -415.5
q0 -259 -166 -412.5t-447 -160.5v-322h-350v322z" />
    <glyph glyph-name="hacyrillic" unicode="&#x445;" horiz-adv-x="1270" 
d="M636 341h-19l-178 -341h-369l333 547l-335 566h403l163 -347h19l165 347h383l-337 -551l338 -562h-387z" />
    <glyph glyph-name="tsecyrillic" unicode="&#x446;" horiz-adv-x="1429" 
d="M1385 -285h-321v285h-921v1113h354v-851h372v851h354v-851h162v-547z" />
    <glyph glyph-name="checyrillic" unicode="&#x447;" horiz-adv-x="1331" 
d="M1188 0h-354v459h-19q-43 -56 -120.5 -90.5t-180.5 -34.5q-175 0 -283 112t-108 303v364h354v-301q0 -89 46 -139t122 -50q129 0 189 99v391h354v-1113z" />
    <glyph glyph-name="shacyrillic" unicode="&#x448;" horiz-adv-x="1882" 
d="M143 0v1113h354v-851h267v851h354v-851h267v851h354v-1113h-1596z" />
    <glyph glyph-name="shchacyrillic" unicode="&#x449;" horiz-adv-x="1936" 
d="M1892 -285h-321v285h-1428v1113h354v-851h267v851h354v-851h267v851h354v-851h153v-547z" />
    <glyph glyph-name="hardsigncyrillic" unicode="&#x44a;" horiz-adv-x="1439" 
d="M913 0h-574v851h-282v262h636v-307h220q200 0 318.5 -109t118.5 -294t-118.5 -294t-318.5 -109zM843 548h-150v-286h150q70 0 113 40t43 103q0 64 -43 103.5t-113 39.5z" />
    <glyph glyph-name="yericyrillic" unicode="&#x44b;" horiz-adv-x="1751" 
d="M1254 0v1113h354v-1113h-354zM648 548h-149v-286h149q71 0 113.5 39.5t42.5 103.5t-43 103.5t-113 39.5zM145 0v1113h354v-307h219q200 0 318.5 -109t118.5 -294t-118.5 -294t-318.5 -109h-573z" />
    <glyph glyph-name="softsigncyrillic" unicode="&#x44c;" horiz-adv-x="1245" 
d="M646 548h-149v-286h149q71 0 113.5 39.5t42.5 103.5t-43 103.5t-113 39.5zM143 0v1113h354v-307h219q200 0 318.5 -109t118.5 -294t-118.5 -294t-318.5 -109h-573z" />
    <glyph glyph-name="ereversedcyrillic" unicode="&#x44d;" horiz-adv-x="1274" 
d="M611 -26q-228 0 -365.5 114t-154.5 308h324q13 -71 65 -110.5t131 -39.5q86 0 142.5 56t63.5 156h-355v217h352q-10 90 -65.5 141t-137.5 51q-77 0 -128.5 -40.5t-65.5 -110.5h-325q19 191 158 307t362 116q260 0 411 -156t151 -425q0 -272 -151 -428t-412 -156z" />
    <glyph glyph-name="iucyrillic" unicode="&#x44e;" horiz-adv-x="1861" 
d="M1195 -26q-232 0 -378 120.5t-177 341.5h-143v-436h-354v1113h354v-415h146q38 209 183.5 325t368.5 116q262 0 413.5 -154.5t151.5 -427.5q0 -277 -150 -430t-415 -153zM1194 244q96 0 149.5 82t53.5 231q0 147 -54 229.5t-149 82.5t-149.5 -83t-54.5 -229
q0 -149 54 -231t150 -82z" />
    <glyph glyph-name="iacyrillic" unicode="&#x44f;" horiz-adv-x="1269" 
d="M615 582h167v270h-167q-67 0 -108 -38t-41 -99q0 -58 41 -95.5t108 -37.5zM782 0v343h-85l-229 -343h-396l282 397q-108 33 -171.5 120.5t-63.5 203.5q0 178 124.5 285t325.5 107h557v-1113h-344z" />
    <glyph glyph-name="iocyrillic" unicode="&#x451;" horiz-adv-x="1302" 
d="M657 888q-87 0 -143 -56.5t-63 -150.5h404q-4 97 -56.5 152t-141.5 55zM868 328h323q-29 -163 -172 -258.5t-359 -95.5q-266 0 -412.5 150.5t-146.5 424.5q0 275 147.5 432.5t406.5 157.5q257 0 400 -148.5t143 -414.5v-98h-749v-18q2 -109 61 -172t160 -63
q77 0 128.5 27t69.5 76zM404 1260q-76 0 -124.5 46t-48.5 118t48.5 118t124.5 46t124.5 -46t48.5 -118t-48.5 -118t-124.5 -46zM906 1260q-76 0 -124.5 46t-48.5 118t48.5 118t124.5 46t125 -46t49 -118t-49 -118t-125 -46z" />
    <glyph glyph-name="djecyrillic" unicode="&#x452;" horiz-adv-x="1405" 
d="M1263 -14q0 -170 -109.5 -260t-313.5 -90q-66 0 -102 4v253q18 -2 42 -2q69 0 99 25.5t30 82.5v636q0 102 -51.5 156.5t-142.5 54.5q-92 0 -150 -59.5t-58 -155.5v-631h-354v1249h-166v164h166v146h346v-146h243v-164h-243v-321h19q37 95 132 150.5t217 55.5
q186 0 291 -109t105 -310v-729z" />
    <glyph glyph-name="gjecyrillic" unicode="&#x453;" horiz-adv-x="1035" 
d="M341 1288l245 359h356l-292 -359h-309zM947 851h-448v-851h-354v1113h802v-262z" />
    <glyph glyph-name="ecyrillic" unicode="&#x454;" horiz-adv-x="1271" 
d="M1182 396q-17 -194 -153.5 -308t-361.5 -114q-264 0 -415.5 156t-151.5 428q0 269 152 425t413 156q222 0 359 -116t156 -307h-324q-14 70 -63.5 110.5t-123.5 40.5q-84 0 -140.5 -50.5t-67.5 -140.5h350v-217h-353q7 -100 65 -156.5t146 -56.5q76 0 125.5 39.5
t62.5 110.5h325z" />
    <glyph glyph-name="dzecyrillic" unicode="&#x455;" horiz-adv-x="1228" 
d="M124 778q0 166 132 263.5t357 97.5q231 0 355.5 -87.5t134.5 -255.5h-322q-8 49 -51 76.5t-114 27.5q-69 0 -112.5 -27.5t-43.5 -72.5q0 -35 30.5 -57.5t97.5 -36.5l230 -47q165 -35 239.5 -107.5t74.5 -198.5q0 -173 -140 -276t-374 -103q-239 0 -372.5 88.5
t-148.5 256.5h341q28 -106 185 -106q73 0 116.5 27t43.5 72q0 35 -27.5 56t-94.5 35l-207 44q-330 70 -330 331z" />
    <glyph glyph-name="icyrillic" unicode="&#x456;" horiz-adv-x="652" 
d="M147 0v1113h354v-1113h-354zM324 1242q-92 0 -145.5 43t-53.5 114q0 72 53.5 115t145.5 43q93 0 146.5 -43t53.5 -115q0 -71 -53.5 -114t-146.5 -43z" />
    <glyph glyph-name="yicyrillic" unicode="&#x457;" horiz-adv-x="655" 
d="M148 0v1113h354v-1113h-354zM74 1260q-76 0 -124.5 46t-48.5 118t48.5 118t124.5 46t124.5 -46t48.5 -118t-48.5 -118t-124.5 -46zM576 1260q-76 0 -124.5 46t-48.5 118t48.5 118t124.5 46t125 -46t49 -118t-49 -118t-125 -46z" />
    <glyph glyph-name="jecyrillic" unicode="&#x458;" horiz-adv-x="654" 
d="M503 1113v-1127q0 -169 -109 -259.5t-313 -90.5q-65 0 -103 4v253q18 -2 42 -2q69 0 99 25.5t30 82.5v1114h354zM326 1242q-92 0 -145.5 43t-53.5 114q0 72 53.5 115t145.5 43q93 0 146.5 -43t53.5 -115q0 -71 -53.5 -114t-146.5 -43z" />
    <glyph glyph-name="ljecyrillic" unicode="&#x459;" horiz-adv-x="1921" 
d="M559 552q-7 -134 -30.5 -233t-70 -176.5t-123.5 -117t-184 -39.5q-65 0 -110 14v294q35 -8 68 -8q38 0 65 22t42 64t23 91t11 115l26 535h896v-307h220q200 0 318.5 -109t118.5 -294t-118.5 -294t-318.5 -109h-574v851h-242zM1322 548h-150v-286h150q70 0 112.5 40
t42.5 103q0 64 -42.5 103.5t-112.5 39.5z" />
    <glyph glyph-name="njecyrillic" unicode="&#x45a;" horiz-adv-x="1971" 
d="M1395 486h-172v-231h172q62 0 100 32.5t38 82.5t-38 83t-100 33zM869 0v478h-372v-478h-354v1113h354v-379h372v379h354v-372h222q199 0 316.5 -100.5t117.5 -270.5q0 -169 -117.5 -269.5t-316.5 -100.5h-576z" />
    <glyph glyph-name="tshecyrillic" unicode="&#x45b;" horiz-adv-x="1405" 
d="M499 928h19q37 95 132 150.5t217 55.5q186 0 291 -109t105 -310v-715h-354v635q0 102 -51.5 156.5t-142.5 54.5q-92 0 -150 -59.5t-58 -155.5v-631h-354v1249h-166v164h166v146h346v-146h243v-164h-243v-321z" />
    <glyph glyph-name="kjecyrillic" unicode="&#x45c;" horiz-adv-x="1298" 
d="M483 1288l245 359h356l-292 -359h-309zM497 691h49l283 422h395l-386 -502l410 -611h-412l-285 444h-54v-444h-354v1113h354v-422z" />
    <glyph glyph-name="ushortcyrillic" unicode="&#x45e;" horiz-adv-x="1302" 
d="M254 1639h250q3 -79 44 -127t106 -48t106 48t44 127h250q0 -160 -110 -259.5t-290 -99.5t-290 99.5t-110 259.5zM308 -407q-124 0 -129 1v269q5 -1 62 -1q176 0 194 98l5 31l-380 1122h391l199 -816h19l199 816h374l-358 -1111q-71 -222 -203.5 -315.5t-372.5 -93.5z" />
    <glyph glyph-name="dzhecyrillic" unicode="&#x45f;" horiz-adv-x="1368" 
d="M1225 0h-381v-285h-321v285h-380v1113h354v-851h374v851h354v-1113z" />
    <glyph glyph-name="Geupturncyrillic" unicode="&#x490;" horiz-adv-x="1259" 
d="M547 1148v-1148h-367v1443h624v285h345v-580h-602z" />
    <glyph glyph-name="geupturncyrillic" unicode="&#x491;" horiz-adv-x="1035" 
d="M945 851h-448v-851h-354v1113h481v285h321v-547z" />
    <glyph glyph-name="baht" unicode="&#xe3f;" horiz-adv-x="1461" 
d="M760 631v-371q189 13 189 188q0 168 -189 183zM496 259h120v373h-120v-373zM496 1184v-329h120v329h-120zM760 1181v-321q72 12 111.5 53.5t39.5 105.5q0 67 -39.5 109t-111.5 53zM987 776v-19q142 -8 238.5 -105.5t96.5 -235.5q0 -190 -136.5 -303t-367.5 -113h-58v-135
h-144v135h-477v1443h477v141h144v-141h38q215 0 336 -96t121 -264q0 -116 -76.5 -203.5t-191.5 -103.5z" />
    <glyph glyph-name="Aringbelow" unicode="&#x1e00;" horiz-adv-x="1563" 
d="M1091 0l-90 317h-471l-93 -317h-364l484 1443h449l485 -1443h-400zM758 1118l-158 -537h332l-155 537h-19zM765 -569q-110 0 -182 69t-72 176q0 106 71.5 174t182.5 68q110 0 180.5 -68t70.5 -174q0 -107 -71 -176t-180 -69zM764 -422q43 0 70 27.5t27 69.5
q0 41 -28 68.5t-69 27.5q-42 -1 -69.5 -28t-27.5 -68q0 -43 27.5 -70t69.5 -27z" />
    <glyph glyph-name="aringbelow" unicode="&#x1e01;" horiz-adv-x="1248" 
d="M570 230q84 0 141.5 49t57.5 121v73l-187 -12q-78 -6 -119 -36t-41 -80q0 -53 40.5 -84t107.5 -31zM441 -17q-161 0 -260.5 92.5t-99.5 244.5t114.5 238.5t330.5 99.5l243 14v87q0 57 -40.5 88.5t-113.5 31.5q-141 0 -176 -90h-318q12 162 150 256t364 94q230 0 356 -100
t126 -280v-759h-344v138h-19q-37 -71 -122 -113t-191 -42zM631 -569q-110 0 -182 69t-72 176q0 106 71.5 174t182.5 68q110 0 180.5 -68t70.5 -174q0 -107 -71 -176t-180 -69zM630 -422q43 0 70 27.5t27 69.5q0 41 -28 68.5t-69 27.5q-42 -1 -69.5 -28t-27.5 -68
q0 -43 27.5 -70t69.5 -27z" />
    <glyph glyph-name="Bdotaccent" unicode="&#x1e02;" horiz-adv-x="1459" 
d="M663 1581q-79 0 -128 48.5t-49 123.5t49 123.5t128 48.5q78 0 127 -48.5t49 -123.5t-49 -123.5t-127 -48.5zM863 0h-693v1443h673q215 0 336.5 -96t121.5 -264q0 -116 -77 -203.5t-192 -103.5v-19q142 -8 238.5 -105.5t96.5 -235.5q0 -190 -136.5 -303t-367.5 -113z
M537 1184v-329h194q100 0 156 43.5t56 120.5t-52.5 121t-145.5 44h-208zM537 259h222q114 0 174.5 48.5t60.5 140.5q0 89 -61.5 136.5t-175.5 47.5h-220v-373z" />
    <glyph glyph-name="bdotaccent" unicode="&#x1e03;" horiz-adv-x="1374" 
d="M324 1668q-79 0 -128 48.5t-49 123.5t49 123.5t128 48.5q78 0 127 -48.5t49 -123.5t-49 -123.5t-127 -48.5zM847 -17q-119 0 -207.5 50.5t-128.5 140.5h-19v-174h-344v1530h353v-596h19q41 93 126.5 144.5t200.5 51.5q211 0 327.5 -150.5t116.5 -422.5
q0 -271 -117.5 -422.5t-326.5 -151.5zM715 852q-99 0 -157 -79.5t-59 -216.5q1 -137 58.5 -216t157.5 -79q99 0 156 79.5t57 216.5q0 136 -57.5 215.5t-155.5 79.5z" />
    <glyph glyph-name="Bdotbelow" unicode="&#x1e04;" horiz-adv-x="1459" 
d="M663 -425q-81 0 -128 40.5t-47 105.5q0 66 47 106.5t128 40.5t128 -40.5t47 -106.5q0 -65 -47 -105.5t-128 -40.5zM863 0h-693v1443h673q215 0 336.5 -96t121.5 -264q0 -116 -77 -203.5t-192 -103.5v-19q142 -8 238.5 -105.5t96.5 -235.5q0 -190 -136.5 -303t-367.5 -113
zM537 1184v-329h194q100 0 156 43.5t56 120.5t-52.5 121t-145.5 44h-208zM537 259h222q114 0 174.5 48.5t60.5 140.5q0 89 -61.5 136.5t-175.5 47.5h-220v-373z" />
    <glyph glyph-name="bdotbelow" unicode="&#x1e05;" horiz-adv-x="1374" 
d="M651 -425q-81 0 -128 40.5t-47 105.5q0 66 47 106.5t128 40.5t128 -40.5t47 -106.5q0 -65 -47 -105.5t-128 -40.5zM847 -17q-119 0 -207.5 50.5t-128.5 140.5h-19v-174h-344v1530h353v-596h19q41 93 126.5 144.5t200.5 51.5q211 0 327.5 -150.5t116.5 -422.5
q0 -271 -117.5 -422.5t-326.5 -151.5zM715 852q-99 0 -157 -79.5t-59 -216.5q1 -137 58.5 -216t157.5 -79q99 0 156 79.5t57 216.5q0 136 -57.5 215.5t-155.5 79.5z" />
    <glyph glyph-name="Blinebelow" unicode="&#x1e06;" horiz-adv-x="1459" 
d="M863 0h-693v1443h673q215 0 336.5 -96t121.5 -264q0 -116 -77 -203.5t-192 -103.5v-19q142 -8 238.5 -105.5t96.5 -235.5q0 -190 -136.5 -303t-367.5 -113zM537 1184v-329h194q100 0 156 43.5t56 120.5t-52.5 121t-145.5 44h-208zM537 259h222q114 0 174.5 48.5
t60.5 140.5q0 89 -61.5 136.5t-175.5 47.5h-220v-373zM1054 -422h-782v198h782v-198z" />
    <glyph glyph-name="blinebelow" unicode="&#x1e07;" horiz-adv-x="1374" 
d="M1042 -422h-782v198h782v-198zM847 -17q-119 0 -207.5 50.5t-128.5 140.5h-19v-174h-344v1530h353v-596h19q41 93 126.5 144.5t200.5 51.5q211 0 327.5 -150.5t116.5 -422.5q0 -271 -117.5 -422.5t-326.5 -151.5zM715 852q-99 0 -157 -79.5t-59 -216.5q1 -137 58.5 -216
t157.5 -79q99 0 156 79.5t57 216.5q0 136 -57.5 215.5t-155.5 79.5z" />
    <glyph glyph-name="Ccedillaacute" unicode="&#x1e08;" horiz-adv-x="1545" 
d="M1261 1923l-304 -326h-316l258 326h362zM1098 524h352q-8 -226 -161.5 -378.5t-395.5 -179.5l-28 -67q91 -7 138.5 -53.5t47.5 -128.5q0 -101 -72.5 -155.5t-206.5 -54.5q-90 0 -148 17v145q35 -14 113 -14q108 0 108 53q0 28 -28.5 40.5t-91.5 12.5h-61v127l33 79
q-279 32 -437 232t-158 523q0 353 186.5 556.5t511.5 203.5q179 0 325.5 -73.5t232.5 -204t91 -291.5h-353q-14 118 -96 190.5t-200 72.5q-151 0 -237.5 -121t-86.5 -332q0 -212 87 -334t238 -122q119 0 200 70.5t97 186.5z" />
    <glyph glyph-name="ccedillaacute" unicode="&#x1e09;" horiz-adv-x="1233" 
d="M1070 1647l-292 -359h-309l245 359h356zM1158 701h-325q-11 79 -59 122.5t-128 43.5q-208 0 -208 -309q0 -312 208 -312q163 0 187 158h325q-14 -177 -122 -288t-291 -136l-34 -81q91 -7 138.5 -53.5t47.5 -128.5q0 -101 -72.5 -155.5t-206.5 -54.5q-90 0 -148 17v145
q35 -14 113 -14q108 0 108 53q0 28 -28.5 40.5t-91.5 12.5h-61v127l38 91q-228 26 -346.5 173t-118.5 406q0 284 144 432.5t419 148.5q228 0 361.5 -116t150.5 -322z" />
    <glyph glyph-name="Ddotaccent" unicode="&#x1e0a;" horiz-adv-x="1553" 
d="M663 1581q-79 0 -128 48.5t-49 123.5t49 123.5t128 48.5q78 0 127 -48.5t49 -123.5t-49 -123.5t-127 -48.5zM170 1444h606q322 0 498.5 -185t176.5 -523q0 -355 -174.5 -545.5t-500.5 -190.5h-606v1444zM537 1149v-854h173q179 0 273 110t94 324q0 201 -96.5 310.5
t-270.5 109.5h-173z" />
    <glyph glyph-name="ddotaccent" unicode="&#x1e0b;" horiz-adv-x="1374" 
d="M1050 1668q-79 0 -128 48.5t-49 123.5t49 123.5t128 48.5q78 0 127 -48.5t49 -123.5t-49 -123.5t-127 -48.5zM530 -17q-209 0 -328 153.5t-119 422.5q0 266 119.5 418.5t327.5 152.5q112 0 197.5 -52t126.5 -144h19v596h354v-1530h-345v174h-19q-41 -90 -129 -140.5
t-204 -50.5zM660 852q-100 0 -157 -78.5t-57 -216.5q0 -139 56.5 -217.5t157.5 -78.5t158 78.5t57 216.5t-57.5 217t-157.5 79z" />
    <glyph glyph-name="Ddotbelow" unicode="&#x1e0c;" horiz-adv-x="1553" 
d="M663 -425q-81 0 -128 40.5t-47 105.5q0 66 47 106.5t128 40.5t128 -40.5t47 -106.5q0 -65 -47 -105.5t-128 -40.5zM170 1444h606q322 0 498.5 -185t176.5 -523q0 -355 -174.5 -545.5t-500.5 -190.5h-606v1444zM537 1149v-854h173q179 0 273 110t94 324q0 201 -96.5 310.5
t-270.5 109.5h-173z" />
    <glyph glyph-name="ddotbelow" unicode="&#x1e0d;" horiz-adv-x="1374" 
d="M709 -425q-81 0 -128 40.5t-47 105.5q0 66 47 106.5t128 40.5t128 -40.5t47 -106.5q0 -65 -47 -105.5t-128 -40.5zM530 -17q-209 0 -328 153.5t-119 422.5q0 266 119.5 418.5t327.5 152.5q112 0 197.5 -52t126.5 -144h19v596h354v-1530h-345v174h-19q-41 -90 -129 -140.5
t-204 -50.5zM660 852q-100 0 -157 -78.5t-57 -216.5q0 -139 56.5 -217.5t157.5 -78.5t158 78.5t57 216.5t-57.5 217t-157.5 79z" />
    <glyph glyph-name="Dlinebelow" unicode="&#x1e0e;" horiz-adv-x="1553" 
d="M1054 -422h-782v198h782v-198zM170 1444h606q322 0 498.5 -185t176.5 -523q0 -355 -174.5 -545.5t-500.5 -190.5h-606v1444zM537 1149v-854h173q179 0 273 110t94 324q0 201 -96.5 310.5t-270.5 109.5h-173z" />
    <glyph glyph-name="dlinebelow" unicode="&#x1e0f;" horiz-adv-x="1374" 
d="M1100 -422h-782v198h782v-198zM530 -17q-209 0 -328 153.5t-119 422.5q0 266 119.5 418.5t327.5 152.5q112 0 197.5 -52t126.5 -144h19v596h354v-1530h-345v174h-19q-41 -90 -129 -140.5t-204 -50.5zM660 852q-100 0 -157 -78.5t-57 -216.5q0 -139 56.5 -217.5
t157.5 -78.5t158 78.5t57 216.5t-57.5 217t-157.5 79z" />
    <glyph glyph-name="Dcommaaccent" unicode="&#x1e10;" horiz-adv-x="1553" 
d="M652 -505h-306l148 350h351zM170 1444h606q322 0 498.5 -185t176.5 -523q0 -355 -174.5 -545.5t-500.5 -190.5h-606v1444zM537 1149v-854h173q179 0 273 110t94 324q0 201 -96.5 310.5t-270.5 109.5h-173z" />
    <glyph glyph-name="dcommaaccent" unicode="&#x1e11;" horiz-adv-x="1374" 
d="M698 -505h-306l148 350h351zM530 -17q-209 0 -328 153.5t-119 422.5q0 266 119.5 418.5t327.5 152.5q112 0 197.5 -52t126.5 -144h19v596h354v-1530h-345v174h-19q-41 -90 -129 -140.5t-204 -50.5zM660 852q-100 0 -157 -78.5t-57 -216.5q0 -139 56.5 -217.5t157.5 -78.5
t158 78.5t57 216.5t-57.5 217t-157.5 79z" />
    <glyph glyph-name="Dcircumflexbelow" unicode="&#x1e12;" horiz-adv-x="1553" 
d="M170 1444h606q322 0 498.5 -185t176.5 -523q0 -355 -174.5 -545.5t-500.5 -190.5h-606v1444zM537 1149v-854h173q179 0 273 110t94 324q0 201 -96.5 310.5t-270.5 109.5h-173zM846 -156l278 -276h-327l-124 145h-20l-124 -145h-327l278 276h366z" />
    <glyph glyph-name="dcircumflexbelow" unicode="&#x1e13;" horiz-adv-x="1374" 
d="M530 -17q-209 0 -328 153.5t-119 422.5q0 266 119.5 418.5t327.5 152.5q112 0 197.5 -52t126.5 -144h19v596h354v-1530h-345v174h-19q-41 -90 -129 -140.5t-204 -50.5zM660 852q-100 0 -157 -78.5t-57 -216.5q0 -139 56.5 -217.5t157.5 -78.5t158 78.5t57 216.5
t-57.5 217t-157.5 79zM892 -156l278 -276h-327l-124 145h-20l-124 -145h-327l278 276h366z" />
    <glyph glyph-name="Emacrongrave" unicode="&#x1e14;" horiz-adv-x="1302" 
d="M1056 1607h-782v196h782v-196zM795 1932h-288l-158 280h320zM1159 295v-295h-989v1443h989v-295h-622v-288h585v-270h-585v-295h622z" />
    <glyph glyph-name="emacrongrave" unicode="&#x1e15;" horiz-adv-x="1262" 
d="M639 888q-87 0 -143 -56.5t-63 -150.5h404q-4 97 -56.5 152t-141.5 55zM850 328h323q-29 -163 -172 -258.5t-359 -95.5q-266 0 -412.5 150.5t-146.5 424.5q0 275 147.5 432.5t406.5 157.5q257 0 400 -148.5t143 -414.5v-98h-749v-18q2 -109 61 -172t160 -63
q77 0 128.5 27t69.5 76zM784 1669h-282l-264 316h329zM1021 1322h-768v198h768v-198z" />
    <glyph glyph-name="Emacronacute" unicode="&#x1e16;" horiz-adv-x="1302" 
d="M1056 1607h-782v196h782v-196zM535 1932l126 280h320l-158 -280h-288zM1159 295v-295h-989v1443h989v-295h-622v-288h585v-270h-585v-295h622z" />
    <glyph glyph-name="emacronacute" unicode="&#x1e17;" horiz-adv-x="1262" 
d="M639 888q-87 0 -143 -56.5t-63 -150.5h404q-4 97 -56.5 152t-141.5 55zM850 328h323q-29 -163 -172 -258.5t-359 -95.5q-266 0 -412.5 150.5t-146.5 424.5q0 275 147.5 432.5t406.5 157.5q257 0 400 -148.5t143 -414.5v-98h-749v-18q2 -109 61 -172t160 -63
q77 0 128.5 27t69.5 76zM490 1669l217 316h329l-264 -316h-282zM1021 1322h-768v198h768v-198z" />
    <glyph glyph-name="Ecircumflexbelow" unicode="&#x1e18;" horiz-adv-x="1302" 
d="M1159 295v-295h-989v1443h989v-295h-622v-288h585v-270h-585v-295h622zM848 -156l278 -276h-327l-124 145h-20l-124 -145h-327l278 276h366z" />
    <glyph glyph-name="ecircumflexbelow" unicode="&#x1e19;" horiz-adv-x="1262" 
d="M639 888q-87 0 -143 -56.5t-63 -150.5h404q-4 97 -56.5 152t-141.5 55zM850 328h323q-29 -163 -172 -258.5t-359 -95.5q-266 0 -412.5 150.5t-146.5 424.5q0 275 147.5 432.5t406.5 157.5q257 0 400 -148.5t143 -414.5v-98h-749v-18q2 -109 61 -172t160 -63
q77 0 128.5 27t69.5 76zM825 -156l278 -276h-327l-124 145h-20l-124 -145h-327l278 276h366z" />
    <glyph glyph-name="Etildebelow" unicode="&#x1e1a;" horiz-adv-x="1302" 
d="M829 -430q-54 0 -100.5 18.5t-72.5 41t-59.5 41t-64.5 18.5q-35 0 -57.5 -24.5t-23.5 -78.5h-207q0 143 71 220t186 77q55 0 102 -18.5t74 -41t59.5 -41t62.5 -18.5q79 0 80 99h207q0 -141 -71 -217t-186 -76zM1159 295v-295h-989v1443h989v-295h-622v-288h585v-270h-585
v-295h622z" />
    <glyph glyph-name="etildebelow" unicode="&#x1e1b;" horiz-adv-x="1262" 
d="M806 -430q-54 0 -100.5 18.5t-72.5 41t-59.5 41t-64.5 18.5q-35 0 -57.5 -24.5t-23.5 -78.5h-207q0 143 71 220t186 77q55 0 102 -18.5t74 -41t59.5 -41t62.5 -18.5q79 0 80 99h207q0 -141 -71 -217t-186 -76zM639 888q-87 0 -143 -56.5t-63 -150.5h404q-4 97 -56.5 152
t-141.5 55zM850 328h323q-29 -163 -172 -258.5t-359 -95.5q-266 0 -412.5 150.5t-146.5 424.5q0 275 147.5 432.5t406.5 157.5q257 0 400 -148.5t143 -414.5v-98h-749v-18q2 -109 61 -172t160 -63q77 0 128.5 27t69.5 76z" />
    <glyph glyph-name="Ecedillabreve" unicode="&#x1e1c;" horiz-adv-x="1302" 
d="M847 1932h236q0 -157 -113.5 -254t-304.5 -97t-304.5 97t-113.5 254h236q2 -74 51 -117.5t131 -43.5t131 43.5t51 117.5zM1159 1148h-622v-288h585v-270h-585v-295h622v-295h-387l-42 -101q91 -7 138.5 -53.5t47.5 -128.5q0 -101 -72.5 -155.5t-206.5 -54.5
q-90 0 -148 17v145q35 -14 113 -14q108 0 108 53q0 28 -28.5 40.5t-91.5 12.5h-61v127l47 112h-406v1443h989v-295z" />
    <glyph glyph-name="ecedillabreve" unicode="&#x1e1d;" horiz-adv-x="1262" 
d="M819 1620h236q0 -160 -113 -260t-305 -100t-305 100t-113 260h236q2 -78 51 -123.5t131 -45.5t131 45.5t51 123.5zM433 681h404q-4 97 -56.5 152t-141.5 55q-87 0 -143 -56.5t-63 -150.5zM1180 478h-749v-18q2 -109 61 -172t160 -63q77 0 128.5 27t69.5 76h323
q-25 -143 -140 -235t-292 -113l-34 -81q91 -7 138.5 -53.5t47.5 -128.5q0 -101 -72.5 -155.5t-206.5 -54.5q-90 0 -148 17v145q35 -14 113 -14q108 0 108 53q0 28 -28.5 40.5t-91.5 12.5h-61v127l39 92q-222 26 -342 174t-120 395q0 275 147.5 432.5t406.5 157.5
q257 0 400 -148.5t143 -414.5v-98z" />
    <glyph glyph-name="Fdotaccent" unicode="&#x1e1e;" horiz-adv-x="1251" 
d="M661 1581q-79 0 -128 48.5t-49 123.5t49 123.5t128 48.5q78 0 127 -48.5t49 -123.5t-49 -123.5t-127 -48.5zM537 0h-367v1443h982v-295h-615v-329h558v-281h-558v-538z" />
    <glyph glyph-name="fdotaccent" unicode="&#x1e1f;" horiz-adv-x="882" 
d="M479 1631q-79 0 -128 48.5t-49 123.5t49 123.5t128 48.5q78 0 127 -48.5t49 -123.5t-49 -123.5t-127 -48.5zM226 0v835h-172v263h172v113q0 168 93 239.5t308 71.5q86 0 167 -12v-233q-37 7 -94 7q-67 0 -98.5 -24.5t-31.5 -76.5v-85h223v-263h-214v-835h-353z" />
    <glyph glyph-name="Gmacron" unicode="&#x1e20;" horiz-adv-x="1572" 
d="M1468 601q0 -298 -174.5 -469t-480.5 -171q-333 0 -522 203t-189 559q0 352 188 555.5t513 203.5q264 0 443.5 -140.5t206.5 -369.5h-362q-27 95 -103.5 149.5t-184.5 54.5q-154 0 -240.5 -119t-86.5 -330q0 -213 93.5 -336.5t251.5 -123.5q125 0 205 67t87 177l1 24
h-264v252h618v-186zM1194 1639h-782v198h782v-198z" />
    <glyph glyph-name="gmacron" unicode="&#x1e21;" horiz-adv-x="1360" 
d="M1054 1327h-768v198h768v-198zM871 563q0 135 -57.5 212t-158.5 77q-100 0 -156.5 -77t-56.5 -211t56 -211t157 -77q102 0 159 76.5t57 210.5zM645 -419q-232 0 -377 91.5t-156 241.5h344q10 -45 63 -71.5t136 -26.5q102 0 158 45.5t56 128.5v201h-19q-87 -175 -328 -175
q-204 0 -323.5 147.5t-119.5 399.5q0 263 120.5 415t330.5 152q111 0 199 -52.5t130 -143.5h19v179h345v-1100q0 -199 -156 -315.5t-422 -116.5z" />
    <glyph glyph-name="Hdotaccent" unicode="&#x1e22;" horiz-adv-x="1648" 
d="M1478 0h-366v582h-575v-582h-367v1443h367v-566h575v566h366v-1443zM824 1581q-79 0 -128 48.5t-49 123.5t49 123.5t128 48.5q78 0 127 -48.5t49 -123.5t-49 -123.5t-127 -48.5z" />
    <glyph glyph-name="hdotaccent" unicode="&#x1e23;" horiz-adv-x="1383" 
d="M148 0v1530h346v-602h19q36 95 131 150.5t216 55.5q186 0 290.5 -109t104.5 -310v-715h-354v635q0 102 -51 156.5t-142 54.5t-149 -59.5t-58 -155.5v-631h-353zM321 1668q-79 0 -128 48.5t-49 123.5t49 123.5t128 48.5q78 0 127 -48.5t49 -123.5t-49 -123.5t-127 -48.5z
" />
    <glyph glyph-name="Hdotbelow" unicode="&#x1e24;" horiz-adv-x="1648" 
d="M1478 0h-366v582h-575v-582h-367v1443h367v-566h575v566h366v-1443zM824 -425q-81 0 -128 40.5t-47 105.5q0 66 47 106.5t128 40.5t128 -40.5t47 -106.5q0 -65 -47 -105.5t-128 -40.5z" />
    <glyph glyph-name="hdotbelow" unicode="&#x1e25;" horiz-adv-x="1383" 
d="M148 0v1530h346v-602h19q36 95 131 150.5t216 55.5q186 0 290.5 -109t104.5 -310v-715h-354v635q0 102 -51 156.5t-142 54.5t-149 -59.5t-58 -155.5v-631h-353zM703 -425q-81 0 -128 40.5t-47 105.5q0 66 47 106.5t128 40.5t128 -40.5t47 -106.5q0 -65 -47 -105.5
t-128 -40.5z" />
    <glyph glyph-name="Hdieresis" unicode="&#x1e26;" horiz-adv-x="1648" 
d="M1478 0h-366v582h-575v-582h-367v1443h367v-566h575v566h366v-1443zM573 1581q-76 0 -124.5 46t-48.5 118t48.5 118t124.5 46t124.5 -46t48.5 -118t-48.5 -118t-124.5 -46zM1075 1581q-76 0 -124.5 46t-48.5 118t48.5 118t124.5 46t125 -46t49 -118t-49 -118t-125 -46z
" />
    <glyph glyph-name="hdieresis" unicode="&#x1e27;" horiz-adv-x="1383" 
d="M148 0v1530h346v-602h19q36 95 131 150.5t216 55.5q186 0 290.5 -109t104.5 -310v-715h-354v635q0 102 -51 156.5t-142 54.5t-149 -59.5t-58 -155.5v-631h-353zM70 1668q-76 0 -124.5 46t-48.5 118t48.5 118t124.5 46t124.5 -46t48.5 -118t-48.5 -118t-124.5 -46z
M572 1668q-76 0 -124.5 46t-48.5 118t48.5 118t124.5 46t125 -46t49 -118t-49 -118t-125 -46z" />
    <glyph glyph-name="Hcedilla" unicode="&#x1e28;" horiz-adv-x="1648" 
d="M170 1443h367v-566h575v566h366v-1443h-366v582h-575v-574l-46 -110q91 -7 138.5 -53.5t47.5 -128.5q0 -101 -72 -155.5t-207 -54.5q-90 0 -148 17v145q35 -14 113 -14q108 0 108 53q0 28 -28.5 40.5t-91.5 12.5h-61v127l48 113h-168v1443z" />
    <glyph glyph-name="hcedilla" unicode="&#x1e29;" horiz-adv-x="1383" 
d="M148 1530h346v-602h19q36 94 130.5 150t216.5 56q187 0 291 -110t104 -309v-715h-354v635q0 101 -50.5 156t-142.5 55t-149.5 -60t-57.5 -155v-623l-50 -117q87 -2 139 -52t52 -130q0 -102 -71.5 -156.5t-208.5 -54.5q-95 0 -147 18v144q39 -14 113 -14q107 0 107 51
q0 31 -26.5 43t-93.5 12h-60v128l54 120h-161v1530z" />
    <glyph glyph-name="Hbrevebelow" unicode="&#x1e2a;" horiz-adv-x="1648" 
d="M406 -96h239q0 -67 48 -108t131 -41t131 41t48 108h239q0 -141 -112 -234.5t-306 -93.5t-306 93.5t-112 234.5zM1478 0h-366v582h-575v-582h-367v1443h367v-566h575v566h366v-1443z" />
    <glyph glyph-name="hbrevebelow" unicode="&#x1e2b;" horiz-adv-x="1383" 
d="M285 -96h239q0 -67 48 -108t131 -41t131 41t48 108h239q0 -141 -112 -234.5t-306 -93.5t-306 93.5t-112 234.5zM148 0v1530h346v-602h19q36 95 131 150.5t216 55.5q186 0 290.5 -109t104.5 -310v-715h-354v635q0 102 -51 156.5t-142 54.5t-149 -59.5t-58 -155.5v-631
h-353z" />
    <glyph glyph-name="Itildebelow" unicode="&#x1e2c;" horiz-adv-x="707" 
d="M537 0h-367v1443h367v-1443zM517 -430q-54 0 -100.5 18.5t-72.5 41t-59.5 41t-64.5 18.5q-35 0 -57.5 -24.5t-23.5 -78.5h-207q0 143 71 220t186 77q55 0 102 -18.5t74 -41t59.5 -41t62.5 -18.5q79 0 80 99h207q0 -141 -71 -217t-186 -76z" />
    <glyph glyph-name="itildebelow" unicode="&#x1e2d;" horiz-adv-x="631" 
d="M138 0v1113h354v-1113h-354zM315 1242q-92 0 -145.5 43t-53.5 114q0 72 53.5 115t145.5 43q93 0 146.5 -43t53.5 -115q0 -71 -53.5 -114t-146.5 -43zM479 -430q-54 0 -100.5 18.5t-72.5 41t-59.5 41t-64.5 18.5q-35 0 -57.5 -24.5t-23.5 -78.5h-207q0 143 71 220t186 77
q55 0 102 -18.5t74 -41t59.5 -41t62.5 -18.5q79 0 80 99h207q0 -141 -71 -217t-186 -76z" />
    <glyph glyph-name="Idieresisacute" unicode="&#x1e2e;" horiz-adv-x="707" 
d="M537 0h-367v1443h367v-1443zM216 1962l132 250h327l-185 -250h-274zM102 1581q-76 0 -124.5 46t-48.5 118t48.5 118t124.5 46t124.5 -46t48.5 -118t-48.5 -118t-124.5 -46zM604 1581q-76 0 -124.5 46t-48.5 118t48.5 118t124.5 46t125 -46t49 -118t-49 -118t-125 -46z
" />
    <glyph glyph-name="idieresisacute" unicode="&#x1e2f;" horiz-adv-x="634" 
d="M175 1666l215 326h324l-262 -326h-277zM66 1269q-76 0 -124.5 46t-48.5 118t48.5 118t124.5 46t124.5 -46t48.5 -118t-48.5 -118t-124.5 -46zM568 1269q-76 0 -124.5 46t-48.5 118t48.5 118t124.5 46t125 -46t49 -118t-49 -118t-125 -46zM140 0v1113h354v-1113h-354z" />
    <glyph glyph-name="Kacute" unicode="&#x1e30;" horiz-adv-x="1507" 
d="M568 1596l258 326h362l-304 -326h-316zM537 0h-367v1443h367v-620h19l480 620h394l-499 -637l528 -806h-431l-364 569l-127 -161v-408z" />
    <glyph glyph-name="kacute" unicode="&#x1e31;" horiz-adv-x="1295" 
d="M165 1683l258 326h362l-304 -326h-316zM520 697l316 416h396l-397 -478l424 -635h-412l-278 426l-68 -77v-349h-353v1530h353v-833h19z" />
    <glyph glyph-name="Kdotbelow" unicode="&#x1e32;" horiz-adv-x="1507" 
d="M727 -425q-81 0 -128 40.5t-47 105.5q0 66 47 106.5t128 40.5t128 -40.5t47 -106.5q0 -65 -47 -105.5t-128 -40.5zM537 0h-367v1443h367v-620h19l480 620h394l-499 -637l528 -806h-431l-364 569l-127 -161v-408z" />
    <glyph glyph-name="kdotbelow" unicode="&#x1e33;" horiz-adv-x="1295" 
d="M676 -425q-81 0 -128 40.5t-47 105.5q0 66 47 106.5t128 40.5t128 -40.5t47 -106.5q0 -65 -47 -105.5t-128 -40.5zM520 697l316 416h396l-397 -478l424 -635h-412l-278 426l-68 -77v-349h-353v1530h353v-833h19z" />
    </font>
</defs>
</svg>
